<?xml version="1.0" standalone="no"?>
<!DOCTYPE svg PUBLIC "-//W3C//DTD SVG 1.1//EN" "http://www.w3.org/Graphics/SVG/1.1/DTD/svg11.dtd" >
<svg xmlns="http://www.w3.org/2000/svg">
<metadata>
This is a custom SVG webfont generated by Font Squirrel.
Copyright   : Created by Georg Duffner with FontForge 20 httpfontforgesfnet
</metadata>
<defs>
<font id="webfontDN2tilBq" horiz-adv-x="1239" >
<font-face units-per-em="2048" ascent="1454" descent="-594" />
<missing-glyph horiz-adv-x="409" />
<glyph unicode=" "  horiz-adv-x="409" />
<glyph unicode="&#x09;" horiz-adv-x="409" />
<glyph unicode="&#xa0;" horiz-adv-x="409" />
<glyph unicode="!" horiz-adv-x="552" d="M297 217q51 0 87 -36t36 -87t-36 -87t-87 -36t-87 36t-36 87t36 87t87 36zM297 1329q51 2 78.5 -44t27.5 -107q0 -63 -8 -155.5t-16 -154.5l-25 -196q-18 -133 -24 -172q-10 -80 -37 -80q-29 0 -37 80q-6 55 -26.5 231t-30 280.5t-9.5 162.5q0 66 27 109.5t80 45.5z" />
<glyph unicode="&#x22;" horiz-adv-x="632" d="M133 956q6 160 -6 312q-2 41 39 73q57 43 88 43q39 0 25 -106q-25 -164 -93 -317q-20 -51 -39 -52q-14 0 -14 47zM401 956q6 160 -6 312q-2 41 39 73q57 43 88 43q39 0 25 -106q-25 -164 -92 -317q-20 -51 -39 -52q-15 0 -15 47z" />
<glyph unicode="#" horiz-adv-x="958" d="M274 422l-90 -367q-6 -31 -61 -30q-10 0 -17.5 10t-3.5 20l91 363l-130 -6q-10 0 -19 7t-9 17q0 14 3 33.5t15.5 42.5t30.5 23l137 6l70 282l-131 -6q-10 0 -19.5 7t-9.5 18q0 14 3 33.5t15.5 42t30.5 22.5l142 6l86 350q8 35 67 35q10 0 14.5 -11t-0.5 -24l-83 -346 l231 13l88 356q8 35 68 35q10 0 14 -11.5t0 -23.5l-86 -352l121 6q10 0 19 -9.5t7 -19.5q-2 -4 -6 -20.5t-6 -22.5t-7 -18.5t-10 -17.5t-14.5 -10t-19.5 -5l-115 -6l-69 -283l124 6q12 0 20.5 -9t6.5 -19q-2 -4 -6 -20.5t-6 -23t-7 -18.5t-10.5 -17t-14.5 -10.5t-19 -5.5 l-119 -6l-88 -360q-6 -31 -62 -31q-10 0 -17 10.5t-3 20.5l88 356zM305 545l234 12l67 283l-231 -13z" />
<glyph unicode="$" horiz-adv-x="937" d="M541 553l-62 -500q-2 -20 17 -20q119 8 172 68.5t53 201.5q0 68 -59.5 146.5t-112.5 113.5q-4 2 -5 1t-3 -11zM598 752q5 -3 42 -29l52 -37l48 -38q36 -28 52 -48l42 -50q26 -32 38.5 -60t22.5 -65t10 -75q0 -65 -23.5 -130.5t-71 -125t-132.5 -96.5t-195 -37 q-16 0 -18 -12l-19 -156q-4 -31 -51 -31q-14 0 -24 9.5t-9 21.5l21 162q0 14 -12 14q-43 7 -101.5 26t-68.5 21t-16 5.5t-7.5 5t-3 7.5t-2.5 7q-17 36 -38.5 132t-24.5 151q0 13 12 22.5t29 9.5q5 0 31.5 -59t79.5 -135t118 -109q16 -5 16 4l68 551q0 16 -25 35 q-126 88 -197 175.5t-71 199.5q0 47 22 100t64 103.5t115 86.5t164 42q19 3 20 12l8 53q5 35 60 35q12 0 20 -11.5t6 -23.5l-8 -53q-2 -12 12 -14q29 -2 162 -29q29 -6 37 -45q29 -162 29 -219q0 -14 -6.5 -32.5t-14.5 -18.5q-10 0 -28.5 15t-24.5 36q-43 160 -168 211 q-4 2 -7 -2t-3 -9l-58 -464q-2 -8 -2 -12.5t1 -7.5t4.5 -5t5.5 -3t7 -4t11 -7zM530 1284q-87 -7 -144.5 -75t-57.5 -150q0 -106 145 -217q6 -5 12.5 -3.5t6.5 7.5l53 422q-1 16 -15 16z" />
<glyph unicode="%" horiz-adv-x="1505" d="M1126.5 657q-57.5 0 -95.5 -96t-36 -199q2 -125 39 -233.5t100.5 -108.5t96.5 100.5t31 217.5q-2 113 -40 216t-95.5 103zM1149 713q121 0 188.5 -104.5t67.5 -246.5q0 -158 -78 -274.5t-215 -116.5q-125 0 -192.5 107.5t-67.5 261.5q0 143 82 258t215 115zM374.5 1235 q-57.5 0 -95 -96.5t-35.5 -198.5q2 -125 38.5 -233.5t100 -108.5t96.5 100.5t31 216.5q-2 113 -40 216.5t-95.5 103.5zM397 1290q121 0 188.5 -104.5t67.5 -245.5q0 -158 -77.5 -274.5t-215.5 -116.5q-125 0 -192.5 107.5t-67.5 261.5q0 143 82 257.5t215 114.5zM279 -23 l843 1330q23 35 80 34q12 0 22.5 -12t4.5 -22l-844 -1330q-18 -31 -74 -30q-14 0 -27 10t-5 20z" />
<glyph unicode="&#x26;" horiz-adv-x="1613" d="M1483 799q-127 -16 -221 -117l-295 -315l-27 -29l35 -49q47 -68 64.5 -90.5t56.5 -62.5t80 -53t96 -13q33 0 76 23.5t61 29.5q20 8 31 -2q27 -27 10 -39l-59 -40q-41 -28 -59.5 -39t-55.5 -22.5t-76 -11.5q-106 0 -166.5 50.5t-148.5 187.5l-27 43l-12 -12 q-12 -12 -53 -58l-55 -60l-50 -48q-34 -32 -56 -44l-56 -30q-34 -18 -69.5 -23.5t-76.5 -5.5q-139 2 -245.5 77t-108.5 198q-6 295 344 456l41 19l-31 33q-2 2 -22.5 24.5t-28.5 33.5l-27 38q-18 26 -27.5 45.5t-16.5 49.5t-7 58q0 100 81 161t191 65q102 4 181.5 -56.5 t79.5 -154.5q0 -96 -52.5 -169t-146.5 -108l-29 -10l19 -20q25 -29 122 -128.5t144 -168.5l24 -37l33 35q188 199 217 292q8 29 -8 54.5t-49 36.5q-16 5 -16 25q0 9 10 9q39 0 99.5 -4t98.5 -4q41 0 116 13.5t85 13.5q31 0 17 -24q-12 -20 -35 -23zM492 684l-43 -16 q-68 -27 -113 -67t-64.5 -90t-25.5 -92t-6 -97q0 -92 69.5 -156t165.5 -64q104 0 182 40t158 126l19 19l-25 39q-31 47 -72 95t-117 127l-104 109zM571 770l27 12q113 51 113 228q0 59 -41 109t-103 50q-57 0 -100 -33.5t-43 -84.5q0 -100 117 -246z" />
<glyph unicode="'" horiz-adv-x="399" d="M133 956q6 160 -6 312q-2 41 39 73q57 43 88 43q39 0 25 -106q-25 -164 -93 -317q-20 -51 -39 -52q-14 0 -14 47z" />
<glyph unicode="(" horiz-adv-x="645" d="M82 551q0 240 115.5 490.5t244.5 379.5q16 16 50 21q27 4 43 -12q18 -16 2 -33q-127 -127 -229.5 -354.5t-102.5 -467.5q0 -250 107.5 -544.5t224.5 -411.5q12 -12 -5 -37q-12 -16 -36 -18q-29 -4 -45 12q-121 121 -245 426t-124 549z" />
<glyph unicode=")" horiz-adv-x="647" d="M545 575q0 -244 -127 -561t-248 -438q-16 -16 -45 -12q-31 2 -45 22q-12 16 4 33q119 119 228.5 400.5t109.5 527.5q0 242 -103.5 484.5t-226.5 365.5q-18 16 -8 26q18 18 53 19q29 0 49 -21q131 -131 245 -369.5t114 -476.5z" />
<glyph unicode="*" horiz-adv-x="696" d="M545 1249q29 25 55 -6q14 -20 -14 -49l-150 -119q96 -45 168 -86q37 -16 23 -49q-12 -27 -49 -14q-37 16 -96.5 39.5t-82.5 31.5q10 -88 13 -190q0 -43 -33 -45q-12 -2 -23.5 10t-13.5 27l-27 188q-55 -39 -161 -102q-29 -25 -56 6q-14 20 15 49l149 119q-96 45 -168 86 q-37 16 -22 49q12 27 49 14q37 -16 96 -39.5t82 -31.5q-10 88 -12 190q0 43 32 45q12 2 23.5 -10t13.5 -27l27 -188q56 39 162 102z" />
<glyph unicode="+" horiz-adv-x="1208" d="M676 569q0 -10 1 -11t7 -1h416q12 0 21 -9t5 -20q-8 -25 -13 -37t-18.5 -24t-31.5 -12h-379q-8 0 -8 -9v-413q0 -27 -35 -38t-63 -11q-10 0 -17.5 9t-7.5 19v432q0 10 -8 11h-414q-10 0 -19.5 7t-9.5 17q0 20 13.5 49t36.5 29h387q14 0 14 16v351q0 29 37 46t57 17 q29 0 29 -26v-392z" />
<glyph unicode="," horiz-adv-x="466" d="M182 59q-45 4 -70.5 28t-25.5 58q0 41 34 68t79 27q74 0 122 -56.5t48 -142.5q0 -141 -99.5 -239.5t-191.5 -102.5q-23 0 -34 9t-5 21.5t27 16.5q80 16 138 70.5t58 152.5q0 27 -24.5 57.5t-55.5 32.5z" />
<glyph unicode="-" horiz-adv-x="561" d="M80 348q-20 -2 -21 12q10 109 33 111q262 37 393 51q16 0 17 -12q-8 -106 -43 -111q-240 -37 -379 -51z" />
<glyph unicode="." horiz-adv-x="471" d="M235.5 197q47.5 0 80 -33t32.5 -80t-32.5 -80t-80 -33t-80 33t-32.5 80t32.5 80t80 33z" />
<glyph unicode="/" horiz-adv-x="817" d="M61 -96l609 1423q16 35 80 35q12 0 21 -11.5t5 -23.5l-608 -1423q-12 -31 -74 -31q-14 0 -25.5 9.5t-7.5 21.5z" />
<glyph unicode="0" horiz-adv-x="1038" d="M530 762q-125 0 -206.5 -97.5t-81.5 -246.5q0 -141 72.5 -253t191.5 -112q133 0 212 89t79 274q0 137 -72 241.5t-195 104.5zM518 846q180 0 309 -126t129 -304q0 -184 -128 -315.5t-310 -131.5t-309 132t-127 317q0 178 128 303t308 125z" />
<glyph unicode="1" horiz-adv-x="591" d="M223 139v543q0 18 -4 32.5t-8 24t-14.5 17.5t-16.5 12t-22 7l-20 4q-5 1 -23.5 4t-20.5 3q-10 0 -13 11.5t1 22.5t12 11q68 0 119 -3t86 -3q33 0 84 3t115 3q18 0 17 -20t-17 -25q-6 -2 -27.5 -5t-31 -6t-25 -10t-22.5 -16.5t-13 -26.5t-6 -40q-6 -264 0 -543 q0 -39 22.5 -58.5t42 -23.5t80.5 -12q16 -2 22.5 -14.5t0.5 -24.5t-23 -12q-63 0 -122.5 5t-96.5 5q-41 0 -104.5 -5t-120.5 -5q-12 0 -18.5 12t-2.5 25.5t21 13.5q31 2 48 5t45 11.5t42 28.5t14 49z" />
<glyph unicode="2" horiz-adv-x="880" d="M92 608q-16 -16 -24 -14q-16 6 -17 29q0 8 11.5 30.5t39 55t64.5 63.5t96.5 52.5t126.5 21.5q94 0 153.5 -75t59.5 -177q0 -100 -84 -203q-41 -49 -134 -138t-114 -103q-14 -9 10 -16q5 -1 9 -1h334q57 0 109 35t81 94q14 25 39 21q16 0 6 -25q-53 -147 -67 -233 q-2 -16 -8.5 -23.5t-10.5 -8.5t-12 -1q-131 8 -367 8q-203 0 -334 -6q-6 0 -9 7t-1 16.5t10 17.5q82 82 125 117q274 225 279 389q2 74 -36 120t-97 46q-150 -1 -238 -99z" />
<glyph unicode="3" horiz-adv-x="761" d="M653 109q0 -289 -336 -455q-86 -43 -141 -43q-18 0 -36.5 9t-18.5 20q0 16 18.5 38.5t36.5 22.5q98 0 137 20q92 49 138.5 114t46.5 200q0 43 -11.5 82t-53.5 75.5t-111 36.5q-55 0 -127 -41q-10 -6 -23.5 1.5t-11.5 17.5q14 41 63 69q78 47 144 105q82 74 82 217 q0 59 -36 97t-96 38q-23 0 -43 -5t-34.5 -9t-34 -17.5t-27.5 -20.5l-30 -25q-22 -18 -29 -25q-20 -16 -25 -15q-27 8 -16 29q37 71 120 136t173 65h4q98 -2 157.5 -59.5t59.5 -153.5q0 -68 -43 -149t-150 -142q-10 -8 2 -12q129 -2 190.5 -70.5t61.5 -150.5z" />
<glyph unicode="4" horiz-adv-x="1007" d="M545 213q8 0 16 5t8 11v346q0 5 -8 6t-12 -3q-138 -143 -311 -347q-4 -4 -5.5 -11t5.5 -7h307zM51 115l90 106l326 357l170 194q11 12 30 37t31 38.5t19 14.5q11 2 9 -17q-1 -5 -1 -7q0 -116 -4.5 -303.5t-3.5 -311.5q0 -12 10 -12q89 -4 203 2q10 0 17 -5t5 -13 q-6 -29 -19 -57.5t-24 -28.5q-152 0 -164 -3q-27 -5 -26 -12v-366q0 -33 -50 -66t-69 -33q-31 0 -31 27v428q0 8 -12.5 13t-17.5 5q-83 0 -222 -6.5t-247 -7.5q-9 0 -16.5 10.5t-2.5 16.5z" />
<glyph unicode="5" horiz-adv-x="768" d="M209 -387q-70 0 -70 25q0 24 68 34q295 49 295 328q0 202 -281 342q-109 54 -102 123q13 138 63 246q22 47 74 67q120 48 299 72q10 1 17.5 -8t7.5 -21q0 -42 -33 -95t-72 -60q-113 -22 -250 -27q-13 0 -20 -14t-17 -47q-10 -35 39 -62q221 -123 312 -209 q49 -47 88 -122.5t39 -149.5q0 -186 -144.5 -304t-312.5 -118z" />
<glyph unicode="6" horiz-adv-x="954" d="M475 -29q-193 0 -291 114t-100 304q-2 309 235 588q86 98 233.5 192.5t321.5 139.5q12 2 22.5 -1t6.5 -10q-12 -23 -53 -41q-268 -117 -414 -323q-182 -262 -182 -545q0 -141 70 -227q33 -41 92 -79t119 -38q82 0 135 43q88 68 88 203q0 96 -56.5 168.5t-136.5 72.5 q-66 0 -110 -12q-33 -8 -54 -18q-18 -8 -22 1t8 21q25 27 55 49q29 23 89.5 45.5t111.5 22.5q106 0 181 -71.5t75 -180.5q0 -174 -110.5 -296t-313.5 -122z" />
<glyph unicode="7" horiz-adv-x="942" d="M705 641q6 8 3 13t-24 8q-240 6 -422 6h-16h-20q-5 0 -19 -1q-15 -1 -21 -3l-18 -6q-12 -4 -20.5 -8.5t-17.5 -11.5t-17 -17q-37 -45 -53.5 -45.5t-2.5 61.5q25 102 25 172q0 23 20 22q2 0 23.5 -2t52.5 -4t53 -2q141 -4 370.5 -1t270.5 12q6 0 11.5 -12.5t3.5 -18.5 q-20 -41 -78 -141l-573 -1002q-31 -55 -39 -55q-23 0 -40.5 15t-17.5 38q0 8 43 84z" />
<glyph unicode="8" horiz-adv-x="925" d="M543 696q111 90 110 271q0 74 -49 132t-119 58q-76 0 -135 -47t-59 -115q0 -43 8 -74.5t35.5 -64.5t43 -48t68 -55t72.5 -57q13 -9 25 0zM586 645q125 -82 182 -149.5t57 -173.5q0 -145 -112.5 -247t-257.5 -102q-133 0 -231.5 85t-98.5 212q0 59 22.5 109.5t67.5 89.5 t77 60.5t83 48.5q12 10 10 13t-16 13q-72 59 -112 100t-75 109t-35 143q0 111 106.5 180.5t242.5 69.5q119 0 210 -71.5t91 -182.5q0 -102 -99 -186q-33 -29 -102 -80q-25 -18 -25.5 -24.5t15.5 -16.5zM403 535q-51 -41 -73.5 -65t-42 -67t-19.5 -102q0 -100 60.5 -176 t154.5 -76q86 0 142.5 55.5t56.5 137.5q0 135 -225 288q-20 14 -27 15.5t-27 -10.5z" />
<glyph unicode="9" horiz-adv-x="954" d="M514 848q150 0 254 -119t104 -299q0 -272 -258 -526q-90 -88 -245.5 -179.5t-255.5 -105.5q-29 -4 -29 10q0 18 29 27q86 27 229 141.5t211 202.5q156 207 156 465q0 129 -76 219t-187 90q-92 0 -144 -70.5t-52 -156.5q0 -96 60.5 -176t140.5 -80q57 0 98 18 q14 6 36.5 18.5t28.5 16.5q8 2 13.5 -7t1.5 -15q-20 -37 -68 -72q-92 -68 -188 -68q-109 0 -186.5 75t-77.5 183q0 152 114.5 280t290.5 128z" />
<glyph unicode=":" horiz-adv-x="507" d="M256 197q47 0 80 -33t33 -80t-33 -80t-80 -33t-80 33t-33 80t33 80t80 33zM256 764q47 0 80 -33t33 -80t-33 -79.5t-80 -32.5t-80 32.5t-33 79.5t33 80t80 33z" />
<glyph unicode=";" horiz-adv-x="466" d="M217 764q47 0 80 -33t33 -80t-33 -79.5t-80 -32.5t-80 32.5t-33 79.5t33 80t80 33zM182 59q-45 4 -70.5 28t-25.5 58q0 41 34 68t79 27q74 0 122 -56.5t48 -142.5q0 -141 -99.5 -239.5t-191.5 -102.5q-23 0 -34 9t-5 21.5t27 16.5q80 16 138 70.5t58 152.5 q0 27 -24.5 57.5t-55.5 32.5z" />
<glyph unicode="&#x3c;" horiz-adv-x="1208" d="M272 469l779 -356q25 -12 37 -44t12 -55q0 -10 -9.5 -19t-19.5 -5l-878 409q-84 39 -84 56q0 18 20.5 50t46.5 44l895 409q10 4 20.5 -7t6.5 -21q-23 -76 -64 -94l-764 -357q-5 -4 2 -10z" />
<glyph unicode="=" horiz-adv-x="1208" d="M152 395h927q12 0 21.5 -9t5.5 -19q-8 -25 -13.5 -37.5t-18.5 -24.5t-32 -12h-911q-10 0 -19.5 7t-9.5 17q0 20 13.5 49t36.5 29zM152 745h927q12 0 21.5 -9t5.5 -19q-8 -25 -13.5 -37t-18.5 -24.5t-32 -12.5h-911q-10 0 -19.5 7t-9.5 18q0 20 13.5 48.5t36.5 28.5z" />
<glyph unicode="&#x3e;" horiz-adv-x="1208" d="M936 479l-778 357q-25 12 -37 43.5t-12 54.5q0 10 9 19.5t19 4.5l879 -409q84 -39 84 -55q0 -18 -20.5 -50t-47.5 -45l-895 -409q-10 -4 -20.5 7t-5.5 21q23 76 63 95l764 356q5 4 -2 10z" />
<glyph unicode="?" horiz-adv-x="727" d="M303 217q51 0 87 -36t36 -87t-36 -87t-87 -36t-87 36t-36 87t36 87t87 36zM221 1354q119 0 221 -103q84 -84 137.5 -198.5t53.5 -196.5q0 -125 -86 -172q-100 -55 -176 -104q-61 -39 -66 -162q0 -47 -31 -47q-10 0 -24 17.5t-21 41.5q-27 102 -32 170q-4 51 45 93 t161 100q49 25 87 64.5t38 80.5q0 104 -53 168.5t-153 67.5q-18 0 -47 -4.5t-50 -4.5q-33 0 -59.5 37t-26.5 78q0 29 27.5 51.5t54.5 22.5z" />
<glyph unicode="@" horiz-adv-x="1875" d="M1079 762q-70 0 -188.5 -117t-207.5 -250t-89 -184q0 -53 16 -53q59 0 189.5 128t236 269t105.5 182q0 8 -21 16.5t-41 8.5zM918 -463q-205 0 -391.5 95.5t-305.5 270.5t-119 384q0 252 120 474t332 357t466 135q305 0 529.5 -173t224.5 -451q0 -176 -111 -310.5 t-278.5 -199t-360.5 -64.5q-31 0 -48.5 31t-12.5 68q4 49 32.5 140t57.5 146q20 40 5 52q-4 3 -9 -3l-143 -161q-58 -64 -136 -139.5t-141.5 -114.5t-110.5 -39q-29 0 -57.5 27.5t-28.5 60.5q0 39 123 214t290 343t257 168q18 0 36 -8l28 -14q10 -5 14 -1l13 25 q13 25 31.5 43t39.5 18q12 0 20 -3t11 -4t8.5 -10t7.5 -11q8 -12 -8 -58l-195 -557q-16 -43 6.5 -89t65.5 -46q209 0 354 140.5t145 342.5q0 250 -197.5 409t-465.5 159q-225 0 -406.5 -130t-277.5 -336t-96 -435q0 -262 204.5 -457t481.5 -195q379 0 591 238q29 31 50 15 q9 -7 4 -19q-8 -23 -54.5 -70t-124 -108.5t-204.5 -105.5t-266 -44z" />
<glyph unicode="A" horiz-adv-x="1400" d="M365 209q-5 -17 -5 -32q0 -34 24 -61q34 -40 95 -55q68 -18 68 -40.5t-60 -22.5q-10 0 -89 2t-128 2q-43 0 -113.5 -6t-101.5 -6q-59 0 -59 26q0 25 67 47q123 37 177 158q197 451 383 963l20 61q2 8 3 22.5t2 25t3 10.5q55 18 74 30q12 8 21 21l13 22q5 8 9 8 q10 0 20 -28l365 -1094q39 -113 86 -152.5t121 -52.5q67 -12 67 -46q0 -21 -59 -21q-23 0 -99.5 6t-123.5 6q-31 1 -70 1t-87 -1q-97 -2 -107 -2q-60 0 -60 23q0 22 68 40q78 20 94 51q9 17 9 44q0 24 -7 57q-35 166 -59 262q-6 23 -58 23h-391q-25 0 -35 -37zM682 1110 l-184 -492q-4 -9 -4 -16q0 -6 5 -9q9 -5 38 -5h317q23 0 27 5q2 2 2 6q0 7 -4 19l-162 490q-8 27 -13 33q-3 3 -5.5 3t-4.5 -3q-4 -6 -12 -31z" />
<glyph unicode="B" horiz-adv-x="1163" d="M406 836q0 -27 4 -41.5t15 -21.5t16 -8t26 -3q13 -1 28 -1q38 0 91 7q73 10 141 51q33 18 62.5 67.5t29.5 127.5q0 111 -61.5 190.5t-216.5 79.5q-78 0 -101.5 -21.5t-25.5 -72.5q-9 -203 -9 -300q0 -33 1 -54zM246 1124q0 72 -30 104t-107 46q-68 12 -68 41q0 23 57 23 h2l117 -2t96 -1q35 0 98.5 5.5t129.5 5.5q231 0 342.5 -71t111.5 -235q0 -127 -69 -196q-61 -57 -138 -88q-8 -4 -8 -10.5t8 -10.5q61 -18 100.5 -36.5t89.5 -56.5t75.5 -99.5t25.5 -145.5q0 -80 -19.5 -139t-57 -98t-64.5 -57.5t-72 -41.5q-137 -69 -322 -69h-5 q-10 0 -88 5q-56 4 -99 4q-18 0 -33 -1q-39 0 -109.5 -5t-131.5 -5q-59 0 -60 22q0 25 68 37q82 14 121 49t39 105v921zM887 387q0 180 -152 264q-92 51 -213 51q-59 0 -94 -22q-18 -12 -22 -51q-2 -48 -2 -117q0 -115 6 -291q4 -76 34 -106q39 -39 123 -39q123 0 221.5 91 t98.5 220z" />
<glyph unicode="C" horiz-adv-x="1310" d="M1200 281q6 10 15.5 17t21.5 13t14 8q10 7 15 -14q3 -13 3 -25q0 -7 -1 -14q-23 -145 -68 -213q-4 -8 -17.5 -13t-39 -13.5t-43.5 -16.5q-88 -41 -344 -41q-276 0 -469 205t-193 488q0 293 221.5 494.5t524.5 201.5q143 0 216.5 -24.5t155.5 -37.5q23 -4 27 -61 q14 -111 16 -223q2 -16 -3 -32.5t-19 -14.5q-41 4 -53 75q-12 94 -72 150q-104 104 -301 104q-219 0 -363.5 -175t-144.5 -408q0 -170 61.5 -324t183.5 -254t275 -100q254 0 381 248z" />
<glyph unicode="D" horiz-adv-x="1544" d="M340 0q-41 0 -102.5 -5t-118.5 -5q-59 0 -60 22q0 25 68 37q78 14 107.5 47t29.5 107v921q0 72 -29.5 104t-107.5 46q-68 12 -68 41q0 23 57 23h2q60 -1 117.5 -3t96.5 -2h18q51 0 174 7q150 10 172 10q397 0 571.5 -173t174.5 -491q0 -289 -195.5 -494.5t-486.5 -205.5 q-8 0 -166 7t-254 7zM1247 709q0 246 -151.5 411.5t-388.5 165.5q-66 0 -99 -1t-73.5 -7t-59 -19.5t-32 -37t-13.5 -60.5v-913q0 -57 17.5 -87t54.5 -59q31 -23 65.5 -33t56.5 -11h19q21 0 55 1q50 2 72 2q150 0 261.5 98.5t163.5 243t52 306.5z" />
<glyph unicode="E" horiz-adv-x="1107" d="M442 766q0 -45 21 -45h213q57 0 90 31q23 20 35 49q4 8 17 21.5t20 13.5q8 0 18 -10.5t8 -22.5q-4 -48 -4 -111t4 -141q0 -35 -18 -35q-33 0 -47 47q-23 72 -97 80q-73 10 -130 10q-45 0 -80 -6q-51 -10 -50 -51q0 -51 7 -365q2 -80 31.5 -119.5t97.5 -39.5h213 q16 0 77.5 12t77.5 25q39 31 86 129q10 23 29 20q12 0 21 -7q6 -5 6 -13q0 -2 -1 -5q-12 -119 -34 -208q-8 -35 -29 -35q-137 0 -355 6t-315 6q-43 0 -110.5 -6t-124.5 -6q-59 0 -60 22q0 25 68 37q80 14 116 48t36 106v921q0 72 -30 104t-108 46q-67 12 -67 40q0 23 54 23 h5q47 0 211 -4q70 -2 163.5 -2t208.5 2q232 4 242 4q35 0 37 -18q23 -119 25 -211q0 -18 -29 -18q-16 0 -22 20q-25 74 -47 100q-49 55 -138 56h-268q-18 0 -40.5 -19.5t-24.5 -42.5q-9 -65 -9 -438z" />
<glyph unicode="F" horiz-adv-x="1030" d="M481 1251q-31 0 -46 -16t-18 -34.5t-5 -51.5q-4 -97 -4 -192.5t4 -190.5q0 -45 20 -45q47 0 132 3t106 3q57 0 90 31q23 20 35 49q4 8 16 21.5t20.5 13.5t18.5 -10.5t8 -22.5q-4 -48 -4 -111t4 -141q0 -35 -18 -35q-33 0 -47 47q-25 78 -97 80q-56 2 -105 2 q-74 0 -130 -4q-49 -2 -49 -51q0 -254 6 -389q4 -70 32.5 -108t102.5 -50q68 -12 68 -37q0 -23 -57 -23q-1 0 -2 1q-60 0 -113.5 7t-88.5 7q-49 0 -124.5 -7t-133.5 -7q-59 0 -59 22q0 25 68 37q78 14 107.5 48t29.5 108v864q0 98 -25.5 145.5t-99.5 59.5q-68 12 -68 41 q0 22 55 22h5q39 0 202 -4q70 -2 162.5 -2t207.5 2q231 4 241 4q35 0 37 -18q6 -29 10 -205q0 -43 -19 -43q-25 0 -30 25q-25 74 -47 100q-49 55 -138 55h-260z" />
<glyph unicode="G" horiz-adv-x="1492" d="M1272 1278q22 -151 22 -223v-6q0 -16 -9 -28.5t-21 -12.5q-29 0 -47 55q-23 61 -64 108q-29 37 -114 73t-212 36q-227 0 -379.5 -164t-152.5 -407q0 -264 145 -464q145 -198 376 -198h5q162 2 273 76q49 33 49 158q0 16 2 64q1 32 1 56v21q-1 29 -9 39q-23 31 -90.5 47 t-110.5 16q-10 0 -25.5 10.5t-15.5 24.5t15.5 24.5t25.5 10.5q49 0 125 -4t133 -4q35 0 90 4t92 4q43 0 43 -33q0 -12 -16.5 -23.5t-26.5 -13.5q-43 -12 -61.5 -34.5t-24.5 -65.5q-10 -63 -10 -172v-37q0 -12 12 -33q4 -6 15.5 -17t11.5 -18q0 -23 -29 -36 q-123 -63 -219 -93q-160 -47 -254 -47q-297 0 -511 205t-214 498q0 291 224.5 487.5t529.5 196.5q86 0 255 -30t171 -50z" />
<glyph unicode="H" horiz-adv-x="1685" d="M1413 205q2 -82 21.5 -113t91.5 -43q67 -12 67 -36t-57 -24q-1 0 -2 1q-59 0 -116.5 5t-96.5 5t-99.5 -5t-120 -5t-59.5 22q0 25 68 37q139 27 139 150v405q0 14 -10 14q-239 4 -434 4t-348 -4q-10 0 -11 -22q0 -55 1.5 -175t1.5 -204q0 -63 44 -109.5t115 -58.5 q68 -12 68 -37q0 -22 -55 -22h-5q-57 0 -125.5 5t-113.5 5q-41 0 -104.5 -5t-120.5 -5q-59 0 -60 22q0 25 68 37q74 14 98.5 46t24.5 108v925q0 76 -18.5 105t-90.5 41q-68 12 -68 41q0 23 57 23h3q59 -1 116.5 -4t94.5 -3q39 0 98.5 3t118.5 3t59 -22q0 -29 -67 -41 q-139 -25 -140 -146v-393q0 -18 29 -18q219 -5 409 -5t351 5q14 0 14 24q0 59 -1 183.5t-1 205.5q0 119 -133 144q-67 12 -67 40q0 23 54 23h5q57 0 124.5 -3t112.5 -3q31 0 79 3t107.5 3t59.5 -22q0 -29 -67 -41q-70 -12 -89.5 -44t-19.5 -100v-925z" />
<glyph unicode="I" horiz-adv-x="784" d="M309 1126q0 72 -29.5 103t-107.5 45q-68 12 -68 41q0 22 55 22h5q57 0 125.5 -3t113.5 -3q41 0 103.5 3t120.5 3q59 0 59 -22q0 -29 -68 -41q-80 -14 -112.5 -46t-32.5 -102v-925q0 -70 40 -104t122 -48q67 -12 67 -36q0 -23 -54 -23h-5q-57 0 -125.5 5t-114.5 5 q-51 0 -128.5 -5t-133.5 -5q-59 0 -59 22q0 25 68 37q82 14 120.5 48t38.5 104v925z" />
<glyph unicode="J" horiz-adv-x="579" d="M272 0v1128v9q0 63 -28 92q-29 31 -107 45q-67 12 -67 40q0 23 54 23h5q57 0 126 -3t114 -3q33 0 83 3t109.5 3t59.5 -22q0 -29 -68 -41q-74 -12 -94.5 -42t-22.5 -104v-837q0 -154 -7 -254t-27.5 -162.5t-32 -83t-41.5 -65.5q-92 -131 -234 -136h-14q-93 0 -152 24 q-63 26 -63 62q0 41 23.5 77t50.5 36q68 0 102 -53q40 -60 100 -60h2q129 7 129 324z" />
<glyph unicode="K" horiz-adv-x="1394" d="M899 1270q-63 16 -63 41q0 22 54 22h5h152q240 4 276 8q10 1 19 1q40 0 40 -24q0 -28 -67 -40q-193 -35 -311 -135q-193 -164 -394 -383q-12 -14 11 -37l495 -528q72 -80 106.5 -103.5t118.5 -42.5q68 -14 68 -36.5t-59.5 -22.5t-134 5t-115.5 5t-94.5 -1t-106.5 -1 q-59 0 -59 22.5t55 35t56 38t-29 53.5l-435 480q-33 35 -47 35q-8 0 -8 -44q0 -121 10 -393q6 -154 131 -176q68 -12 68 -37q0 -23 -57 -23q-1 0 -2 1q-60 0 -113 7t-88 7q-49 0 -125 -7t-133 -7q-59 0 -60 22q0 25 68 37q78 14 107.5 48t29.5 110v921q0 70 -29.5 101 t-107.5 45q-68 12 -68 41q0 22 55 22h5q57 0 121.5 -2t107.5 -2q35 0 87.5 2t111.5 2t59 -22q0 -29 -67 -41q-72 -12 -91.5 -45t-19.5 -101v-383q0 -39 10 -38q18 0 56 36l409 418q30 32 30 62v5q-3 32 -38 42z" />
<glyph unicode="L" horiz-adv-x="1179" d="M434 1161v-964q0 -68 31 -96.5t127 -28.5h299q12 0 51 16t64 37q66 57 106 145q23 61 45 62q14 0 21 -18q4 -10 4 -19q0 -5 -2 -10q-47 -176 -56 -260q-4 -35 -28 -35q-145 0 -377 5t-326 5l-276 -10q-57 0 -58 24q0 23 45 35q84 16 125 49t41 99v950q0 72 -22.5 92.5 t-102.5 34.5q-67 12 -67 40q0 23 54 23h5q57 0 122 -3t108 -3q49 0 124.5 3t133.5 3q59 0 59 -22q0 -29 -68 -41q-49 -8 -73.5 -14.5t-54 -18.5t-42 -31.5t-12.5 -48.5z" />
<glyph unicode="M" horiz-adv-x="1845" d="M1505 1163q0 -170 7.5 -329.5t20.5 -357t17 -281.5q2 -63 39 -97.5t115 -48.5q68 -12 68 -37q0 -22 -55 -22h-5q-57 0 -125.5 5t-113.5 5q-39 0 -97.5 -5t-118 -5t-59.5 22q0 29 68 37q59 8 81.5 41t22.5 107q0 201 -24 753q-1 32 -9.5 32t-23.5 -32l-455 -921 q-10 -23 -18.5 -34t-13.5 -15q-2 -1 -3 -1q-4 0 -8 5q-6 8 -10 18t-10 31q-115 344 -367 932q-20 47 -27 0q-49 -360 -65 -752v-6q0 -46 30 -95q33 -51 103 -63q68 -12 68 -37q0 -23 -57 -23q-1 0 -2 1q-60 0 -110.5 5t-83 5t-79.5 -5t-106.5 -5t-59.5 22q0 25 67 37 q104 18 127 160q84 631 84 893v8q0 28 -1 40.5t-8 29t-23 34.5q-12 14 -27.5 24.5t-37 18t-36 11.5t-39 9t-30.5 7q-29 10 -29 35q0 23 47 22q41 0 178.5 -8t161.5 -8q16 0 29.5 -34t26 -87t18.5 -69l323 -822q12 -30 25 -30q11 0 23 24l403 840q12 27 20.5 74t16.5 76.5 t20 29.5h74q49 0 131 8t96 8q49 0 50 -20q0 -29 -54 -47q-53 -16 -78.5 -24.5t-58.5 -33t-33 -55.5z" />
<glyph unicode="N" horiz-adv-x="1617" d="M1380 1163q-4 -98 -4 -1147q0 -51 -43 -51q-23 0 -72.5 34.5t-93.5 94.5q-60 82 -729 897q-19 24 -32 31.5t-18.5 -2t-7.5 -17t-3 -22.5q-29 -311 -29 -772q0 -135 131 -160q68 -12 68 -37q0 -23 -57 -23q-1 0 -2 1q-60 0 -110 5t-83 5q-31 0 -79 -5t-107.5 -5t-59.5 22 q0 25 68 37q49 10 81.5 70.5t37.5 99.5q10 88 59 813q1 11 1 21q0 81 -42 127q-51 53 -166 90q-63 20 -63 49t47 29q63 -2 148 -6.5t167 -4.5q25 0 49 -34q27 -37 384 -487l397 -497q33 -40 51 -40t20 43q4 63 5 412v202q0 171 -1 219q-2 37 -42 72t-76 41q-68 12 -68 41 q0 22 54 22h5h164q27 0 76 3t113 3q59 0 59 -22q0 -29 -68 -41q-76 -14 -101.5 -37t-27.5 -74z" />
<glyph unicode="O" horiz-adv-x="1562" d="M768 1280q-217 0 -347 -168t-130 -395q0 -270 148.5 -468t369.5 -198q225 0 344 152.5t119 421.5q0 299 -131 477t-373 178zM92 655q0 291 183.5 494t506.5 211h17q270 0 467 -184q204 -191 204 -490q0 -139 -45 -267t-130 -228.5t-218 -160t-295 -59.5 q-276 0 -483 198.5t-207 485.5z" />
<glyph unicode="P" horiz-adv-x="1140" d="M385 4q-51 0 -131 -7t-135 -7q-59 0 -60 22q0 25 68 37q80 14 114.5 48t34.5 108v864q0 98 -25.5 145.5t-98.5 59.5q-68 12 -68 41q0 23 57 23h3q59 -1 110 -2t90 -1q45 0 123 5.5t104 5.5q238 0 388.5 -102.5t150.5 -301.5q0 -74 -44 -172t-108 -147q-82 -61 -192 -86 q-70 -16 -129 -16q-33 0 -62 5q-37 7 -37 25.5t24 21.5q5 1 9 0q26 -4 50 -4q100 0 180 60q125 96 129 336v6q0 153 -110 235q-111 84 -249 84q-131 0 -131 -86v-977q0 -154 138 -178q67 -12 67 -36t-57 -24q-1 0 -2 1q-60 0 -113 7t-88 7z" />
<glyph unicode="Q" horiz-adv-x="1650" d="M784 1282q-219 0 -360 -169q-139 -167 -139 -386v-6q2 -272 175 -484t421 -212q147 0 260.5 101t168 244.5t54.5 293.5q0 244 -168 431t-412 187zM764 -111q-31 25 -120 75t-114 56q-61 16 -133.5 65.5t-142.5 125.5t-116 186.5t-46 231.5q0 307 208 517t523 210 q184 0 349 -71t276 -220.5t111 -347.5q0 -139 -38 -255t-87.5 -186.5t-126 -132t-125.5 -87t-119 -56.5q-40 -18 -40 -38q0 -9 9 -19q84 -90 246 -207q102 -74 170 -100.5t176 -28.5q16 -1 31 -1q65 0 102 15q26 11 41 11q20 0 21 -19q0 -31 -37 -53q-117 -68 -240 -68 q-242 0 -455 154q-147 104 -323 243z" />
<glyph unicode="R" horiz-adv-x="1421" d="M440 750v-7q0 -41 20 -53q23 -14 79 -16h6q129 0 217 80q92 88 92 247q0 51 -11.5 95.5t-39 89.5t-84.5 71.5t-139 26.5q-78 0 -103.5 -28.5t-27.5 -81.5q-5 -98 -9 -424zM1315 -43q-193 0 -283 111l-55 66l-61 74q-15 19 -51 68.5t-69 100.5l-75 117q-31 51 -88 79 q-74 35 -162 45q-16 2 -23.5 -9t-7.5 -31v-353q0 -152 138 -176q67 -12 67 -36t-57 -24q-1 0 -2 1q-60 0 -113 7t-88 7q-51 0 -131 -7t-135 -7q-59 0 -60 22q0 25 68 37q80 14 114.5 48t34.5 108v864q0 98 -25.5 145.5t-98.5 59.5q-68 12 -68 41q0 23 57 23h3q59 -1 110 -2 t90 -1q33 0 102.5 5.5t133.5 5.5q223 0 340.5 -88.5t117.5 -256.5q0 -61 -30.5 -128.5t-59.5 -96.5q-98 -92 -149 -119q-10 -4 0 -18q6 -10 35 -55l38 -58l36 -51l36 -53l36 -49q26 -35 41 -53l41 -48q25 -30 46 -52l50 -48l56 -53q51 -45 100.5 -56.5t135.5 -11.5 q31 0 31 -22q0 -39 -54.5 -55.5t-111.5 -16.5z" />
<glyph unicode="S" horiz-adv-x="952" d="M457 35q111 0 173 74.5t62 187.5q0 93 -75.5 174.5t-221.5 179.5q-124 83 -192 168.5t-68 198.5q0 138 116.5 240t295.5 102q58 0 113.5 -10.5t90 -20.5t40.5 -10q13 0 22 -14.5t12 -32.5q16 -98 19 -168q2 -55 -15 -55q-29 0 -48 16t-23 41q-14 88 -78 137t-152 49 q-98 0 -166.5 -60.5t-68.5 -160.5q0 -59 51 -125.5t99.5 -102.5t121.5 -83q61 -39 99 -68.5t91.5 -82t81 -117t27.5 -138.5q0 -66 -24.5 -130t-72.5 -123.5t-134 -96.5t-195 -37q-170 0 -274 49q-35 16 -43 35q-33 68 -37 234q-2 14 13.5 38.5t31.5 22.5q18 -2 59 -135 q29 -88 101 -132t168 -44z" />
<glyph unicode="T" horiz-adv-x="1372" d="M770 209q0 -131 162 -160q67 -12 67 -36q0 -23 -54 -23h-5q-57 0 -126 5t-114 5q-49 0 -126.5 -5t-135.5 -5q-59 0 -59 22q0 25 67 37q80 14 120 51t40 109v932q0 82 -37 88q-43 8 -247 8q-53 0 -100.5 -20.5t-67.5 -59.5q-12 -25 -38 -51.5t-46 -26.5q-15 0 -15 26 q0 22 11 42q45 94 63 227q6 47 35 47q16 0 51 -65q23 -41 143 -41h781q78 0 118 28q14 10 36 31t37.5 32t29.5 11q8 0 12 -25q2 -13 2 -23t-2 -17q-33 -139 -33 -208v-14q2 -20 -8 -45.5t-24 -25.5q-23 0 -39 84q-18 94 -189 94q-203 0 -276 -8q-33 -4 -33 -88v-932z" />
<glyph unicode="U" horiz-adv-x="1511" d="M1321 1120q-2 -33 -21 -600q-8 -240 -154.5 -394.5t-367.5 -154.5q-283 0 -425 187.5t-142 500.5v461q0 123 -94 150q-68 18 -68 45q0 22 55 22h5q29 0 93 -3t103 -3q35 0 90.5 2t73.5 2q59 0 59 -22q0 -18 -67 -41q-29 -8 -57.5 -50t-28.5 -98v-522q0 -211 127 -369.5 t323 -158.5q190 0 288.5 146.5t98.5 393.5q0 117 -8 433q-4 201 -84 223q-68 18 -68 40q0 23 60 23q31 0 78 -1t76 -1q35 0 90 3t76 3q59 0 59 -22q0 -27 -68 -41q-96 -19 -102 -154z" />
<glyph unicode="V" horiz-adv-x="1376" d="M1108 1065l-389 -942q-6 -14 -15 -39l-17 -42l-15 -36q-8 -18 -14.5 -27.5t-10.5 -9.5q-6 0 -61 146l-357 954q-63 172 -161 201q-68 20 -68 45q0 22 54 22h5q29 0 110 -3t130 -3t127 2t92 2q60 0 60 -23q0 -22 -68 -40q-61 -14 -90 -80q-14 -32 -14 -70q0 -41 16 -90 l237 -629q16 -41 26.5 -52t21 1.5t26.5 50.5l268 664q9 21 9 44q0 38 -24 79q-38 65 -85 80q-68 18 -68 40q0 23 60 23q20 0 103 -1t137 -1q41 0 107.5 3t88.5 3q59 0 60 -22q0 -27 -68 -41q-70 -16 -128 -79.5t-85 -129.5z" />
<glyph unicode="W" horiz-adv-x="1875" d="M932 1210q33 -96 92 -231q6 -14 10 -20.5t8.5 -6.5t8.5 6.5t10 20.5q41 92 82 231q6 23 -4.5 38.5t-26.5 22.5t-29.5 18t-13.5 24q0 22 54 22h5q33 0 63 -2t50.5 -2t55 3t59.5 3q59 0 59 -22q0 -27 -67 -41q-61 -14 -86 -32.5t-54 -65.5q-41 -72 -108 -252 q-15 -41 -15 -64q0 -8 2 -14l211 -543q8 -20 23 12q78 207 250 793q13 43 13 75q0 70 -62 87q-68 18 -68 40.5t59 22.5q25 0 80.5 -1t92.5 -1q31 0 84 3t75 3q59 0 60 -22q0 -27 -68 -41q-109 -25 -168 -180l-330 -975q-51 -143 -65 -144q-18 0 -35 39q-63 143 -147 362.5 t-105 270.5q-9 19 -17 0l-5 -12q-115 -268 -234 -604q-23 -63 -45 -64q-6 0 -29 58l-442 1110q-51 106 -147 135q-68 20 -68 45q0 22 54 22h5q31 0 85.5 -3t86.5 -3q45 0 116 2t85 2q60 0 60 -23q0 -22 -68 -40q-43 -11 -43 -66q0 -33 15 -81l3 -9q158 -403 336 -805 q18 -39 31 -2l160 396q12 37 11 52t-15 54l-117 291q-25 61 -80 106t-115 62q-67 20 -67 44q0 23 54 23h5q31 0 89.5 -3t94.5 -3q35 0 91.5 2t74.5 2q59 0 60 -22q0 -14 -24.5 -27.5t-45 -31t-10.5 -44.5z" />
<glyph unicode="X" horiz-adv-x="1447" d="M1364 53q68 -18 68 -40.5t-60 -22.5q-23 0 -101.5 5t-125.5 7q-31 1 -72.5 1t-92.5 -1q-103 -2 -112 -2q-59 0 -59 22.5t68 40.5q33 10 56 30t33 55q2 7 2 15q0 29 -26 64l-213 310q-25 35 -45 10l-276 -357q-18 -26 -18 -49q0 -16 10 -31q22 -34 81 -49q68 -18 68 -40.5 t-60 -22.5q-8 0 -87 3q-48 2 -86 2q-25 0 -46 -1q-43 0 -116.5 -6t-104.5 -6q-59 0 -59 22q0 25 67 45q63 18 149.5 71.5t143.5 125.5l256 319q37 53 37 79q0 8 -4 14l-297 417q-51 70 -117.5 122t-120.5 69q-67 20 -67 44q0 23 54 23h5q31 0 117 -5t135 -5q22 -1 50 -1 q42 0 96 2q92 3 98 3q59 0 59 -22.5t-67 -40.5q-53 -12 -62 -79q-3 -14 -3 -28q0 -49 28 -84l186 -262q20 -31 30.5 -32t31.5 26l219 289q22 27 22 64q0 15 -4 33q-14 58 -57 71q-68 18 -68 40.5t60 22.5q16 0 91 -2q38 -1 68.5 -1t55.5 1q37 2 99 7t85 5q59 0 59 -22.5 t-67 -40.5q-86 -23 -266 -236l-236 -278q-34 -38 -34 -64q0 -10 5 -18l318 -457q96 -141 219 -174z" />
<glyph unicode="Y" horiz-adv-x="1183" d="M541 221v303q0 23 -4.5 44.5t-11.5 40t-13 29.5t-14.5 23.5t-8.5 14.5l-239 393q-113 180 -182 201q-68 20 -68 45q0 22 54 22h5q27 0 108 -3t132 -3q35 0 90 2t74 2q59 0 59 -22q0 -18 -67 -41q-20 -6 -34.5 -18.5t-22.5 -39.5q-3 -7 -3 -14q0 -23 21 -53l188 -338 q12 -20 17.5 -28.5t12.5 -22t11 -15.5t9 -9t10.5 -2t8.5 4t10 10.5t11 15.5t16.5 20.5t18.5 26.5q119 166 172 285q16 34 16 68q0 20 -5 40q-15 55 -58 68q-68 18 -68 40.5t60 22.5q31 0 78 -1t75 -1q41 0 109 3t88 3q59 0 59 -22q0 -27 -67 -41q-82 -16 -205 -197 q-109 -166 -227 -368q-37 -63 -44 -92t-7 -93v-303q0 -70 41.5 -114t119.5 -58q68 -12 68 -37q0 -22 -55 -22h-5q-57 0 -125.5 5t-113.5 5q-49 0 -127 -5t-135 -5q-59 0 -60 22q0 25 68 37q160 29 160 172z" />
<glyph unicode="Z" horiz-adv-x="1234" d="M887 84q172 14 254 207q16 43 45 43q18 0 18 -27q0 -18 -29.5 -133t-46.5 -149q-18 -35 -36 -35q-106 0 -419 4q-157 2 -245.5 2t-110.5 -2h-245q-6 0 -9.5 7t-4.5 14l-1 8q0 31 119 190q481 657 701 991q23 31 -31 33q-171 5 -298 5t-210 -5q-57 -4 -110.5 -38 t-77.5 -103q-27 -66 -58 -66q-18 0 -18 22q0 20 14 56q47 141 55 227q2 35 31 35q14 0 51 -29q23 -16 150 -16q151 -2 297 -2q244 0 473 6q10 0 19.5 -14.5t2.5 -22.5l-125 -166q-442 -596 -692 -983q-10 -14 -5 -35.5t22 -23.5q99 -13 229 -12.5t291 12.5z" />
<glyph unicode="[" horiz-adv-x="763" d="M307 1438l338 -2q14 0 26.5 -9.5t10.5 -21.5q-8 -20 -53 -25q-23 -2 -238 -2q-23 0 -36 -17.5t-13 -41.5q-12 -305 -12 -782q0 -702 2 -779q2 -68 13 -84t46 -16q121 0 238 -10q53 -4 53 -37q0 -27 -53 -27l-336 6q-39 0 -51.5 11.5t-10.5 50.5l9 1458q0 35 -5.5 97.5 t-3.5 103.5q0 12 -1 29.5t-2 28.5t2 25.5t12 26.5q4 6 9 10.5t12 5.5t13 1h16h15z" />
<glyph unicode="\" horiz-adv-x="817" d="M774 -96q4 -12 -7 -21.5t-26 -9.5q-61 0 -73 31l-609 1423q-4 12 5.5 23.5t21.5 11.5q63 0 80 -35z" />
<glyph unicode="]" horiz-adv-x="757" d="M457 1438h12h13h12q6 0 11 -2t9 -5.5t8 -9.5q8 -12 11.5 -26.5t2.5 -25.5l-2 -29q-2 -18 -2 -29q0 -39 -4 -100.5t-4 -100.5l8 -1458q0 -39 -11 -50.5t-50 -11.5l-336 -6q-53 0 -53 27q0 33 53 37q119 10 238 10q35 0 46 16.5t13 83.5q2 100 2 779q0 416 -12 782 q-4 59 -49 59q-215 0 -238 2q-47 4 -53 25q-4 12 8 21.5t29 9.5z" />
<glyph unicode="^" horiz-adv-x="1024" d="M512 1235q301 -428 408 -610q10 -16 4 -31.5t-21 -11.5q-55 14 -76 36q-25 28 -71 92l-84 118l-90 134q-54 78 -62 91q-12 14 -20 0q-274 -401 -303 -435q-25 -25 -76 -36q-14 -4 -20.5 11t3.5 32q51 88 201 309z" />
<glyph unicode="_" horiz-adv-x="1024" d="M49 -270h948q12 0 21.5 -9.5t5.5 -19.5q-9 -25 -14 -36.5t-18.5 -24.5t-30.5 -13h-932q-10 0 -19.5 7.5t-9.5 17.5q0 20 13 49t36 29z" />
<glyph unicode="`" horiz-adv-x="571" d="M365 965q-69 96 -143 175l-106 113q-34 34 -34 50q0 21 21.5 39t48.5 18q70 1 104 -55q45 -74 117.5 -206t72.5 -153q0 -27 -26 -26q-22 0 -55 45z" />
<glyph unicode="a" horiz-adv-x="1136" d="M553 690q-43 -106 -145 -330q-6 -12 0 -16t26 -4h240q16 0 18 2t-2 18q-12 45 -112 330q-6 16 -9.5 20.5t-6.5 0t-9 -20.5zM76 -6q-11 0 -11 20q0 26 11 29q73 24 117 59q37 30 63 86q92 195 238 549q8 27 14 54q2 10 4 26.5t4 27.5l2 11q12 2 47 26.5t45 37.5 q25 29 29 28q8 0 14 -18l256 -711q23 -66 72 -117q45 -49 92 -59q12 -4 15 -27v-5q0 -17 -15 -17q-39 0 -98.5 5t-97.5 5q-43 0 -112 -5t-101 -5q-8 0 -10.5 12t1.5 24.5t11 12.5q53 10 82 55q9 17 9 42q0 18 -5 42q-4 23 -29 88q-4 14 -39 15h-291q-14 0 -24 -25 q-31 -82 -33 -88q-5 -21 -5 -37q0 -20 7 -31q31 -49 86 -61q14 -2 14 -25.5t-14 -23.5q-41 0 -102.5 5t-100.5 5q-29 0 -73.5 -5t-71.5 -5z" />
<glyph unicode="b" horiz-adv-x="903" d="M317 575q2 -33 11.5 -41t31.5 -10q13 -1 27 -1q77 0 145 40q59 35 60 133q0 76 -36 121t-144 45q-55 0 -75 -14t-22 -49q-1 -36 -1 -73q0 -74 3 -151zM410 -6q-10 0 -82 6t-107 6q-33 0 -103.5 -5t-86.5 -5q-11 0 -11 26q0 21 11 23q63 6 92 31q41 37 41 86v559 q0 76 -19 96q-37 41 -88 53q-6 2 -10 14.5t-3 25t11 12.5q29 0 83.5 -2t88.5 -2q25 0 82.5 5t102.5 5q331 0 331 -212q0 -99 -45 -145q-29 -27 -116 -61q-4 -2 -5.5 -7t5.5 -7q45 -14 69.5 -24.5t61.5 -35t54 -66.5t17 -100q0 -162 -143 -241q-55 -35 -231 -35zM614 264 q0 123 -69 164q-59 35 -148 35q-43 0 -63 -17q-16 -10 -17 -34q-2 -45 -2 -107t2 -141q4 -53 25 -74q25 -29 88 -29q82 0 133 55.5t51 147.5z" />
<glyph unicode="c" horiz-adv-x="878" d="M539 938q94 0 147 -16q12 -4 58.5 -13.5t58.5 -13.5q10 -2 18 -43q8 -88 10 -156q0 -10 -9 -22t-17 -10q-41 4 -45 45q-8 70 -51 112q-23 23 -81.5 38t-121.5 15q-145 0 -228 -116.5t-83 -268.5q0 -174 92 -307t248 -139h6q77 0 166 53q55 31 77 107q2 10 26 18t36 8 q15 0 15 -24q0 -5 -1 -12q-4 -25 -27.5 -80.5t-39.5 -81.5q-10 -20 -111.5 -40t-192.5 -20q-188 0 -326 143.5t-138 340.5q0 205 152.5 344t361.5 139z" />
<glyph unicode="d" horiz-adv-x="1062" d="M371 88q27 -20 176 -20q129 0 223 98q92 100 92 330q0 131 -99 248.5t-259 119.5q-180 0 -180 -80v-598q0 -61 47 -98zM539 -6q-6 0 -111.5 6t-171.5 6q-49 0 -126 -3t-87 -3q-8 0 -8 23.5t8 25.5q55 14 88 49q37 39 39 84v535q0 82 -18 102q-20 23 -31.5 30t-50.5 17 q-6 2 -10.5 14.5t-3.5 25t12 12.5q29 0 82 -2.5t86 -2.5q27 0 136 7.5t126 7.5q260 0 400 -128q138 -126 138 -314v-5q-2 -182 -110 -319q-55 -70 -159.5 -119t-227.5 -49z" />
<glyph unicode="e" horiz-adv-x="862" d="M526 442q-53 8 -100 8q-40 0 -76 -6q-35 -6 -35 -34q0 -66 4 -226q4 -104 89 -104h180q10 0 48 8t50 16q37 31 66 95q8 14 30 14q18 0 19 -16q-8 -82 -35 -177q-4 -25 -18 -24q-104 0 -269.5 5t-228.5 5l-219 -12q-4 0 -7 12q-3 7 -3 14q0 5 1 10q3 13 9 13q63 18 92 43 q39 35 39 76v569q0 84 -19 103q-6 6 -10 11t-9 8t-8 5t-11.5 5t-12.5 4t-16.5 5.5t-20.5 6.5q-10 2 -11 22.5t11 20.5q29 0 81 -2t85 -2q78 0 193.5 2t193.5 3t94 1q23 0 25 -13q23 -117 23 -188q0 -12 -23 -12q-10 0 -16 14q-18 55 -41 78q-31 37 -86 37h-217 q-12 0 -22.5 -11.5t-12.5 -25.5q-10 -57 -13 -109q-4 -135 -4 -145q0 -31 15 -31h178q39 0 61 21q18 18 25 36q18 27 29 27q6 0 13 -7t5 -15q-3 -41 -3 -93t3 -114q4 -25 -12 -25q-18 0 -37 39q-13 45 -66 55z" />
<glyph unicode="f" horiz-adv-x="776" d="M459 -6q-31 0 -73 5t-120 5l-209 -12q-4 0 -7 16q-2 9 -2 18q0 7 1 13q2 16 8 16q57 14 86 45q27 23 27 82v535q0 86 -18 106l-10 11l-10 8t-8 5l-12 4q-8 3 -12 4t-16 5t-21 6q-10 4 -12 30t12 26q31 0 70 -2t66 -2q84 0 198.5 2t197.5 4t95 2q25 0 27 -15q2 -8 8 -176 q0 -12 -23 -12q-20 0 -22 14q-16 51 -33 70q-37 39 -96 39h-180q-10 0 -21.5 -12.5t-13.5 -24.5q-6 -37 -8 -92q-4 -139 -4 -178q0 -33 14 -33q33 0 92 2t72 2q39 0 63 22q14 12 23 33q2 6 16 15.5t20.5 9.5t12.5 -7.5t6 -15.5q-4 -33 -4 -81.5t4 -112.5q0 -25 -12 -25 q-14 0 -27.5 12.5t-15.5 20.5q-16 51 -68 55q-36 3 -71 3q-47 0 -93 -5q-33 0 -32 -35q0 -57 4 -217q0 -16 2 -27.5t7 -20.5t7 -12t11.5 -13.5t11.5 -12.5q23 -27 92 -41q6 -2 8 -31.5t-8 -29.5z" />
<glyph unicode="g" horiz-adv-x="1038" d="M557 49q102 0 180 45q43 29 43 115q0 12 2 42t1 46t-7 25q-18 20 -62 31.5t-75 11.5q-18 0 -29 53q0 16 6 16q43 0 109 -3t104 -3q33 0 84.5 2t75.5 2q18 0 19 -12q0 -49 -15 -55q-76 -23 -80 -68q-6 -66 -6 -145q0 -8 8 -23q2 -4 10.5 -11t8.5 -12q0 -16 -21 -26 q-98 -53 -161 -72q-113 -33 -197 -33q-209 0 -361.5 138.5t-152.5 341t167 339t386 136.5q145 0 233 -29q45 -14 52 -41q26 -102 26 -156q0 -17 -5 -25t-17 -7q-20 0 -39 12t-23 27q-23 63 -47 94q-53 59 -201 59h-10q-150 -2 -250 -109.5t-100 -267.5q0 -176 95 -307 t249 -131z" />
<glyph unicode="h" d="M336 530q0 -12 20 -12q144 -3 269 -3t231 3q10 0 10 17v237q0 29 -32 57q-27 23 -91 50q-10 4 -10 25.5t10 21.5q45 0 102.5 -2t94.5 -2q39 0 100.5 2t104.5 2q12 0 11 -21.5t-11 -25.5q-72 -29 -96 -52q-29 -25 -29 -55v-604q0 -49 29 -76q41 -37 110 -49q17 -4 17 -28 q0 -21 -17 -21q-41 0 -108.5 5t-110.5 5q-41 0 -106.5 -5t-104.5 -5q-8 0 -13 11t-2 23.5t15 14.5q72 14 111 49q27 25 26 76v264q0 10 -8 10q-150 3 -279.5 3t-236.5 -3q-6 0 -6 -14v-260q0 -49 29 -76q39 -37 108 -49q18 -4 18.5 -26.5t-18.5 -22.5q-41 0 -104.5 5 t-104.5 5q-43 0 -111.5 -5t-107.5 -5q-8 0 -13 11q-3 7 -3 14q0 5 1 9q3 13 15 15q72 14 111 49q27 25 26 76v604q0 29 -32 57q-27 23 -91 50q-6 2 -9 14t0 22.5t9 10.5q45 0 105.5 -2t99.5 -2q37 0 94.5 2t100.5 2q12 0 12 -21.5t-12 -25.5q-70 -29 -94 -52 q-29 -20 -29 -55v-242z" />
<glyph unicode="i" horiz-adv-x="655" d="M416 772v-604q0 -49 28 -76q39 -37 109 -49q18 -4 18 -26.5t-18 -22.5q-41 0 -104.5 5t-104.5 5q-43 0 -111.5 -5t-107.5 -5q-8 0 -13 11q-4 7 -4 14q0 5 2 9q3 13 15 15q72 14 111 49q27 25 26 76v604q0 29 -33 57q-27 23 -90 50q-6 2 -9 14t0 22.5t9 10.5 q45 0 105.5 -2t99.5 -2q37 0 94.5 2t100.5 2q12 0 12 -21.5t-12 -25.5q-70 -29 -95 -52q-28 -20 -28 -55z" />
<glyph unicode="j" horiz-adv-x="552" d="M215 770q0 30 -33 59q-26 23 -90 50q-7 3 -9 14.5t0.5 22t8.5 10.5q45 0 105.5 -2t99.5 -2q37 0 94.5 2t100.5 2q12 0 12 -19q0 -24 -12 -28q-70 -29 -95 -52q-29 -22 -28 -57v-491q0 -222 -11 -297q-21 -151 -110 -244q-45 -47 -107 -71.5t-112 -24.5q-94 0 -144 16 q-67 22 -67 63q-2 68 63 97q23 10 48.5 -1.5t39.5 -29.5q45 -57 92 -57q84 0 113 41q33 47 37 123q4 80 4 282v594z" />
<glyph unicode="k" horiz-adv-x="1073" d="M854 135q41 -47 70.5 -63.5t97.5 -34.5q10 -4 12 -27v-6q0 -18 -12 -18q-16 0 -69.5 7t-90.5 7q-57 0 -151.5 -4t-100.5 -4q-12 0 -13 23.5t9 25.5q8 2 21.5 5t24 5t19.5 5t14 7.5t5 10.5q0 20 -22 43l-130 151l-147 168q-23 25 -31 25q-6 0 -6 -31q0 -88 6 -260 q2 -63 19 -80q37 -37 84 -49q16 -4 16 -26.5t-16 -22.5q-39 0 -91.5 4t-84.5 4q-43 0 -110.5 -4t-102.5 -4q-8 0 -14 11q-3 7 -3 15q0 4 1 8q3 13 16 15q66 16 102 55q25 25 25 74v598q0 29 -31 55q-41 37 -84 47q-8 2 -8 27t8 25q41 0 101.5 -3.5t99.5 -3.5q33 0 84 3.5 t92 3.5q12 0 11 -25t-11 -27q-45 -6 -80 -34q-20 -18 -23 -68q-6 -170 -6 -250q0 -16 6 -16q16 0 31 14l271 270q16 16 1.5 39t-49.5 31q-12 4 -10 35t14 31q43 -4 154 -4q63 0 180 12q10 0 8 -29t-8 -31q-63 -8 -97 -23.5t-83 -60.5q-143 -125 -250 -241q-8 -8 6 -25z" />
<glyph unicode="l" horiz-adv-x="909" d="M496 879q-16 -4 -41 -9.5t-38.5 -9.5t-28.5 -11t-26 -18q-26 -26 -26 -102v-6v-547q0 -110 108 -110h2h197q10 0 38 10t44 26q41 41 84 131q10 18 57 15q8 0 14 -5q5 -4 5 -10q0 -51 -22 -126.5t-23 -86.5q0 -8 -10.5 -16t-20.5 -8q-115 0 -298 4t-247 4l-217 -6 q-4 0 -7 11q-2 7 -2 13q0 5 1 10q2 11 8 11q70 18 94 43q41 41 41 86v553q0 86 -18 106q-6 6 -10 11.5t-10.5 8.5t-9.5 5t-11 5t-12.5 4t-16.5 5t-20 7q-10 2 -11.5 25.5t11.5 23.5q29 0 77 -2t78 -2q53 0 150.5 3t116.5 3q14 0 12 -23.5t-12 -25.5z" />
<glyph unicode="m" horiz-adv-x="1474" d="M748 -2q-17 -32 -37 -32h-3q-22 3 -36 36q-55 115 -146 337l-141 333q-14 35 -18 0q-43 -426 -48 -510q0 -39 41 -80q27 -29 76 -39q10 -2 13.5 -25.5t-13.5 -23.5q-27 0 -77 4t-80 4q-35 0 -89.5 -4t-76.5 -4q-12 0 -12 22q0 25 12 27q66 14 90 33q23 16 26 53 q63 467 64 623q0 51 -23 77q-29 33 -118 54q-17 4 -13 36q4 12 11 13q66 -10 148.5 -10t116.5 3t50 -3l283 -705q16 -41 32 -4l77 164q36 80 53 123l59 146l61 151q51 119 55 118h95q37 0 184 19h2q12 0 -2 -29q-6 -14 -12 -16q-16 -6 -32.5 -8t-27 -6.5t-26.5 -14.5 q-23 -16 -23 -65q2 -354 27 -645q3 -33 33 -58q46 -38 94 -47q10 -3 12 -27v-6q0 -18 -12 -18q-18 0 -74 4t-94 4q-51 0 -134.5 -4t-93.5 -4q-13 0 -14.5 24t8.5 27l22 7q9 3 14.5 5t10.5 6.5t7.5 6t8.5 8.5t9 10q28 29 29 62v19q0 106 -17 493q-2 39 -20 0z" />
<glyph unicode="n" horiz-adv-x="1292" d="M137 -6q-13 0 -11.5 23.5t11.5 25.5q2 0 13 2t13 2.5t10 2t11 2.5l8 4q7 2 10 4l8 7q5 4 9 9q27 30 31 90q14 244 14 573q0 7 0.5 21t-0.5 18l-1 12q-1 7 -3.5 12t-7.5 11q-41 49 -131 57q-14 0 -14 25t14 25h295q7 0 12 -4.5t11.5 -14t9.5 -12.5l247 -301l305 -363 q2 -2 7.5 -9t9.5 -11t9 -6t8 4t3 22q2 61 2 142q0 162 -8 407q0 18 -12 33.5t-31.5 26t-36 16.5t-37 12t-24.5 8q-6 2 -7 23.5t7 21.5q37 0 91 -4t89 -4t87 4t83 4q6 0 8 -23v-6q0 -16 -8 -16q-39 -6 -72 -32q-37 -25 -39 -56q-6 -104 -9 -205.5t-3 -165t1 -187.5t1 -197 q0 -23 -14 -39.5t-37 -16.5q-53 0 -102 56l-549 647q-18 20 -30.5 24t-15.5 -1t-5 -17q-10 -311 -10 -464q0 -38 1 -66q4 -47 23 -68q27 -31 72 -39q12 -2 11 -25.5t-18 -23.5q-37 0 -82 4t-73 4q-31 0 -78 -4t-76 -4z" />
<glyph unicode="o" d="M608 868q-158 0 -228.5 -112.5t-70.5 -280.5q0 -188 89 -309t255 -121q84 0 146.5 37t95.5 97.5t48 125t15 129.5q0 174 -89 304t-261 130zM135 444q0 190 145.5 340t340.5 150q209 0 359 -138.5t150 -342.5q0 -201 -135 -342.5t-374 -141.5q-205 0 -345.5 138 t-140.5 337z" />
<glyph unicode="p" horiz-adv-x="958" d="M387 809v-643q0 -82 131 -115q10 -2 10 -29.5t-10 -27.5q-8 0 -83 6t-120 6q-47 0 -122.5 -6t-90.5 -6q-8 0 -8 23.5t8 25.5q53 8 92 47t39 84v543q0 86 -18 104q-18 20 -31.5 27.5t-54.5 19.5q-6 2 -10 15.5t-3 26t11 12.5q29 0 76 -2t78 -2q29 0 103.5 5t92.5 5 q172 0 296 -65.5t124 -196.5q0 -147 -100 -226q-55 -43 -157 -58q-60 -9 -106 -9q-31 0 -55 4q-38 7 -22 25q7 9 18 8q18 -2 35 -2q64 0 113 36q57 43 81.5 89.5t24.5 146.5q0 74 -43 118t-94 57t-115 13q-90 0 -90 -59z" />
<glyph unicode="q" horiz-adv-x="1232" d="M590 881q-156 0 -253 -115q-95 -113 -95 -266v-6q0 -195 103.5 -333t277.5 -138q154 0 239.5 130t85.5 298q0 178 -94 304t-264 126zM492 -63q-59 33 -78 36q-100 25 -222 158t-122 293q0 217 150.5 367.5t373.5 150.5q201 0 363.5 -121t162.5 -303q0 -121 -36.5 -217 t-101 -158.5t-111 -94.5t-107.5 -62q-29 -16 12 -41q223 -141 450.5 -227.5t391.5 -86.5q109 0 163 3.5t152.5 19.5t183.5 59t169 113q16 12 28 0q9 -11 9 -19t-7 -14q-86 -82 -198.5 -137t-219 -74.5t-172.5 -25.5q-44 -3 -78 -3q-19 0 -36 1q-446 10 -1120 383z" />
<glyph unicode="r" horiz-adv-x="1120" d="M322 528q0 -27 10 -38t19 -12t38 -1q88 0 150 41q63 39 63 166q0 184 -184 184q-53 0 -70.5 -19.5t-19.5 -57.5q-6 -151 -6 -229v-34zM322 387q2 -47 4 -122t2 -99q2 -82 133 -115q10 -4 10 -31.5t-10 -27.5q-8 0 -80 6t-117 6q-51 0 -134 -6t-95 -6q-10 0 -10 24.5 t10 26.5q59 14 92 47q41 41 41 84v547q0 82 -18 102q-20 23 -34 30t-55 17q-6 2 -10 14.5t-3 25t11 12.5q29 0 88.5 -3.5t98.5 -3.5q23 0 75 6.5t97 6.5q160 0 258 -64.5t98 -177.5q0 -43 -25.5 -98.5t-46.5 -73.5q-41 -41 -81 -59q-8 -2 0 -13q25 -37 70.5 -115.5 t85.5 -133t97 -109.5q20 -20 40 -29.5t31 -11.5t40 -1t43 1q6 0 8 -8q1 -3 1 -6q0 -6 -3 -13q-4 -10 -10 -14q-45 -31 -100 -31q-162 0 -228 78q-25 31 -45 59.5t-33 49.5l-44 76l-58 96q-25 37 -61 55q-53 27 -113 31q-10 2 -15 -6.5t-5 -22.5z" />
<glyph unicode="s" horiz-adv-x="763" d="M346 49q160 0 160 154q0 14 -3 26.5t-6 22.5t-13 22l-15 21q-6 8 -21 21l-21 18q-7 6 -26.5 19.5l-28.5 19.5l-34 21l-35 22q-194 122 -194 278q0 82 83.5 163t227.5 81q43 0 82 -7t67.5 -16.5t36.5 -11.5q23 -2 27 -31q22 -104 22 -147q0 -14 -5 -26.5t-11 -12.5 q-8 0 -27.5 10.5t-21.5 24.5q-41 145 -189 145q-141 0 -141 -121q0 -18 6 -35.5t20.5 -36t25 -29.5t34.5 -30l34 -25q9 -7 39 -25.5t34 -20.5q225 -145 225 -297q0 -100 -84 -184.5t-242 -84.5q-49 0 -90 6.5t-81 17.5t-50 13t-14 4t-6 8l-2 5q-12 27 -29 92t-19 102 q0 8 14.5 15.5t26.5 7.5q4 0 22.5 -31t44.5 -68.5t74 -68.5t103 -31z" />
<glyph unicode="t" horiz-adv-x="1001" d="M772 831q-152 0 -201 -4q-23 -2 -22 -61v-600q0 -47 26 -72q41 -37 107 -49q10 -2 14 -15.5t0 -24.5t-14 -11q-39 0 -105.5 7t-109.5 7q-41 0 -104.5 -7t-100.5 -7q-8 0 -12 11t-1 24.5t13 15.5q66 12 107 49q27 25 26 72v600q0 57 -24.5 61t-151.5 4q-70 0 -102 -57 q-8 -14 -29.5 -35.5t-36.5 -21.5q-16 0 -16 15q0 13 12 38t18.5 53.5t10.5 75.5t6 57q4 31 27 31q14 0 38 -43q14 -29 91 -29h555q82 0 104 27q25 25 49 25q6 0 12 -9q5 -5 5 -10q0 -3 -2 -6q-18 -37 -35 -192q-2 -10 -4 -18.5t-7.5 -14.5t-13.5 -6q-18 2 -33 47q0 2 -2 12 t-3 14t-5 12.5t-7 11.5t-10 9t-16.5 8t-23 4t-29.5 2z" />
<glyph unicode="u" horiz-adv-x="1153" d="M164 418v344q0 41 -12.5 64.5t-24.5 28.5t-43 15q-8 2 -13 14q-4 9 -4 18q0 4 1 8q2 12 12 12q33 0 88 -2t90 -2q25 0 61.5 2t79.5 2q12 0 12.5 -22.5t-12.5 -27.5q-80 -10 -82 -124v-369q0 -137 87.5 -235.5t224.5 -98.5q131 0 192.5 82t61.5 268v322v16q0 74 -17 97 q-20 26 -75 40q-14 4 -13.5 29t15.5 25h147q31 0 82 1t84 1q10 0 10 -16v-6q-2 -21 -10 -23q-115 -23 -119 -113q-14 -158 -14 -324q0 -471 -371 -471q-207 0 -322.5 127.5t-115.5 317.5z" />
<glyph unicode="v" horiz-adv-x="1099" d="M547 -31q-6 0 -17.5 24.5t-30 76t-26.5 69.5l-231 576q-35 82 -62 112q-33 35 -106 56q-6 2 -12 13q-4 8 -4 15q0 3 1 5q2 10 11 10q33 0 74.5 -2t68.5 -2q49 0 129 2t115 2q6 0 9 -9.5t1 -19.5t-10 -12q-45 -4 -64.5 -16.5t-19.5 -41.5q0 -10 28 -137q29 -111 166 -411 q12 -29 16.5 -34t9.5 0t17 34l178 428q24 57 24 90q0 11 -3 20q-16 47 -84 62q-14 2 -12 22.5t14 20.5h166q31 0 79 2t79 2q8 0 8 -13v-5q-2 -19 -8 -21q-76 -18 -95 -39q-35 -37 -79 -143l-267 -601q-2 -4 -8 -23.5t-12 -35.5t-14.5 -34.5t-15.5 -30t-13 -11.5z" />
<glyph unicode="w" horiz-adv-x="1472" d="M1272 741l-111 -333l-114 -342q-10 -28 -43 -69.5t-41 -41.5q-7 0 -25 11.5t-25 25.5q-33 67 -54.5 117t-54.5 137l-52 135q-1 2 -2 6q-10 27 -21 -2q-29 -78 -76.5 -185.5t-79.5 -195.5q-6 -15 -29.5 -33t-33.5 -18q-5 0 -27 17.5t-26 29.5l-312 770q-16 39 -34 55 q-36 32 -78 45q-15 3 -15 26q0 21 15 22q31 0 83.5 -3.5t86.5 -3.5q39 0 99.5 3.5t88.5 3.5q10 0 13.5 -11.5t-1 -23.5t-14.5 -13q-38 -1 -64 -14t-26 -27q0 -8 6 -26.5t12 -32.5l7 -14l73 -188l83 -214l79 -186q3 -6 11.5 -7t11.5 5l110 289q12 34 11.5 38.5t-13.5 36.5 q-12 30 -36 100t-46 115q-26 55 -57 80q-51 40 -94 45q-13 0 -11.5 24t11.5 24q22 0 69 -3.5t76 -3.5q33 0 86 3.5t70 3.5q14 0 13 -22t-13 -26q-16 -3 -25.5 -15t-9.5 -26q0 -23 51 -155q1 -3 4 -9l9 -16q1 0 4 12q4 14 8 23q49 121 49 145q0 13 -10.5 25.5t-26.5 15.5 q-7 2 -9 14t0.5 23t8.5 11q23 0 54 -3.5t50 -3.5q28 0 72.5 3.5t65.5 3.5q15 0 14 -21t-14 -25q-5 -1 -20 -3.5t-18.5 -3.5t-15 -3.5t-15 -4.5t-12.5 -6t-14 -9l-11 -10q-7 -7 -13 -15t-12 -18q-48 -81 -88 -191q-10 -26 -10.5 -36.5t5.5 -26.5q59 -166 162 -383 q2 -4 8.5 -1t8.5 9q98 297 178 580q8 29 8 79q0 12 -22.5 24.5t-51.5 16.5q-14 2 -14 25t14 23q29 0 78 -3.5t80 -3.5q27 0 70 3.5t73 3.5q4 0 9 -12q3 -7 3 -16q0 -4 -1 -8q-2 -12 -11 -12q-61 -14 -86 -28q-36 -25 -63 -101z" />
<glyph unicode="x" horiz-adv-x="1112" d="M406 45q16 0 16 -25.5t-16 -25.5q-45 0 -89.5 5t-72.5 5q-31 0 -78 -5t-92 -5q-8 0 -12 12q-3 7 -3 15q0 5 1 9q3 13 14 15q72 12 114.5 44t96.5 97l172 215q24 29 24 52q0 15 -10 28l-223 314q-25 33 -36 45t-38 23t-74 14q-10 0 -13 13t1 25.5t12 12.5q12 -1 75.5 -8.5 t105.5 -8.5h16q42 0 103 4q73 5 87 5q15 0 15.5 -25t-15.5 -25q-38 -1 -56 -15t-16.5 -35.5t10 -41.5t21.5 -39l115 -159q15 -21 16.5 -21.5t18.5 16.5l145 177q16 18 16 42q0 13 -5 28q-15 42 -56 46q-10 0 -13 13.5t1 26t12 12.5q23 0 55.5 -3.5t63.5 -3.5q109 0 189 19h2 q8 0 11 -12q5 -31 -13 -39q-53 -12 -85 -34t-69 -67l-209 -252q-16 -20 -17 -26t11 -27l211 -307q74 -109 170 -123q14 -2 14 -26.5t-14 -24.5q-43 0 -96.5 4t-88.5 4q-49 0 -127.5 -4t-119.5 -4q-14 0 -14.5 24.5t14.5 26.5q78 4 104 40q12 16 12 34q0 23 -18 49l-131 194 q-16 18 -24.5 14.5t-24.5 -26.5l-160 -207q-19 -23 -19 -43q0 -13 7 -24q19 -31 76 -31z" />
<glyph unicode="y" horiz-adv-x="1011" d="M61 872q-8 0 -13 12q-4 9 -4 18q0 4 1 8q2 12 10 12q33 0 86.5 -2t86 -2t83.5 2t92 2q10 0 10.5 -21.5t-10.5 -23.5q-67 -10 -67 -50q0 -17 12 -39q33 -57 54 -90l46 -66l44 -61l18 -27q10 -16 11 -19t7.5 -4t7.5 4t11 19.5t20 26.5q94 131 135 211q7 14 7 27 q0 18 -14 33q-23 26 -66 32q-12 2 -11.5 26t15.5 24h147q31 0 76 1t76 1q10 0 10 -15v-5q-2 -21 -10 -23q-88 -12 -174 -144q-31 -53 -75 -114.5t-81 -120.5l-14 -22l-10 -17l-8 -13q-5 -8 -5 -11t-2 -12t0 -14t0 -20q1 -23 1 -67v-48q-1 -81 -1 -112q0 -47 27 -72 q41 -37 106 -49q12 -2 16.5 -16.5t-0.5 -26.5t-16 -12q-41 0 -102.5 6t-99.5 6q-43 0 -113 -6t-107 -6q-8 0 -13 12t-2 26.5t15 16.5q68 12 109 49q27 25 27 72v227q0 37 -25 86q-27 49 -53.5 87t-63.5 86l-61 81q-4 6 -20.5 34t-31 47.5t-40 36.5t-54.5 19z" />
<glyph unicode="z" horiz-adv-x="954" d="M664 80q127 8 176 123q8 20 73 28q6 0 9 -5q3 -3 3 -8q0 -2 -1 -5q-31 -143 -58 -195q-2 -2 -4 -8l-3 -9q-1 -3 -5 -5t-8 -2q-74 0 -322 3q-106 1 -170 1q-85 0 -94 -2h-190q-8 0 -8 9q0 4 1 10l7 20q6 14 75 117q336 461 480 682q12 20 -23 22q-127 3 -211 3t-125 -3 q-74 -6 -104 -92q-4 -12 -28.5 -31.5t-39.5 -19.5q-20 0 -4 53q45 152 49 162q12 24 31 24h2q10 0 35 -20q14 -10 84 -10q127 -2 242 -2q173 0 319 4q8 0 14 -10.5t2 -14.5q-12 -14 -86 -117q-274 -367 -465 -661q-6 -10 -2 -24.5t15 -16.5q64 -8 147 -8t187 8z" />
<glyph unicode="{" horiz-adv-x="763" d="M184 571q63 -16 140 -98t77 -172q0 -57 -13 -170t-13 -184q0 -104 76.5 -155.5t187.5 -51.5q53 0 53 -25q0 -31 -37 -30q-164 0 -288.5 69.5t-124.5 202.5q0 74 13 188.5t13 176.5q0 166 -194 237q-23 8 -23 19q0 6 3 8t9.5 2t10.5 2q195 72 194 237q0 61 -13 176 t-13 189q0 133 125 202.5t288 69.5q37 0 37 -30q0 -25 -53 -25q-111 0 -187.5 -51t-76.5 -156q0 -72 13 -184.5t13 -169.5q0 -92 -70.5 -164t-150.5 -104q-8 -5 4 -9z" />
<glyph unicode="|" horiz-adv-x="532" d="M205 1384q0 29 37 46.5t57 17.5q29 0 29 -27v-1964q0 -27 -35 -38t-64 -11q-10 0 -17 9.5t-7 19.5v1947z" />
<glyph unicode="}" horiz-adv-x="763" d="M580 571q10 4 4 9q-80 33 -151 104.5t-71 163.5q0 57 13.5 169.5t13.5 184.5q0 104 -76.5 155.5t-187.5 51.5q-53 0 -53 25q0 31 37 30q164 0 288.5 -69.5t124.5 -202.5q0 -74 -13 -188.5t-13 -176.5q0 -166 194 -237q2 -2 9.5 -2t10.5 -2t3 -8q0 -10 -23 -19 q-195 -72 -194 -237q0 -61 13 -176t13 -189q0 -133 -125 -202.5t-288 -69.5q-37 0 -37 30q0 25 53 25q111 0 187.5 51t76.5 156q0 72 -13.5 184.5t-13.5 169.5q0 90 77.5 172t140.5 98z" />
<glyph unicode="~" horiz-adv-x="1024" d="M102 571q37 70 115 139.5t141 69.5q43 0 151.5 -49t180.5 -49q43 0 111.5 31.5t93.5 64.5q10 13 23 -15q7 -15 4 -22q-31 -57 -111 -133t-145 -76q-47 0 -166 49.5t-176 49.5q-35 0 -100.5 -34t-90.5 -62q-4 -4 -13 2t-14.5 17t-3.5 17z" />
<glyph unicode="&#xa1;" horiz-adv-x="577" d="M311 766q-51 0 -87 36t-36 87t36 87t87 36t87 -36t36 -87t-36 -87t-87 -36zM311 -369q-51 2 -77.5 45t-26.5 107q0 82 47 637q4 47 19.5 83t37.5 36q14 0 27.5 -35t17.5 -72q55 -535 56 -653q0 -61 -26 -105.5t-75 -42.5z" />
<glyph unicode="&#xa2;" horiz-adv-x="843" d="M397 -25q-133 23 -229 142t-96 268q0 176 117.5 309t297.5 150l11 102q4 35 45 35q12 0 20 -11.5t6 -23.5l-10 -100q145 -8 219 -98q31 -39 -41 -86q-16 -10 -38.5 -6.5t-30.5 18.5q-47 84 -117 102l-70 -682q10 -2 31 -2q178 0 236 88q10 10 21 9t19.5 -11t2.5 -20 q-109 -180 -324 -187l-10 -104q-4 -31 -39 -31q-14 0 -24.5 8.5t-8.5 22.5zM410 109l71 677h-4q-117 0 -192.5 -103t-75.5 -228q0 -131 54.5 -221t146.5 -125z" />
<glyph unicode="&#xa3;" horiz-adv-x="1003" d="M705 1288q213 2 213 -168q0 -39 -32 -76.5t-55 -37.5q-12 0 -20 9t-4 19q2 6 2 45q-2 51 -46 100.5t-95 49.5q-100 0 -159.5 -140.5t-62.5 -388.5l273 19q12 0 21.5 -9.5t4.5 -19.5q-27 -49 -63 -49l-240 -16q-14 -125 -68.5 -252t-97.5 -164q-6 -4 -4 -11.5t13 -7.5 q129 0 261 -61t222 -63q47 -2 84 31.5t37 80.5q0 20 -13.5 52t-13.5 53v15q0 5 2 12t6 10.5t11 3.5q43 -4 69.5 -35t26.5 -74q0 -117 -94.5 -203t-218.5 -86q-94 0 -161 29t-167 98q-82 59 -131 60q-10 0 -40 -32t-50 -69q-23 -41 -74 -41q-27 0 -44 18.5t-17 45.5 q0 35 61 86t135 65q10 2 23 25q55 98 65 401l-172 -12q-10 0 -19.5 7t-9.5 18q0 14 15.5 32.5t34.5 20.5l153 10v10q0 227 116 407.5t323 182.5z" />
<glyph unicode="&#xa4;" horiz-adv-x="989" d="M84 889q-18 20 16 55q37 37 58 17l92 -93q111 84 244 84q139 0 241 -84l94 95q20 20 60 -19q33 -35 10 -57l-92 -92q80 -104 80 -241.5t-80 -242.5l96 -96q18 -18 -16 -55q-37 -37 -58 -17l-94 95q-102 -84 -241.5 -84t-241.5 84l-96 -95q-20 -20 -56 15q-37 37 -16 57 l96 96q-80 104 -80 241.5t80 240.5zM493.5 850q-120.5 0 -205.5 -87t-85 -210t85 -210t205.5 -87t205.5 87t85 210t-85 210t-205.5 87z" />
<glyph unicode="&#xa5;" horiz-adv-x="1267" d="M260 1069q-35 53 -54.5 80t-59.5 70t-68 51q-68 20 -68 45q0 23 60 22q27 0 107.5 -3t131.5 -3q35 0 90.5 2t73.5 2q59 0 59 -22q0 -18 -67 -41q-20 -6 -34.5 -18.5t-23 -40t18.5 -66.5l190 -338q20 -37 32 -51l20 -26q10 -12 21 2l21 25q10 11 31 50q115 168 170 285 q25 53 10.5 108t-57.5 68q-68 18 -67.5 40.5t59.5 22.5q31 0 78 -1t76 -1q41 0 108.5 3t87.5 3q59 0 60 -22q0 -27 -68 -41q-82 -16 -205 -197q-110 -167 -229 -368q-31 -45 -37 -64h250q12 0 21.5 -9t5.5 -20q-23 -43 -64 -43h-223v-49v-49h258q12 0 21.5 -9t4.5 -20 q-23 -43 -63 -43h-221v-182q0 -143 160 -172q68 -12 67 -37q0 -23 -59 -22q-57 0 -126 5t-114 5q-51 0 -129 -5t-133 -5q-59 0 -59 22q0 25 67 37q160 29 160 172l2 182h-258q-10 0 -19.5 7.5t-9.5 17.5q0 14 15.5 30.5t33.5 16.5h238v49q0 20 -4 49h-254q-10 0 -19.5 8.5 t-9.5 16.5q0 14 15.5 30.5t33.5 16.5h217q-14 27 -18 31z" />
<glyph unicode="&#xa6;" horiz-adv-x="532" d="M229 565q-8 0 -16 15.5t-8 31.5v768q0 29 37 46.5t57 17.5q29 0 29 -27v-809q0 -14 -40.5 -28.5t-58.5 -14.5zM299 367q10 0 19.5 -14.5t9.5 -30.5v-867q0 -27 -35 -38t-64 -11q-10 0 -17 9.5t-7 19.5v884q0 14 40 31t54 17z" />
<glyph unicode="&#xa7;" horiz-adv-x="819" d="M444 625q-181 185 -227 262q-17 28 -24 51q-4 8 -11.5 7t-9.5 -7q-23 -86 -22 -150q0 -102 44 -186t140 -184q181 -185 227 -263q17 -28 25 -51q4 -8 11 -7t9 7q23 86 23 150q0 102 -44.5 186.5t-140.5 184.5zM469 1311q100 0 143 -39q25 -20 25 -37q0 -12 -16.5 -42 t-36.5 -46q-27 -20 -52 4q-78 70 -126 70q-57 0 -91 -38t-34 -91q0 -113 213 -304q123 -111 169 -215t46 -247q0 -104 -22.5 -176t-80.5 -173q-98 -170 -244 -258q-37 -23 -110 -22q-53 0 -90 18.5t-37 46.5q0 63 57 107q16 10 45 -12q55 -49 142 -50q106 0 106 168 q0 20 -6 43q-7 24 -23 50l-28 44q-12 18 -41 51l-42 46l-48 50l-45 46q-193 197 -193 369q0 127 34 212t101 165q27 100 105 180t180 80z" />
<glyph unicode="&#xa8;" horiz-adv-x="0" d="M-182 1217q39 0 70.5 -32t31.5 -71t-31.5 -70.5t-70.5 -31.5t-71 31.5t-32 70.5t32 71t71 32zM-545 1217q39 0 71 -32t32 -71t-32 -70.5t-71 -31.5t-70.5 31.5t-31.5 70.5t31.5 71t70.5 32z" />
<glyph unicode="&#xa9;" horiz-adv-x="1361" d="M708.5 1208q-223.5 0 -381 -157.5t-157.5 -380.5q0 -225 156.5 -388t380.5 -163q225 0 382.5 161.5t157.5 389.5q0 223 -157.5 380.5t-381 157.5zM709 1290q256 0 438 -182t182 -438t-183 -438.5t-439 -182.5t-437.5 182.5t-181.5 438.5t182.5 438t438.5 182zM946 461 q16 31 35 31q10 0 10 -27q0 -18 -14 -55t-27 -50q-6 -6 -43 -24q-43 -20 -172 -21q-143 0 -246.5 108.5t-103.5 248.5q0 147 118 243.5t275 96.5q53 0 109 -13q9 -4 39 -11l38 -9q8 -2 13 -29q6 -57 2 -112q0 -6 -7 -15.5t-14 -7.5q-12 0 -24 31q-16 45 -61.5 74.5 t-112.5 29.5q-102 0 -167 -78.5t-65 -193.5q0 -121 64.5 -211t177.5 -90q135 0 176 84z" />
<glyph unicode="&#xaa;" horiz-adv-x="552" d="M100 401h422q12 0 21.5 -9t5.5 -19q-23 -43 -64 -43h-405q-10 0 -19.5 7t-9.5 17q0 14 15.5 30.5t33.5 16.5zM164 700q0 -33 21.5 -51t43.5 -18q33 0 82 39q14 12 15 47l2 59q0 31 -31 23q-133 -38 -133 -99zM449 549q-33 0 -58.5 16.5t-39 31.5t-15.5 15q-6 0 -24.5 -15 t-55.5 -31.5t-84 -16.5q-41 0 -81 42t-40 79q0 41 15.5 66.5t62.5 41.5l162 58q27 8 32 16t5 33v47q0 33 -20.5 53.5t-55.5 20.5q-72 0 -88 -27q-8 -18 -4 -51q2 -14 -92 -39q-6 -2 -9.5 4t0.5 16q20 53 52 78q35 31 96 58.5t108 27.5q49 0 89 -32.5t38 -75.5l-6 -254 q0 -80 43 -80q33 0 43 16q11 15 24 -14q5 -11 3 -17q-2 -4 -15.5 -19t-37.5 -31.5t-47 -16.5z" />
<glyph unicode="&#xab;" horiz-adv-x="1384" d="M858 444q-12 -10 -12 -14t12 -14q186 -143 311 -334q10 -16 3 -31.5t-19 -11.5q-27 6 -57 37q-205 199 -420 297q-20 8 -31.5 36.5t0.5 36.5q299 178 463 336q31 31 57 37q11 3 14 -12q3 -18 -10 -37q-53 -80 -114.5 -148.5t-98.5 -98.5zM424 444q-12 -10 -12 -14t12 -14 q186 -143 311 -334q10 -16 3 -31.5t-19 -11.5q-27 6 -57 37q-205 199 -420 297q-20 8 -31.5 36.5t0.5 36.5q299 178 463 336q31 31 57 37q11 3 13 -12q3 -18 -9 -37q-53 -80 -114.5 -148.5t-98.5 -98.5z" />
<glyph unicode="&#xac;" horiz-adv-x="1228" d="M131 659q-10 0 -19.5 8.5t-9.5 16.5q0 10 2 23.5t6.5 32t15.5 30.5t26 12h948q10 0 18 -9t8 -19v-617q0 -27 -34.5 -38t-63.5 -11q-8 0 -16 9t-8 20v506q0 37 -29 36h-844z" />
<glyph unicode="&#xad;" horiz-adv-x="561" d="M80 348q-20 -2 -21 12q10 109 33 111q262 37 393 51q16 0 17 -12q-8 -106 -43 -111q-240 -37 -379 -51z" />
<glyph unicode="&#xae;" horiz-adv-x="690" d="M327.5 1290q-73.5 0 -125.5 -52t-52 -126t52 -126t125.5 -52t126 52t52.5 126t-52.5 126t-126 52zM328 1331q90 0 154.5 -64.5t64.5 -154.5t-64.5 -154.5t-154.5 -64.5t-154.5 64.5t-64.5 154.5t64.5 154.5t154.5 64.5zM360 1161q0 16 -10 30.5t-24 14.5q-23 0 -23 -18 v-47q0 -12 14 -13q16 0 29.5 9.5t13.5 23.5zM219 999q-2 0 -2 9.5t2 9.5q33 12 33 24v127q0 18 -25 27q-2 0 -4 6t-1 13.5t5 7.5q53 12 99 12q39 0 62.5 -17.5t23.5 -46.5q0 -41 -39 -51q-2 0 -2 -5t2 -7q37 -72 53 -84q23 -23 23 -25q0 -6 -25 -6q-29 0 -55 27 q-18 25 -33 61q-4 12 -21 13q-12 0 -12 -7v-45q0 -16 31 -22q2 -2 2 -11.5t-2 -9.5h-115z" />
<glyph unicode="&#xaf;" horiz-adv-x="512" d="M-955 262h457q12 0 21 -9t6 -20q-9 -25 -14.5 -36.5t-18.5 -24t-31 -12.5h-440q-11 0 -20 7.5t-9 16.5q0 21 13 49.5t36 28.5z" />
<glyph unicode="&#xb0;" horiz-adv-x="593" d="M297 1321q98 0 172 -70.5t74 -169t-75 -178.5t-171 -80t-171 80t-75 178.5t74 169t172 70.5zM147 1071q0 -61 44.5 -106t105.5 -45t105 45t44 106q0 63 -44 107.5t-105 44.5t-105.5 -44.5t-44.5 -107.5z" />
<glyph unicode="&#xb1;" horiz-adv-x="1208" d="M131 78q-10 0 -19.5 7t-9.5 17q0 20 13.5 49t36.5 29h927q12 0 21.5 -9t5.5 -19q-8 -25 -13.5 -37.5t-18.5 -24.5t-32 -12h-911zM655 834q0 -10 1 -11.5t8 -1.5h415q12 0 21.5 -9t5.5 -19q-8 -25 -13.5 -37.5t-18.5 -24.5t-32 -12h-378q-8 0 -9 -8v-414q0 -23 -28.5 -36 t-48.5 -13q-10 0 -17.5 9t-7.5 19v433q0 10 -8 10h-414q-10 0 -19.5 7t-9.5 17q0 20 13.5 49t36.5 29h387q14 0 14 17v350q0 25 29.5 44t44.5 19q29 0 28 -26v-391z" />
<glyph unicode="&#xb2;" horiz-adv-x="614" d="M86 1389q-8 -16 -18 -13q-14 6 -15 23q0 43 73 110.5t167 67.5q78 0 132 -56.5t54 -134.5q0 -14 -2 -27t-6 -26.5t-8 -22.5q-5 -10 -13 -23l-12 -19q-4 -6 -14 -22.5t-14 -20.5q-20 -31 -66 -77l-90 -85q-43 -39 -47 -43q-6 -6 4 -9t20 -3h142q45 0 87 27.5t64 74.5 q8 20 31 16q12 0 6 -18q-41 -115 -55 -186q-2 -12 -6 -19.5t-10 -7.5h-9q-104 6 -172 6q-147 0 -252 -4q-7 -1 -9 8q-3 13 9 25l80 82l27 26l46 44q22 20 51.5 53.5t51 64.5t37 67t15.5 66q2 57 -33 95t-84 38q-55 0 -87 -15t-75 -62z" />
<glyph unicode="&#xb3;" horiz-adv-x="614" d="M383 1405q0 31 -35 54.5t-65 21.5q-74 -4 -144 -62q-14 -14 -20 -12q-18 10 -13 23q76 147 211 147q180 -4 181 -145q0 -76 -121 -138q-6 -4 -6 -7t6 -3q57 -4 99 -42t42 -93q0 -115 -96 -187.5t-193 -72.5q-74 0 -112 24q-23 14 -23 43q0 14 12.5 36t24.5 22 q16 0 27 -10q68 -45 133 -46q23 0 45 5.5t49 37t27 84.5q0 55 -40 94.5t-98 39.5q-23 0 -75 -15q-6 -2 -15.5 1t-13.5 10.5t0 11.5q18 18 55 31.5t45 19.5l30 18q20 12 28 18.5l21 17.5t18.5 20.5t10.5 23t5 29.5z" />
<glyph unicode="&#xb4;" horiz-adv-x="782" d="M375 965q-32 -45 -56 -45q-27 0 -26 26q0 20 72.5 152.5t117.5 206.5q35 56 105 55q27 0 48 -18.5t21 -38.5q1 -16 -33 -50l-106 -113q-72 -79 -143 -175z" />
<glyph unicode="&#xb5;" horiz-adv-x="1044" d="M860 131q92 0 133 82q6 12 22.5 8t16.5 -16q4 -70 -31 -125q-43 -70 -78.5 -90.5t-91.5 -20.5q-49 0 -77.5 27t-59.5 102q-18 43 -26 135q-12 -31 -44 -84t-90.5 -114.5t-103.5 -61.5q-47 0 -87 14.5t-65.5 32t-76.5 58.5q-8 6 -20.5 19.5t-21.5 21.5t-16 8 q-12 0 -17 -26.5t-2 -70.5t9 -92.5t14 -97.5q12 -70 45 -151.5t61 -138t28 -70.5q0 -63 -58 -64q-90 0 -129 105q-13 34 -22 191.5t-9 287.5q0 14 7.5 83t7.5 105q0 31 -7.5 237.5t-7.5 254.5q0 74 25.5 125t81.5 51q80 0 80 -154q0 -44 -32 -217.5t-32 -214.5 q0 -47 49 -107.5t111 -60.5q148 0 225 148q37 71 55 149t20.5 127.5t2.5 153.5q0 68 25.5 119t75.5 51q80 0 79 -129q0 -33 -49 -181.5t-50 -207.5q0 -70 33.5 -135.5t96.5 -65.5z" />
<glyph unicode="&#xb6;" horiz-adv-x="1200" d="M549 -446q0 -37 26.5 -63t63.5 -28q74 -2 121 46.5t47 121.5v562q0 51 -27 51q-172 0 -324.5 55t-256 174t-103.5 277q0 137 70 248.5t183.5 180t252.5 105.5t285 37q106 0 223 -4q31 -2 31 -43q0 -14 -12.5 -29.5t-24.5 -15.5q-6 0 -74.5 7t-73.5 7q-14 0 -25 -11 t-11 -26v-1546q0 -76 -81 -162t-184 -86q-74 0 -127 48t-53 118q0 57 42 96t101 39q43 0 77 -25.5t34 -64.5q0 -33 -22.5 -60.5t-49.5 -27.5q-22 0 -79 33q-27 11 -29 -14z" />
<glyph unicode="&#xb7;" horiz-adv-x="409" d="M205 532q47 0 79.5 -32.5t32.5 -79.5t-32.5 -80t-79.5 -33t-80 33t-33 80t33 79.5t80 32.5z" />
<glyph unicode="&#xb8;" horiz-adv-x="516" d="M195 -264q-12 -6 -30 12.5t-1 38.5l180 229h64l-80 -104q-8 -14 -2 -25.5t16 -15.5q53 -23 89 -65t36 -91q0 -111 -93 -193.5t-163 -82.5q-35 0 -49 24q-18 33 -8 78q2 10 11 16.5t19 2.5q51 -20 101 -21q80 0 80 92q0 100 -138 109q-22 0 -32 -4z" />
<glyph unicode="&#xb9;" horiz-adv-x="614" d="M350 1602q16 8 25.5 -0.5t7.5 -24.5q-4 -33 -8 -143q-2 -254 0 -390q2 -59 17.5 -71t84.5 -23q25 -4 25 -27.5t-25 -23.5q-66 0 -103.5 5t-64 5t-66.5 -5t-102 -5q-12 0 -19 12.5t-2 25.5t21 13q35 2 54.5 7.5t38 27t18.5 59.5v314q0 57 -111 96q-25 10 -21.5 31.5 t19.5 23.5q37 4 74 17.5t61.5 28t48 30t27.5 17.5z" />
<glyph unicode="&#xba;" horiz-adv-x="632" d="M100 401h455q12 0 21.5 -9t5.5 -19q-23 -43 -64 -43h-438q-10 0 -19.5 7t-9.5 17q0 14 15.5 30.5t33.5 16.5zM305 1006q-66 0 -97.5 -52.5t-31.5 -130.5q0 -86 43 -148.5t109 -62.5q63 0 96 52.5t33 132.5q0 84 -42 146.5t-110 62.5zM328 1073q100 0 177 -73.5t77 -172.5 q0 -115 -74 -196.5t-205 -81.5q-104 0 -178 68.5t-74 177.5q0 115 82 196.5t195 81.5z" />
<glyph unicode="&#xbb;" horiz-adv-x="1384" d="M526 444l-98 79q-37 30 -98.5 98.5t-114.5 148.5q-20 31 -6 46q4 4 10 3q20 -4 57 -37q164 -158 463 -336q12 -8 1 -36.5t-31 -36.5q-215 -98 -420 -297q-37 -33 -58 -37q-14 -4 -20 11.5t4 31.5q125 190 311 334q12 10 12 14t-12 14zM961 444l-99 79q-38 30 -99 98.5 t-114 148.5q-20 31 -6 46q4 4 10 3q20 -4 58 -37q164 -158 463 -336q12 -8 0.5 -36.5t-31.5 -36.5q-215 -98 -420 -297q-37 -33 -57 -37q-14 -4 -20.5 11.5t3.5 31.5q125 190 312 334q12 10 12 14t-12 14z" />
<glyph unicode="&#xbc;" horiz-adv-x="1312" d="M248 -23l844 1330q23 35 79 34q12 0 22.5 -12t4.5 -22l-844 -1330q-18 -31 -73 -30q-14 0 -27.5 10t-5.5 20zM1028 303q16 0 16 10v228q0 4 -4 4t-8 -2q-80 -88 -190 -230q-6 -10 0 -10h186zM715 223l57 76l211 260q25 31 119 133q23 23 31 25q6 2 10 -4t4 -13 q0 -240 4 -391q0 -8 6 -8q39 -2 121 2q16 0 14 -12q-10 -72 -26 -72h-99q-16 -6 -16 -8v-172q0 -20 -38 -39.5t-50 -19.5q-18 0 -19 16v209q0 10 -18 10q-53 0 -146.5 -4t-152.5 -4q-6 0 -11 6t-1 10zM315 1282q16 8 25.5 0t7.5 -25q-8 -57 -8 -143q-2 -254 0 -389 q2 -57 17.5 -70.5t84.5 -23.5q16 -2 22.5 -14.5t0.5 -24.5t-23 -12q-66 0 -103.5 5t-64 5t-66.5 -5t-102 -5q-12 0 -18 12t-2 25.5t20 13.5q35 2 54.5 7t38 26.5t18.5 60.5v313q0 57 -111 97q-25 10 -21.5 31.5t19.5 23.5q37 4 74 17.5t61.5 27.5t48 29.5t27.5 17.5z" />
<glyph unicode="&#xbd;" horiz-adv-x="1431" d="M907 475q-8 -16 -18 -12q-14 6 -15 22q0 43 73 111t167 68q78 0 132 -56.5t54 -134.5q0 -14 -2 -27.5t-6 -26.5t-8 -22.5t-12 -23t-12.5 -19.5t-14.5 -22.5t-14 -20.5q-20 -31 -66.5 -77t-89.5 -84.5t-47 -43.5q-6 -6 5 -9t20 -3h141q45 0 87 28t65 75q8 20 30 16 q12 0 6 -18q-41 -115 -55 -187q-2 -12 -6 -19t-9 -7h-9q-104 6 -173 6q-147 0 -251 -4q-7 -1 -9 7q-3 13 9 25l79 82l27 26l47 44q22 20 51 54t50.5 64.5t37 66.5t15.5 67q2 57 -33 95t-84 38q-55 0 -87 -15.5t-75 -62.5zM248 -23l844 1330q23 35 79 34q12 0 22.5 -12 t4.5 -22l-844 -1330q-18 -31 -73 -30q-14 0 -27.5 10t-5.5 20zM315 1282q16 8 25.5 0t7.5 -25q-8 -57 -8 -143q-2 -254 0 -389q2 -57 17.5 -70.5t84.5 -23.5q16 -2 22.5 -14.5t0.5 -24.5t-23 -12q-66 0 -103.5 5t-64 5t-66.5 -5t-102 -5q-12 0 -18 12t-2 25.5t20 13.5 q35 2 54.5 7t38 26.5t18.5 60.5v313q0 57 -111 97q-25 10 -21.5 31.5t19.5 23.5q37 4 74 17.5t61.5 27.5t48 29.5t27.5 17.5z" />
<glyph unicode="&#xbe;" horiz-adv-x="1312" d="M401 1122q0 31 -34.5 54.5t-65.5 21.5q-74 -4 -143 -61q-14 -14 -21 -13q-18 10 -12 23q76 147 211 147q180 -4 180 -145q0 -76 -121 -137q-6 -4 -6 -7.5t6 -3.5q66 -2 104 -55t38 -125q0 -115 -96.5 -187.5t-192.5 -72.5q-78 0 -117 25q-23 14 -22 43q0 14 12 35.5 t24 21.5q16 0 27 -10q68 -45 137 -45q35 0 78 35.5t43 113.5q0 61 -40 108.5t-97 47.5q-23 0 -76 -14q-6 -2 -15 1t-13.5 10t-0.5 11q18 18 55.5 31.5t45.5 19.5l29 19q20 12 28 18t21.5 17.5t18.5 20.5t10 22.5t5 29.5zM248 -23l844 1330q23 35 79 34q12 0 22.5 -12 t4.5 -22l-844 -1330q-18 -31 -73 -30q-14 0 -27.5 10t-5.5 20zM1028 303q16 0 16 10v228q0 4 -4 4t-8 -2q-80 -88 -190 -230q-6 -10 0 -10h186zM715 223l57 76l211 260q25 31 119 133q23 23 31 25q6 2 10 -4t4 -13q0 -240 4 -391q0 -8 6 -8q39 -2 121 2q16 0 14 -12 q-10 -72 -26 -72h-99q-16 -6 -16 -8v-172q0 -20 -38 -39.5t-50 -19.5q-18 0 -19 16v209q0 10 -18 10q-53 0 -146.5 -4t-152.5 -4q-6 0 -11 6t-1 10z" />
<glyph unicode="&#xbf;" horiz-adv-x="727" d="M477 766q-51 0 -87 36t-36 87t36 87t87 36t87 -36t36 -87t-36 -87t-87 -36zM559 -371q-119 0 -221 103q-84 84 -141.5 202.5t-57.5 198.5q0 70 28 123t62 72q113 61 185 108q41 27 50 50.5t11 78.5q0 47 31 47q10 0 24.5 -17t20.5 -42q27 -102 33 -170q4 -51 -45.5 -93 t-161.5 -100q-49 -25 -87 -64.5t-38 -80.5q0 -104 53 -168.5t154 -66.5q20 0 49 4t47 4q33 0 59.5 -37t26.5 -78q0 -29 -27.5 -51.5t-54.5 -22.5z" />
<glyph unicode="&#xc0;" horiz-adv-x="1400" d="M885 1444q-153 43 -385 100q-66 14 -66 53q3 61 72 95q46 23 106 -11q135 -69 336 -196q16 -10 17.5 -26.5t-11.5 -18.5q-23 -6 -69 4zM365 209q-16 -53 18.5 -93t95.5 -55q68 -18 68 -40.5t-60 -22.5q-10 0 -89 2t-128 2q-43 0 -113.5 -6t-101.5 -6q-59 0 -59 26 q0 25 67 47q123 37 177 158q197 451 383 963l20 61q2 8 3 22.5t2 25t3 10.5q55 18 74 30q13 7 21 21l13 22q5 8 9 8q10 0 20 -28l365 -1094q39 -113 86 -152.5t121 -52.5q68 -12 67 -47q0 -20 -59 -20q-23 0 -99.5 6t-123.5 6q-61 2 -157.5 0t-106.5 -2q-59 0 -59.5 22.5 t67.5 40.5q78 20 94 51t2 101q-35 166 -59 262q-6 23 -58 23h-391q-25 0 -35 -37zM682 1110l-184 -492q-8 -20 1 -25t38 -5h317q23 0 27 5t-2 25l-162 490q-8 27 -13.5 33t-9.5 0t-12 -31z" />
<glyph unicode="&#xc1;" horiz-adv-x="1400" d="M565 1444q-46 -10 -70 -4q-13 3 -11.5 18.5t18.5 26.5q200 128 335 196q60 33 107 11q69 -33 72 -95q0 -39 -66 -53q-232 -57 -385 -100zM365 209q-16 -53 18.5 -93t95.5 -55q68 -18 68 -40.5t-60 -22.5q-10 0 -89 2t-128 2q-43 0 -113.5 -6t-101.5 -6q-59 0 -59 26 q0 25 67 47q123 37 177 158q197 451 383 963l20 61q2 8 3 22.5t2 25t3 10.5q55 18 74 30q13 7 21 21l13 22q5 8 9 8q10 0 20 -28l365 -1094q39 -113 86 -152.5t121 -52.5q68 -12 67 -47q0 -20 -59 -20q-23 0 -99.5 6t-123.5 6q-61 2 -157.5 0t-106.5 -2q-59 0 -59.5 22.5 t67.5 40.5q78 20 94 51t2 101q-35 166 -59 262q-6 23 -58 23h-391q-25 0 -35 -37zM682 1110l-184 -492q-8 -20 1 -25t38 -5h317q23 0 27 5t-2 25l-162 490q-8 27 -13.5 33t-9.5 0t-12 -31z" />
<glyph unicode="&#xc2;" horiz-adv-x="1400" d="M764 1563q-17 11 -20.5 10.5t-20.5 -10.5q-136 -79 -162 -93q-63 -37 -107 -36q-23 0 -28.5 14.5t12.5 30.5l221 180q3 3 11 9l10 8l10 7q6 5 8 6t7 4.5t7.5 4t6.5 2.5t7.5 2.5t8 1t8.5 0.5q15 0 28.5 -6t20.5 -11t35 -28l221 -180q18 -15 12.5 -31t-28.5 -16 q-19 0 -72 30l-109 56q-60 30 -87 45zM365 209q-16 -53 18.5 -93t95.5 -55q68 -18 68 -40.5t-60 -22.5q-10 0 -89 2t-128 2q-43 0 -113.5 -6t-101.5 -6q-59 0 -59 26q0 25 67 47q123 37 177 158q197 451 383 963l20 61q2 8 3 22.5t2 25t3 10.5q55 18 74 30q13 7 21 21l13 22 q5 8 9 8q10 0 20 -28l365 -1094q39 -113 86 -152.5t121 -52.5q68 -12 67 -47q0 -20 -59 -20q-23 0 -99.5 6t-123.5 6q-61 2 -157.5 0t-106.5 -2q-59 0 -59.5 22.5t67.5 40.5q78 20 94 51t2 101q-35 166 -59 262q-6 23 -58 23h-391q-25 0 -35 -37zM682 1110l-184 -492 q-8 -20 1 -25t38 -5h317q23 0 27 5t-2 25l-162 490q-8 27 -13.5 33t-9.5 0t-12 -31z" />
<glyph unicode="&#xc3;" horiz-adv-x="1400" d="M416 1511q39 55 97 106.5t81 51.5q26 0 161 -8t160 -8q24 0 58 21.5t59 54.5q5 7 16 -0.5t19 -19.5t4 -17q-33 -48 -90 -108t-78 -60q-26 0 -166 8t-166 8q-23 0 -55.5 -19t-56.5 -46q-8 -8 -28.5 9.5t-14.5 26.5zM365 209q-16 -53 18.5 -93t95.5 -55q68 -18 68 -40.5 t-60 -22.5q-10 0 -89 2t-128 2q-43 0 -113.5 -6t-101.5 -6q-59 0 -59 26q0 25 67 47q123 37 177 158q197 451 383 963l20 61q2 8 3 22.5t2 25t3 10.5q55 18 74 30q13 7 21 21l13 22q5 8 9 8q10 0 20 -28l365 -1094q39 -113 86 -152.5t121 -52.5q68 -12 67 -47q0 -20 -59 -20 q-23 0 -99.5 6t-123.5 6q-61 2 -157.5 0t-106.5 -2q-59 0 -59.5 22.5t67.5 40.5q78 20 94 51t2 101q-35 166 -59 262q-6 23 -58 23h-391q-25 0 -35 -37zM682 1110l-184 -492q-8 -20 1 -25t38 -5h317q23 0 27 5t-2 25l-162 490q-8 27 -13.5 33t-9.5 0t-12 -31z" />
<glyph unicode="&#xc4;" horiz-adv-x="1400" d="M938 1659q46 0 79 -33.5t33 -79.5t-33 -79t-79 -33t-79.5 33t-33.5 79t33.5 79.5t79.5 33.5zM549 1659q46 0 79 -33.5t33 -79.5t-33 -79t-79 -33t-79.5 33t-33.5 79t33.5 79.5t79.5 33.5zM365 209q-16 -53 18.5 -93t95.5 -55q68 -18 68 -40.5t-60 -22.5q-10 0 -89 2 t-128 2q-43 0 -113.5 -6t-101.5 -6q-59 0 -59 26q0 25 67 47q123 37 177 158q197 451 383 963l20 61q2 8 3 22.5t2 25t3 10.5q55 18 74 30q13 7 21 21l13 22q5 8 9 8q10 0 20 -28l365 -1094q39 -113 86 -152.5t121 -52.5q68 -12 67 -47q0 -20 -59 -20q-23 0 -99.5 6 t-123.5 6q-61 2 -157.5 0t-106.5 -2q-59 0 -59.5 22.5t67.5 40.5q78 20 94 51t2 101q-35 166 -59 262q-6 23 -58 23h-391q-25 0 -35 -37zM682 1110l-184 -492q-8 -20 1 -25t38 -5h317q23 0 27 5t-2 25l-162 490q-8 27 -13.5 33t-9.5 0t-12 -31z" />
<glyph unicode="&#xc5;" horiz-adv-x="1400" d="M745 1769q76 0 125 -42.5t49 -114.5q0 -76 -56 -127t-134 -51q-72 0 -123 43.5t-51 117.5t56.5 124t133.5 50zM633 1602q0 -50 33 -86.5t81 -36.5q42 0 68.5 38t26.5 85q0 49 -32 84.5t-79 35.5q-44 0 -71 -36.5t-27 -83.5zM365 209q-16 -53 18.5 -93t95.5 -55 q68 -18 68 -40.5t-60 -22.5q-10 0 -89 2t-128 2q-43 0 -113.5 -6t-101.5 -6q-59 0 -59 26q0 25 67 47q123 37 177 158q197 451 383 963l20 61q2 8 3 22.5t2 25t3 10.5q55 18 74 30q13 7 21 21l13 22q5 8 9 8q10 0 20 -28l365 -1094q39 -113 86 -152.5t121 -52.5 q68 -12 67 -47q0 -20 -59 -20q-23 0 -99.5 6t-123.5 6q-61 2 -157.5 0t-106.5 -2q-59 0 -59.5 22.5t67.5 40.5q78 20 94 51t2 101q-35 166 -59 262q-6 23 -58 23h-391q-25 0 -35 -37zM682 1110l-184 -492q-8 -20 1 -25t38 -5h317q23 0 27 5t-2 25l-162 490q-8 27 -13.5 33 t-9.5 0t-12 -31z" />
<glyph unicode="&#xc6;" horiz-adv-x="1773" d="M930 547q0 18 -8.5 27.5t-36.5 9.5h-289q-37 0 -61 -47q-74 -125 -168 -308q-63 -125 114 -168q68 -18 68 -40.5t-60 -22.5q-8 0 -87.5 3t-131.5 1q-43 0 -116.5 -6t-104.5 -6q-59 0 -59 22q0 25 67 45q51 14 110.5 70.5t102.5 130.5l559 959q8 12 -3 22t-31 12l-181 31 q-16 6 -20 18.5t3 22.5t17 10q37 0 160 -3t199 -3q107 0 255 3l252 5q104 2 126 2q35 0 36 -18q23 -119 25 -211q0 -18 -29 -18q-16 0 -22 20q-25 74 -47 100q-49 55 -137 56h-269q-16 0 -31.5 -17.5t-19.5 -36.5q-12 -59 -16 -147q-6 -147 -6 -340q0 -45 20 -45 q115 0 213 4q66 4 90 27q23 20 35 49q4 8 17.5 21.5t19.5 13.5q8 0 18 -10.5t8 -22.5q-10 -102 0 -270q0 -35 -18 -35q-33 0 -47 47q-25 76 -96 80q-86 4 -211 4q-51 0 -49 -51q0 -131 6 -306q2 -70 32.5 -114.5t96.5 -44.5h213q16 0 77.5 12t77.5 25q39 31 86 129 q10 20 29 20q12 -2 20.5 -8t6.5 -17q-12 -119 -35 -208q-8 -35 -29 -35q-127 0 -343 7t-320 5q-43 0 -111 -6t-125 -6q-59 0 -59 22q0 25 67 37q82 14 119 48t35 106q-4 225 -4 344zM897 1190l-279 -488q-12 -20 -7 -25t32 -5h254q25 0 29 4t4 26v486q0 37 -6 37 q-9 0 -27 -35z" />
<glyph unicode="&#xc7;" horiz-adv-x="1361" d="M840 1358q143 0 217 -25q20 -6 80.5 -19.5t74.5 -17.5q23 -6 27 -61q14 -111 16 -223q2 -16 -3 -32.5t-19 -14.5q-16 2 -22.5 14t-12.5 49q-10 90 -90 162q-27 27 -111 57.5t-206 30.5q-215 0 -353.5 -178t-138.5 -416q0 -252 147.5 -442.5t378.5 -190.5q119 0 254 76 q94 55 121 154q4 10 14.5 18t22.5 13t14 7q10 7 15 -14q5 -20 2 -39q-6 -39 -34 -107.5t-50 -103.5q-4 -6 -11.5 -11t-15.5 -8t-26.5 -11.5t-30.5 -14.5q-57 -27 -221 -39l-56 -82q-14 -18 21 -32q53 -23 94 -70t41 -113q0 -96 -92 -166.5t-172 -70.5q-59 0 -78 26 q-23 29 -4 84q10 33 29 23q57 -25 122 -25q33 0 59.5 19.5t26.5 60.5q0 100 -96 107q-45 0 -55 -2q-33 -4 -47 20q-12 20 8 45l129 174h-53q-270 0 -462 195.5t-192 470.5q0 301 217.5 512t520.5 211z" />
<glyph unicode="&#xc8;" horiz-adv-x="1107" d="M698 1444q-153 43 -385 100q-66 14 -65 53q3 61 71 95q46 23 107 -11q135 -69 336 -196q16 -10 17.5 -26.5t-11.5 -18.5q-24 -6 -70 4zM442 766q0 -45 21 -45h213q57 0 90 31q23 20 35 49q4 8 17 21.5t20 13.5q8 0 18 -10.5t8 -22.5q-8 -96 0 -252q0 -35 -18 -35 q-33 0 -47 47q-23 72 -97 80q-129 18 -210 4q-51 -10 -50 -51q0 -51 7 -365q2 -80 31.5 -119.5t97.5 -39.5h213q16 0 77.5 12t77.5 25q39 31 86 129q10 23 29 20q12 0 20.5 -7t5.5 -18q-12 -119 -34 -208q-8 -35 -29 -35q-137 0 -355 6t-315 6q-43 0 -110.5 -6t-124.5 -6 q-59 0 -60 22q0 25 68 37q80 14 116 48t36 106v921q0 72 -30 104t-108 46q-68 12 -67 41q0 23 59 22q47 0 211 -4q141 -4 372.5 0t241.5 4q35 0 37 -18q23 -119 25 -211q0 -18 -29 -18q-16 0 -22 20q-25 74 -47 100q-49 55 -138 56h-268q-18 0 -40.5 -19.5t-24.5 -42.5 q-9 -65 -9 -438z" />
<glyph unicode="&#xc9;" horiz-adv-x="1107" d="M379 1444q-46 -10 -70 -4q-13 3 -11.5 18.5t17.5 26.5q200 128 336 196q60 33 107 11q69 -33 71 -95q0 -39 -65 -53q-232 -57 -385 -100zM442 766q0 -45 21 -45h213q57 0 90 31q23 20 35 49q4 8 17 21.5t20 13.5q8 0 18 -10.5t8 -22.5q-8 -96 0 -252q0 -35 -18 -35 q-33 0 -47 47q-23 72 -97 80q-129 18 -210 4q-51 -10 -50 -51q0 -51 7 -365q2 -80 31.5 -119.5t97.5 -39.5h213q16 0 77.5 12t77.5 25q39 31 86 129q10 23 29 20q12 0 20.5 -7t5.5 -18q-12 -119 -34 -208q-8 -35 -29 -35q-137 0 -355 6t-315 6q-43 0 -110.5 -6t-124.5 -6 q-59 0 -60 22q0 25 68 37q80 14 116 48t36 106v921q0 72 -30 104t-108 46q-68 12 -67 41q0 23 59 22q47 0 211 -4q141 -4 372.5 0t241.5 4q35 0 37 -18q23 -119 25 -211q0 -18 -29 -18q-16 0 -22 20q-25 74 -47 100q-49 55 -138 56h-268q-18 0 -40.5 -19.5t-24.5 -42.5 q-9 -65 -9 -438z" />
<glyph unicode="&#xca;" horiz-adv-x="1107" d="M577 1563q-17 11 -20.5 10.5t-20.5 -10.5l-161 -93q-63 -37 -107 -36q-23 0 -28.5 14.5t12.5 30.5l221 180q3 3 11 9l10 8l9 7q6 5 8.5 6t7.5 4.5t7.5 4t6.5 2.5t7.5 2.5t7.5 1t9 0.5q15 0 29 -6t20 -11l35 -28l221 -180q18 -15 12.5 -31t-28.5 -16q-19 0 -72 30l-110 56 q-60 30 -87 45zM442 766q0 -45 21 -45h213q57 0 90 31q23 20 35 49q4 8 17 21.5t20 13.5q8 0 18 -10.5t8 -22.5q-8 -96 0 -252q0 -35 -18 -35q-33 0 -47 47q-23 72 -97 80q-129 18 -210 4q-51 -10 -50 -51q0 -51 7 -365q2 -80 31.5 -119.5t97.5 -39.5h213q16 0 77.5 12 t77.5 25q39 31 86 129q10 23 29 20q12 0 20.5 -7t5.5 -18q-12 -119 -34 -208q-8 -35 -29 -35q-137 0 -355 6t-315 6q-43 0 -110.5 -6t-124.5 -6q-59 0 -60 22q0 25 68 37q80 14 116 48t36 106v921q0 72 -30 104t-108 46q-68 12 -67 41q0 23 59 22q47 0 211 -4 q141 -4 372.5 0t241.5 4q35 0 37 -18q23 -119 25 -211q0 -18 -29 -18q-16 0 -22 20q-25 74 -47 100q-49 55 -138 56h-268q-18 0 -40.5 -19.5t-24.5 -42.5q-9 -65 -9 -438z" />
<glyph unicode="&#xcb;" horiz-adv-x="1107" d="M751.5 1659q46.5 0 79.5 -33.5t33 -79.5t-33 -79t-79.5 -33t-79.5 33t-33 79t33 79.5t79.5 33.5zM362 1659q46 0 79.5 -33.5t33.5 -79.5t-33.5 -79t-79.5 -33t-79 33t-33 79t33 79.5t79 33.5zM442 766q0 -45 21 -45h213q57 0 90 31q23 20 35 49q4 8 17 21.5t20 13.5 q8 0 18 -10.5t8 -22.5q-8 -96 0 -252q0 -35 -18 -35q-33 0 -47 47q-23 72 -97 80q-129 18 -210 4q-51 -10 -50 -51q0 -51 7 -365q2 -80 31.5 -119.5t97.5 -39.5h213q16 0 77.5 12t77.5 25q39 31 86 129q10 23 29 20q12 0 20.5 -7t5.5 -18q-12 -119 -34 -208q-8 -35 -29 -35 q-137 0 -355 6t-315 6q-43 0 -110.5 -6t-124.5 -6q-59 0 -60 22q0 25 68 37q80 14 116 48t36 106v921q0 72 -30 104t-108 46q-68 12 -67 41q0 23 59 22q47 0 211 -4q141 -4 372.5 0t241.5 4q35 0 37 -18q23 -119 25 -211q0 -18 -29 -18q-16 0 -22 20q-25 74 -47 100 q-49 55 -138 56h-268q-18 0 -40.5 -19.5t-24.5 -42.5q-9 -65 -9 -438z" />
<glyph unicode="&#xcc;" horiz-adv-x="784" d="M512 1444q-153 43 -385 100q-66 14 -66 53q3 61 72 95q46 23 107 -11q135 -69 335 -196q16 -10 17.5 -26.5t-10.5 -18.5q-24 -6 -70 4zM309 1126q0 72 -29.5 103t-107.5 45q-68 12 -68 41q0 23 60 22q57 0 125.5 -3t113.5 -3q41 0 103.5 3t120.5 3q59 0 59 -22 q0 -29 -68 -41q-80 -14 -112.5 -46t-32.5 -102v-925q0 -70 40 -104t122 -48q68 -12 67 -37q0 -23 -59 -22q-57 0 -125.5 5t-114.5 5q-51 0 -128.5 -5t-133.5 -5q-59 0 -59 22q0 25 68 37q82 14 120.5 48t38.5 104v925z" />
<glyph unicode="&#xcd;" horiz-adv-x="784" d="M192 1444q-46 -10 -69 -4q-13 3 -11.5 18.5t17.5 26.5q200 128 336 196q60 33 106 11q69 -33 72 -95q0 -39 -66 -53q-232 -57 -385 -100zM309 1126q0 72 -29.5 103t-107.5 45q-68 12 -68 41q0 23 60 22q57 0 125.5 -3t113.5 -3q41 0 103.5 3t120.5 3q59 0 59 -22 q0 -29 -68 -41q-80 -14 -112.5 -46t-32.5 -102v-925q0 -70 40 -104t122 -48q68 -12 67 -37q0 -23 -59 -22q-57 0 -125.5 5t-114.5 5q-51 0 -128.5 -5t-133.5 -5q-59 0 -59 22q0 25 68 37q82 14 120.5 48t38.5 104v925z" />
<glyph unicode="&#xce;" horiz-adv-x="784" d="M391 1563q-17 11 -20.5 10.5t-20.5 -10.5q-136 -79 -162 -93q-63 -37 -106 -36q-23 0 -29 14.5t12 30.5l222 180q3 3 11 9l10 8l9 7q6 5 8 6t7 4.5t7.5 4t7 2.5t7.5 2.5t7.5 1t9.5 0.5q15 0 29 -6t20 -11l35 -28l221 -180q18 -15 12.5 -31t-29.5 -16q-19 0 -71 30 l-110 56q-60 30 -87 45zM309 1126q0 72 -29.5 103t-107.5 45q-68 12 -68 41q0 23 60 22q57 0 125.5 -3t113.5 -3q41 0 103.5 3t120.5 3q59 0 59 -22q0 -29 -68 -41q-80 -14 -112.5 -46t-32.5 -102v-925q0 -70 40 -104t122 -48q68 -12 67 -37q0 -23 -59 -22q-57 0 -125.5 5 t-114.5 5q-51 0 -128.5 -5t-133.5 -5q-59 0 -59 22q0 25 68 37q82 14 120.5 48t38.5 104v925z" />
<glyph unicode="&#xcf;" horiz-adv-x="784" d="M565 1659q46 0 79.5 -33.5t33.5 -79.5t-33.5 -79t-79.5 -33t-79 33t-33 79t33 79.5t79 33.5zM176 1659q46 0 79.5 -33.5t33.5 -79.5t-33.5 -79t-79.5 -33t-79.5 33t-33.5 79t33.5 79.5t79.5 33.5zM309 1126q0 72 -29.5 103t-107.5 45q-68 12 -68 41q0 23 60 22 q57 0 125.5 -3t113.5 -3q41 0 103.5 3t120.5 3q59 0 59 -22q0 -29 -68 -41q-80 -14 -112.5 -46t-32.5 -102v-925q0 -70 40 -104t122 -48q68 -12 67 -37q0 -23 -59 -22q-57 0 -125.5 5t-114.5 5q-51 0 -128.5 -5t-133.5 -5q-59 0 -59 22q0 25 68 37q82 14 120.5 48t38.5 104 v925z" />
<glyph unicode="&#xd0;" horiz-adv-x="1544" d="M143 723h629q12 0 21.5 -9t5.5 -20q-25 -45 -64 -45h-612q-12 0 -20.5 12.5t-8.5 24.5q0 14 15.5 25.5t33.5 11.5zM340 0q-41 0 -102.5 -5t-118.5 -5q-59 0 -60 22q0 25 68 37q78 14 107.5 47t29.5 107v921q0 72 -29.5 104t-107.5 46q-68 12 -68 41q0 23 59.5 22.5 t117 -2.5t96.5 -2q43 -2 192.5 7.5t171.5 9.5q397 0 571.5 -173t174.5 -491q0 -289 -195.5 -494.5t-486.5 -205.5q-8 0 -166 7t-254 7zM1247 709q0 246 -151.5 411.5t-388.5 165.5q-66 0 -99 -1t-73.5 -7t-59 -19.5t-32 -37t-13.5 -60.5v-913q0 -57 17.5 -87t54.5 -59 q31 -23 65.5 -33t57 -11t73 1t72.5 2q150 0 261.5 98.5t163.5 243t52 306.5z" />
<glyph unicode="&#xd1;" horiz-adv-x="1617" d="M532 1511q39 55 97.5 106.5t81.5 51.5q27 0 162 -8t159 -8q57 0 117 76q4 6 15.5 -1.5t19.5 -18.5t4 -17q-33 -47 -90.5 -107.5t-77.5 -60.5q-25 0 -166 8t-166 8q-55 0 -113 -65q-8 -8 -28.5 10t-14.5 26zM1380 1163q-4 -98 -4 -1147q0 -51 -43 -51q-23 0 -72 34t-94 95 q-59 82 -729 897q-25 31 -39 31t-17 -10.5t-5 -30.5q-25 -268 -29 -768q-2 -139 131 -163q68 -12 68 -38q0 -23 -59.5 -22.5t-109.5 5.5t-83 5q-31 0 -79 -5t-107.5 -5t-59.5 22q0 25 68 38q49 10 81.5 70t37.5 99q10 88 59 813q6 96 -41 148q-51 53 -166 90q-63 20 -63 49 t47 29q63 -2 148 -6.5t167 -4.5q25 0 49 -34q26 -37 384 -487l397 -497q68 -82 71 3q4 63 5 412t-1 421q-2 37 -42 72t-76 41q-68 12 -68 41q0 23 59 22h164q27 0 76 3t113 3q59 0 59 -22q0 -29 -68 -41q-76 -14 -101.5 -37t-27.5 -74z" />
<glyph unicode="&#xd2;" horiz-adv-x="1562" d="M913 1444q-154 43 -385 100q-66 14 -65 53q2 61 72 95q47 23 106 -11q135 -70 336 -196q16 -10 17 -26.5t-11 -18.5q-25 -6 -70 4zM768 1280q-217 0 -347 -168t-130 -395q0 -270 148.5 -468t369.5 -198q225 0 344 152.5t119 421.5q0 299 -131 477t-373 178zM92 655 q0 291 183.5 494t506.5 211q281 6 484.5 -184.5t203.5 -489.5q0 -139 -45 -267t-130 -228.5t-218 -160t-295 -59.5q-276 0 -483 198.5t-207 485.5z" />
<glyph unicode="&#xd3;" horiz-adv-x="1562" d="M594 1444q-45 -10 -70 -4q-12 2 -11 18.5t17 26.5q201 127 336 196q59 33 107 11q70 -33 71 -95q0 -39 -65 -53q-231 -57 -385 -100zM768 1280q-217 0 -347 -168t-130 -395q0 -270 148.5 -468t369.5 -198q225 0 344 152.5t119 421.5q0 299 -131 477t-373 178zM92 655 q0 291 183.5 494t506.5 211q281 6 484.5 -184.5t203.5 -489.5q0 -139 -45 -267t-130 -228.5t-218 -160t-295 -59.5q-276 0 -483 198.5t-207 485.5z" />
<glyph unicode="&#xd4;" horiz-adv-x="1562" d="M793 1563q-16 10 -20.5 10t-20.5 -10l-162 -93q-63 -37 -107 -36q-23 0 -28.5 14t12.5 31l221 180q63 43 84 45q14 0 28.5 -6t20.5 -11.5t35 -27.5l221 -180q18 -16 12 -31.5t-28 -15.5q-18 0 -72 30q-49 27 -109 56t-87 45zM768 1280q-217 0 -347 -168t-130 -395 q0 -270 148.5 -468t369.5 -198q225 0 344 152.5t119 421.5q0 299 -131 477t-373 178zM92 655q0 291 183.5 494t506.5 211q281 6 484.5 -184.5t203.5 -489.5q0 -139 -45 -267t-130 -228.5t-218 -160t-295 -59.5q-276 0 -483 198.5t-207 485.5z" />
<glyph unicode="&#xd5;" horiz-adv-x="1562" d="M444 1511q39 55 97.5 106.5t81.5 51.5q25 0 160 -8t161 -8q57 0 117 76q4 6 15 -1.5t19.5 -18.5t4.5 -17q-33 -47 -90.5 -107.5t-77.5 -60.5q-27 0 -166 8t-166 8q-55 0 -113 -65q-8 -8 -28.5 10t-14.5 26zM768 1280q-217 0 -347 -168t-130 -395q0 -270 148.5 -468 t369.5 -198q225 0 344 152.5t119 421.5q0 299 -131 477t-373 178zM92 655q0 291 183.5 494t506.5 211q281 6 484.5 -184.5t203.5 -489.5q0 -139 -45 -267t-130 -228.5t-218 -160t-295 -59.5q-276 0 -483 198.5t-207 485.5z" />
<glyph unicode="&#xd6;" horiz-adv-x="1562" d="M967 1659q45 0 78.5 -33t33.5 -80t-33.5 -79.5t-78.5 -32.5t-79 32.5t-34 79.5t34 80t79 33zM577.5 1659q45.5 0 79 -33t33.5 -80t-33.5 -79.5t-79 -32.5t-79 32.5t-33.5 79.5t33.5 80t79 33zM768 1280q-217 0 -347 -168t-130 -395q0 -270 148.5 -468t369.5 -198 q225 0 344 152.5t119 421.5q0 299 -131 477t-373 178zM92 655q0 291 183.5 494t506.5 211q281 6 484.5 -184.5t203.5 -489.5q0 -139 -45 -267t-130 -228.5t-218 -160t-295 -59.5q-276 0 -483 198.5t-207 485.5z" />
<glyph unicode="&#xd7;" horiz-adv-x="1228" d="M594 612q8 -8 14 -2l295 293q8 10 20.5 10t18.5 -10q2 -6 10.5 -19.5t11.5 -20.5l8 -19q5 -12 5 -19.5t-3 -16.5t-11 -17l-269 -269q-6 -6 0 -10l293 -293q20 -20 2 -54t-36.5 -50.5t-37.5 2.5l-305 307q-8 6 -14 0l-293 -293q-8 -8 -19.5 -8t-17.5 6q-10 10 -21.5 25.5 t-21.5 41t8 37.5l275 275q10 8 -2 20l-248 248q-16 14 -9 41t15 45.5t17 26.5q20 20 38 0z" />
<glyph unicode="&#xd8;" horiz-adv-x="1583" d="M778 1280q-217 0 -347 -168t-130 -395q0 -215 96 -389l766 755q-133 197 -385 197zM102 655q0 291 183.5 494t507.5 211q274 6 475 -174l164 162q10 10 27.5 8t21.5 -17q14 -45 -8 -67l-148 -148q156 -182 156 -438q0 -139 -45 -267t-130 -228.5t-218.5 -160 t-294.5 -59.5q-254 0 -453 170l-164 -164q-18 -12 -42.5 -0.5t-31.5 23.5q-12 23 19 53l153 152q-172 192 -172 450zM1206 1008l-757 -758q152 -199 370 -199q225 0 344 152.5t119 421.5q0 229 -76 383z" />
<glyph unicode="&#xd9;" horiz-adv-x="1511" d="M926 1444q-153 43 -385 100q-66 14 -65 53q3 61 72 95q46 23 106 -11q135 -69 336 -196q16 -10 17.5 -26.5t-11.5 -18.5q-24 -6 -70 4zM1321 1120q-2 -33 -21 -600q-8 -240 -154.5 -394.5t-367.5 -154.5q-283 0 -425 187.5t-142 500.5v461q0 123 -94 150q-68 18 -68 45 q0 23 60 22q29 0 93 -3t103 -3q35 0 90.5 2t73.5 2q59 0 59 -22q0 -18 -67 -41q-29 -8 -57.5 -50t-28.5 -98v-522q0 -211 127 -369.5t323 -158.5q190 0 288.5 146.5t98.5 393.5q0 117 -8 433q-4 201 -84 223q-68 18 -67.5 40.5t59.5 22.5q31 0 78 -1t76 -1q35 0 90 3t76 3 q59 0 59 -22q0 -27 -68 -41q-96 -19 -102 -154z" />
<glyph unicode="&#xda;" horiz-adv-x="1511" d="M607 1444q-46 -10 -70 -4q-13 3 -11.5 18.5t17.5 26.5q200 128 336 196q60 33 107 11q69 -33 72 -95q0 -39 -66 -53q-232 -57 -385 -100zM1321 1120q-2 -33 -21 -600q-8 -240 -154.5 -394.5t-367.5 -154.5q-283 0 -425 187.5t-142 500.5v461q0 123 -94 150q-68 18 -68 45 q0 23 60 22q29 0 93 -3t103 -3q35 0 90.5 2t73.5 2q59 0 59 -22q0 -18 -67 -41q-29 -8 -57.5 -50t-28.5 -98v-522q0 -211 127 -369.5t323 -158.5q190 0 288.5 146.5t98.5 393.5q0 117 -8 433q-4 201 -84 223q-68 18 -67.5 40.5t59.5 22.5q31 0 78 -1t76 -1q35 0 90 3t76 3 q59 0 59 -22q0 -27 -68 -41q-96 -19 -102 -154z" />
<glyph unicode="&#xdb;" horiz-adv-x="1511" d="M806 1563q-17 11 -20.5 10.5t-20.5 -10.5q-136 -79 -162 -93q-63 -37 -107 -36q-23 0 -28.5 14.5t12.5 30.5l221 180q3 3 11 9l10 8l10 7q6 5 8 6t7 4.5t7.5 4t6.5 2.5t7.5 2.5t8 1t8.5 0.5q15 0 29 -6t20 -11l35 -28l221 -180q18 -15 12.5 -31t-28.5 -16q-19 0 -72 30 l-109 56q-60 30 -87 45zM1321 1120q-2 -33 -21 -600q-8 -240 -154.5 -394.5t-367.5 -154.5q-283 0 -425 187.5t-142 500.5v461q0 123 -94 150q-68 18 -68 45q0 23 60 22q29 0 93 -3t103 -3q35 0 90.5 2t73.5 2q59 0 59 -22q0 -18 -67 -41q-29 -8 -57.5 -50t-28.5 -98v-522 q0 -211 127 -369.5t323 -158.5q190 0 288.5 146.5t98.5 393.5q0 117 -8 433q-4 201 -84 223q-68 18 -67.5 40.5t59.5 22.5q31 0 78 -1t76 -1q35 0 90 3t76 3q59 0 59 -22q0 -27 -68 -41q-96 -19 -102 -154z" />
<glyph unicode="&#xdc;" horiz-adv-x="1511" d="M979 1659q45 0 79 -33t34 -80t-34 -79.5t-79 -32.5t-79 32.5t-34 79.5t34 80t79 33zM590 1659q45 0 78.5 -33t33.5 -80t-33.5 -79.5t-78.5 -32.5t-79 32.5t-34 79.5t34 80t79 33zM1321 1120q-2 -33 -21 -600q-8 -240 -154.5 -394.5t-367.5 -154.5q-283 0 -425 187.5 t-142 500.5v461q0 123 -94 150q-68 18 -68 45q0 23 60 22q29 0 93 -3t103 -3q35 0 90.5 2t73.5 2q59 0 59 -22q0 -18 -67 -41q-29 -8 -57.5 -50t-28.5 -98v-522q0 -211 127 -369.5t323 -158.5q190 0 288.5 146.5t98.5 393.5q0 117 -8 433q-4 201 -84 223q-68 18 -67.5 40.5 t59.5 22.5q31 0 78 -1t76 -1q35 0 90 3t76 3q59 0 59 -22q0 -27 -68 -41q-96 -19 -102 -154z" />
<glyph unicode="&#xdd;" horiz-adv-x="1183" d="M466 1444q-46 -10 -69 -4q-13 3 -12 18.5t18 26.5q200 128 336 196q60 33 106 11q69 -33 72 -95q0 -39 -66 -53q-232 -57 -385 -100zM541 221v303q0 23 -4.5 44.5t-11.5 40t-13 29.5t-14.5 23.5t-8.5 14.5l-239 393q-113 180 -182 201q-68 20 -68 45q0 23 59 22 q27 0 108 -3t132 -3q35 0 90 2t74 2q59 0 59 -22q0 -18 -67 -41q-20 -6 -34.5 -18.5t-23 -40t18.5 -66.5l188 -338q12 -20 17.5 -28.5t12.5 -22t11 -15.5t9 -9t10.5 -2t8.5 4t10 10.5t11 15.5t16.5 20.5t18.5 26.5q119 166 172 285q25 53 10.5 108t-57.5 68q-68 18 -68 40.5 t60 22.5q31 0 78 -1t75 -1q41 0 109 3t88 3q59 0 59 -22q0 -27 -67 -41q-82 -16 -205 -197q-109 -166 -227 -368q-37 -63 -44 -92t-7 -93v-303q0 -70 41.5 -114t119.5 -58q68 -12 68 -37q0 -23 -60 -22q-57 0 -125.5 5t-113.5 5q-49 0 -127 -5t-135 -5q-59 0 -60 22 q0 25 68 37q160 29 160 172z" />
<glyph unicode="&#xde;" horiz-adv-x="1144" d="M274 203v921q0 68 -22.5 103t-93.5 47q-68 12 -68 41q0 23 59.5 22.5t117 -3.5t95.5 -3q45 0 116 3t128 3q59 0 60 -22q0 -29 -68 -41q-82 -14 -121 -47t-39 -103v-22q0 -8 2 -23.5t8.5 -21.5t16.5 -4q66 20 180 20q176 0 296 -102.5t120 -276.5q0 -72 -48 -167 t-114 -146q-80 -61 -219 -89t-223 -11q-6 2 -10.5 -2.5t-6.5 -16.5t-2 -22v-31v-12q0 -119 162 -148q68 -12 68 -37q0 -23 -60 -22q-57 0 -125.5 5t-113.5 5q-51 0 -130 -5t-135 -5q-59 0 -59 22q0 25 68 37q82 14 121.5 49t39.5 105zM487 338q74 -8 144.5 5t109.5 44 q131 100 131 305q0 125 -74.5 220.5t-187.5 93.5q-115 -2 -141 -17q-27 -10 -31 -43q-4 -260 -2 -571q0 -12 18.5 -23.5t32.5 -13.5z" />
<glyph unicode="&#xdf;" horiz-adv-x="1052" d="M586 -27q-35 0 -119 19q-10 2 -13 4t-5 7l-3 5q-12 27 -26 91.5t-17 101.5q0 23 29 22q2 0 24.5 -47t66.5 -94t102 -47q78 0 115.5 64.5t37.5 154.5q0 109 -102 168q-68 39 -201 39h-8q-4 0 -10 2t-7 4t1 8q180 246 254 363q10 16 -9 22q-37 8 -94 8q-139 0 -229 -104 q-49 -57 -66.5 -115.5t-23.5 -152.5q-6 -121 0 -330q2 -117 79 -127q8 0 10.5 -10.5t-0.5 -20.5t-10 -10q-41 0 -87 2t-76 2q-33 0 -86.5 -2t-85.5 -2q-8 0 -10.5 10t3 21.5t13.5 13.5q25 6 36 11t28.5 16.5t24.5 32t7 51.5v303q0 113 38 212t99 160q39 39 122 70t167 31 t182.5 -18.5t145.5 -34.5q6 -2 12 -10.5t2 -14.5q-5 -4 -19 -22l-28 -38l-23 -32q-109 -141 -168 -236q-4 -4 -2 -11t9 -7q59 0 108 -12q82 -20 129 -82t47 -150q0 -135 -99 -212t-265 -77z" />
<glyph unicode="&#xe0;" horiz-adv-x="1136" d="M553 690q-43 -106 -145 -330q-6 -12 0 -16t26 -4h240q16 0 18 2t-2 18q-12 45 -112 330q-6 16 -9.5 20.5t-6.5 0t-9 -20.5zM76 -6q-12 0 -11 22.5t11 26.5q74 25 117 59q37 29 63 86q92 195 238 549q8 27 14 54q2 10 4 26.5t4 27.5l2 11q12 2 47 26.5t45 37.5 q25 29 29 28q8 0 14 -18l256 -711q23 -66 72 -117q45 -49 92 -59q12 -4 14.5 -26.5t-14.5 -22.5q-39 0 -98.5 5t-97.5 5q-43 0 -112 -5t-101 -5q-8 0 -10.5 12t1.5 24.5t11 12.5q53 10 82 55q16 29 4 84q-4 23 -29 88q-4 14 -39 15h-291q-14 0 -24 -25q-31 -82 -33 -88 q-10 -47 2 -68q31 -49 86 -61q14 -2 14 -25.5t-14 -23.5q-41 0 -102.5 5t-100.5 5q-29 0 -73.5 -5t-71.5 -5zM649 1049q-70 96 -142.5 175t-106 112.5t-33.5 49.5q0 20 21.5 39t47.5 19q70 0 105 -55q45 -74 117.5 -206t72.5 -153q0 -27 -26 -26q-23 0 -56 45z" />
<glyph unicode="&#xe1;" horiz-adv-x="1136" d="M553 690q-43 -106 -145 -330q-6 -12 0 -16t26 -4h240q16 0 18 2t-2 18q-12 45 -112 330q-6 16 -9.5 20.5t-6.5 0t-9 -20.5zM76 -6q-12 0 -11 22.5t11 26.5q74 25 117 59q37 29 63 86q92 195 238 549q8 27 14 54q2 10 4 26.5t4 27.5l2 11q12 2 47 26.5t45 37.5 q25 29 29 28q8 0 14 -18l256 -711q23 -66 72 -117q45 -49 92 -59q12 -4 14.5 -26.5t-14.5 -22.5q-39 0 -98.5 5t-97.5 5q-43 0 -112 -5t-101 -5q-8 0 -10.5 12t1.5 24.5t11 12.5q53 10 82 55q16 29 4 84q-4 23 -29 88q-4 14 -39 15h-291q-14 0 -24 -25q-31 -82 -33 -88 q-10 -47 2 -68q31 -49 86 -61q14 -2 14 -25.5t-14 -23.5q-41 0 -102.5 5t-100.5 5q-29 0 -73.5 -5t-71.5 -5zM551 1049q-33 -45 -55 -45q-27 0 -27 26q0 20 72.5 152.5t117.5 206.5q35 55 105 55q27 0 48.5 -18.5t21.5 -39.5q0 -16 -34 -49.5t-106.5 -112.5t-142.5 -175z " />
<glyph unicode="&#xe2;" horiz-adv-x="1136" d="M553 690q-43 -106 -145 -330q-6 -12 0 -16t26 -4h240q16 0 18 2t-2 18q-12 45 -112 330q-6 16 -9.5 20.5t-6.5 0t-9 -20.5zM76 -6q-12 0 -11 22.5t11 26.5q74 25 117 59q37 29 63 86q92 195 238 549q8 27 14 54q2 10 4 26.5t4 27.5l2 11q12 2 47 26.5t45 37.5 q25 29 29 28q8 0 14 -18l256 -711q23 -66 72 -117q45 -49 92 -59q12 -4 14.5 -26.5t-14.5 -22.5q-39 0 -98.5 5t-97.5 5q-43 0 -112 -5t-101 -5q-8 0 -10.5 12t1.5 24.5t11 12.5q53 10 82 55q16 29 4 84q-4 23 -29 88q-4 14 -39 15h-291q-14 0 -24 -25q-31 -82 -33 -88 q-10 -47 2 -68q31 -49 86 -61q14 -2 14 -25.5t-14 -23.5q-41 0 -102.5 5t-100.5 5q-29 0 -73.5 -5t-71.5 -5zM446 1065q-27 -37 -57 -37q-12 0 -18 12.5t2 30.5q117 233 159 309q35 59 57.5 59.5t57.5 -59.5l160 -309q8 -18 2 -30.5t-18 -12.5q-33 0 -60 37l-141 197z" />
<glyph unicode="&#xe3;" horiz-adv-x="1136" d="M553 690q-43 -106 -145 -330q-6 -12 0 -16t26 -4h240q16 0 18 2t-2 18q-12 45 -112 330q-6 16 -9.5 20.5t-6.5 0t-9 -20.5zM76 -6q-12 0 -11 22.5t11 26.5q74 25 117 59q37 29 63 86q92 195 238 549q8 27 14 54q2 10 4 26.5t4 27.5l2 11q12 2 47 26.5t45 37.5 q25 29 29 28q8 0 14 -18l256 -711q23 -66 72 -117q45 -49 92 -59q12 -4 14.5 -26.5t-14.5 -22.5q-39 0 -98.5 5t-97.5 5q-43 0 -112 -5t-101 -5q-8 0 -10.5 12t1.5 24.5t11 12.5q53 10 82 55q16 29 4 84q-4 23 -29 88q-4 14 -39 15h-291q-14 0 -24 -25q-31 -82 -33 -88 q-10 -47 2 -68q31 -49 86 -61q14 -2 14 -25.5t-14 -23.5q-41 0 -102.5 5t-100.5 5q-29 0 -73.5 -5t-71.5 -5zM340 1120q43 61 96 113.5t82 52.5q18 0 105.5 -14.5t113.5 -14.5q18 0 30.5 3.5t33 20.5t47.5 50q4 6 15 -1t18.5 -18.5t3.5 -17.5q-39 -55 -92.5 -113.5 t-79.5 -58.5q-18 0 -110.5 13.5t-119.5 13.5q-39 0 -112 -74q-4 -4 -14.5 3t-16.5 20.5t0 21.5z" />
<glyph unicode="&#xe4;" horiz-adv-x="1136" d="M553 690q-43 -106 -145 -330q-6 -12 0 -16t26 -4h240q16 0 18 2t-2 18q-12 45 -112 330q-6 16 -9.5 20.5t-6.5 0t-9 -20.5zM76 -6q-12 0 -11 22.5t11 26.5q74 25 117 59q37 29 63 86q92 195 238 549q8 27 14 54q2 10 4 26.5t4 27.5l2 11q12 2 47 26.5t45 37.5 q25 29 29 28q8 0 14 -18l256 -711q23 -66 72 -117q45 -49 92 -59q12 -4 14.5 -26.5t-14.5 -22.5q-39 0 -98.5 5t-97.5 5q-43 0 -112 -5t-101 -5q-8 0 -10.5 12t1.5 24.5t11 12.5q53 10 82 55q16 29 4 84q-4 23 -29 88q-4 14 -39 15h-291q-14 0 -24 -25q-31 -82 -33 -88 q-10 -47 2 -68q31 -49 86 -61q14 -2 14 -25.5t-14 -23.5q-41 0 -102.5 5t-100.5 5q-29 0 -73.5 -5t-71.5 -5zM781.5 1255q38.5 0 70.5 -32t32 -70t-32 -70t-70.5 -32t-70.5 32t-32 70t32 70t70.5 32zM418.5 1255q38.5 0 70.5 -32t32 -70t-32 -70t-70.5 -32t-70.5 32t-32 70 t32 70t70.5 32z" />
<glyph unicode="&#xe5;" horiz-adv-x="1136" d="M553 690q-43 -106 -145 -330q-6 -12 0 -16t26 -4h240q16 0 18 2t-2 18q-12 45 -112 330q-6 16 -9.5 20.5t-6.5 0t-9 -20.5zM76 -6q-12 0 -11 22.5t11 26.5q74 25 117 59q37 29 63 86q92 195 238 549q8 27 14 54q2 10 4 26.5t4 27.5l2 11q12 2 47 26.5t45 37.5 q25 29 29 28q8 0 14 -18l256 -711q23 -66 72 -117q45 -49 92 -59q12 -4 14.5 -26.5t-14.5 -22.5q-39 0 -98.5 5t-97.5 5q-43 0 -112 -5t-101 -5q-8 0 -10.5 12t1.5 24.5t11 12.5q53 10 82 55q16 29 4 84q-4 23 -29 88q-4 14 -39 15h-291q-14 0 -24 -25q-31 -82 -33 -88 q-10 -47 2 -68q31 -49 86 -61q14 -2 14 -25.5t-14 -23.5q-41 0 -102.5 5t-100.5 5q-29 0 -73.5 -5t-71.5 -5z" />
<glyph unicode="&#xe6;" horiz-adv-x="1318" d="M676 360q0 25 -33 25h-201q-27 0 -43 -31q-74 -119 -118 -202q-45 -82 79 -111q49 -12 50 -27q0 -16 -43 -16q-8 0 -73 2t-106 2q-31 0 -82 -4t-71 -4q-43 0 -43 14q0 12 49 29q78 23 147 133l394 633q6 8 -2.5 14t-22.5 8l-127 21q-12 4 -15 15t2 20.5t13 9.5 q23 0 119 -2t156 -2q82 0 201.5 2t201.5 3t96 1q23 0 25 -12q14 -76 18 -150q0 -12 -20 -12q-27 0 -29 14q-14 45 -33 66q-35 37 -96 37h-186q-12 0 -23.5 -11.5t-13.5 -23.5q-10 -61 -12 -99q-4 -131 -5 -217q0 -31 15 -30q115 0 149 2q47 4 64 18q14 12 24 33q2 4 13.5 13 t17.5 9t13.5 -6t4.5 -14q-8 -61 0 -186q0 -23 -14 -23q-12 0 -23.5 11.5t-13.5 19.5q-16 49 -67 53q-59 2 -148 2q-16 0 -26.5 -8t-8.5 -25q0 -45 5 -200q4 -106 92 -107h147q12 0 55 8t56 17q20 14 59 86q8 14 31 12q8 0 14 -5t4 -11q-10 -86 -24 -138q-4 -23 -21 -22 q-98 0 -271 5t-247 3q-29 0 -75 -4t-89 -4q-41 0 -41 14q0 16 47 25q57 10 83 31.5t24 68.5q-2 73 -2 227zM653 784l-190 -315q-8 -14 -4 -17t22 -3h172h13q4 0 7 2t3 6v12v315q0 25 -4.5 25t-18.5 -25z" />
<glyph unicode="&#xe7;" horiz-adv-x="878" d="M382 -290q-13 -5 -30 13t-1 38l180 230h64l-80 -105q-8 -15 -2 -25.5t16 -15.5q53 -23 89 -65t36 -90q0 -111 -93.5 -194t-162.5 -83q-35 0 -49 25q-19 33 -8 77q2 11 11.5 17t19.5 2q51 -20 100 -21q39 0 59.5 25.5t20.5 67.5q0 52 -39 78.5t-98 29.5q-23 0 -33 -4z M539 938q94 0 147 -16q12 -4 58.5 -13.5t58.5 -13.5q10 -2 18 -43q8 -88 10 -156q0 -10 -9 -22t-17 -10q-41 4 -45 45q-8 70 -51 112q-23 23 -81.5 38t-121.5 15q-145 0 -228 -116.5t-83 -268.5q0 -174 92 -307t248 -139q80 -2 172 53q55 31 77 107q2 10 26 18t36 8 q18 0 14 -36q-4 -25 -27.5 -80.5t-39.5 -81.5q-10 -20 -111.5 -40t-192.5 -20q-188 0 -326 143.5t-138 340.5q0 205 152.5 344t361.5 139z" />
<glyph unicode="&#xe8;" horiz-adv-x="862" d="M526 442q-98 14 -176 2q-35 -6 -35 -34q0 -66 4 -226q4 -104 89 -104h180q10 0 48 8t50 16q37 31 66 95q8 14 30 14q18 0 19 -16q-8 -82 -35 -177q-4 -25 -18 -24q-104 0 -269.5 5t-228.5 5l-219 -12q-4 0 -7.5 12t-1 24.5t8.5 12.5q63 18 92 43q39 35 39 76v569 q0 84 -19 103q-6 6 -10 11t-9 8t-8 5t-11.5 5t-12.5 4t-16.5 5.5t-20.5 6.5q-10 2 -11 22.5t11 20.5q29 0 81 -2t85 -2q78 0 193.5 2t193.5 3t94 1q23 0 25 -13q23 -117 23 -188q0 -12 -23 -12q-10 0 -16 14q-18 55 -41 78q-31 37 -86 37h-217q-12 0 -22.5 -11.5 t-12.5 -25.5q-10 -57 -13 -109q-4 -135 -4 -145q0 -31 15 -31h178q39 0 61 21q18 18 25 36q18 27 29 27q6 0 13 -7t5 -15q-6 -82 0 -207q4 -25 -12 -25q-18 0 -37 39q-13 45 -66 55zM440 1051q-70 96 -142.5 175t-106 112.5t-33.5 50.5q0 20 21.5 38.5t47.5 18.5 q70 0 105 -55q45 -74 117.5 -206t72.5 -153q0 -27 -26 -26q-23 0 -56 45z" />
<glyph unicode="&#xe9;" horiz-adv-x="862" d="M526 442q-98 14 -176 2q-35 -6 -35 -34q0 -66 4 -226q4 -104 89 -104h180q10 0 48 8t50 16q37 31 66 95q8 14 30 14q18 0 19 -16q-8 -82 -35 -177q-4 -25 -18 -24q-104 0 -269.5 5t-228.5 5l-219 -12q-4 0 -7.5 12t-1 24.5t8.5 12.5q63 18 92 43q39 35 39 76v569 q0 84 -19 103q-6 6 -10 11t-9 8t-8 5t-11.5 5t-12.5 4t-16.5 5.5t-20.5 6.5q-10 2 -11 22.5t11 20.5q29 0 81 -2t85 -2q78 0 193.5 2t193.5 3t94 1q23 0 25 -13q23 -117 23 -188q0 -12 -23 -12q-10 0 -16 14q-18 55 -41 78q-31 37 -86 37h-217q-12 0 -22.5 -11.5 t-12.5 -25.5q-10 -57 -13 -109q-4 -135 -4 -145q0 -31 15 -31h178q39 0 61 21q18 18 25 36q18 27 29 27q6 0 13 -7t5 -15q-6 -82 0 -207q4 -25 -12 -25q-18 0 -37 39q-13 45 -66 55zM387 1051q-33 -45 -55 -45q-27 0 -27 26q0 20 73 152.5t118 206.5q35 55 104 55 q27 0 48.5 -18.5t21.5 -38.5q0 -16 -34 -50t-106.5 -113t-142.5 -175z" />
<glyph unicode="&#xea;" horiz-adv-x="862" d="M526 442q-98 14 -176 2q-35 -6 -35 -34q0 -66 4 -226q4 -104 89 -104h180q10 0 48 8t50 16q37 31 66 95q8 14 30 14q18 0 19 -16q-8 -82 -35 -177q-4 -25 -18 -24q-104 0 -269.5 5t-228.5 5l-219 -12q-4 0 -7.5 12t-1 24.5t8.5 12.5q63 18 92 43q39 35 39 76v569 q0 84 -19 103q-6 6 -10 11t-9 8t-8 5t-11.5 5t-12.5 4t-16.5 5.5t-20.5 6.5q-10 2 -11 22.5t11 20.5q29 0 81 -2t85 -2q78 0 193.5 2t193.5 3t94 1q23 0 25 -13q23 -117 23 -188q0 -12 -23 -12q-10 0 -16 14q-18 55 -41 78q-31 37 -86 37h-217q-12 0 -22.5 -11.5 t-12.5 -25.5q-10 -57 -13 -109q-4 -135 -4 -145q0 -31 15 -31h178q39 0 61 21q18 18 25 36q18 27 29 27q6 0 13 -7t5 -15q-6 -82 0 -207q4 -25 -12 -25q-18 0 -37 39q-13 45 -66 55zM279 1069q-27 -37 -58 -37q-12 0 -18 12.5t2 30.5q117 233 160 309q35 59 57 59.5 t57 -59.5l160 -309q8 -18 2 -30.5t-18 -12.5q-33 0 -60 37l-141 197z" />
<glyph unicode="&#xeb;" horiz-adv-x="862" d="M614 1252q38 0 70 -32t32 -70.5t-32 -70.5t-70 -32t-70 32t-32 70.5t32 70.5t70 32zM251.5 1252q38.5 0 70.5 -32t32 -70.5t-32 -70.5t-70.5 -32t-70.5 32t-32 70.5t32 70.5t70.5 32zM526 442q-98 14 -176 2q-35 -6 -35 -34q0 -66 4 -226q4 -104 89 -104h180q10 0 48 8 t50 16q37 31 66 95q8 14 30 14q18 0 19 -16q-8 -82 -35 -177q-4 -25 -18 -24q-104 0 -269.5 5t-228.5 5l-219 -12q-4 0 -7.5 12t-1 24.5t8.5 12.5q63 18 92 43q39 35 39 76v569q0 84 -19 103q-6 6 -10 11t-9 8t-8 5t-11.5 5t-12.5 4t-16.5 5.5t-20.5 6.5q-10 2 -11 22.5 t11 20.5q29 0 81 -2t85 -2q78 0 193.5 2t193.5 3t94 1q23 0 25 -13q23 -117 23 -188q0 -12 -23 -12q-10 0 -16 14q-18 55 -41 78q-31 37 -86 37h-217q-12 0 -22.5 -11.5t-12.5 -25.5q-10 -57 -13 -109q-4 -135 -4 -145q0 -31 15 -31h178q39 0 61 21q18 18 25 36q18 27 29 27 q6 0 13 -7t5 -15q-6 -82 0 -207q4 -25 -12 -25q-18 0 -37 39q-13 45 -66 55z" />
<glyph unicode="&#xec;" horiz-adv-x="657" d="M416 772v-604q0 -49 28 -76q39 -37 109 -49q18 -4 18 -26.5t-18 -22.5q-41 0 -104.5 5t-104.5 5q-43 0 -111.5 -5t-107.5 -5q-8 0 -13.5 11t-2 23.5t15.5 14.5q72 14 111 49q27 25 26 76v604q0 29 -33 57q-27 23 -90 50q-6 2 -9 14t0 22.5t9 10.5q45 0 105.5 -2t99.5 -2 q37 0 94.5 2t100.5 2q12 0 12 -21.5t-12 -25.5q-70 -29 -95 -52q-28 -20 -28 -55zM377 1051q-70 96 -142.5 175t-106.5 112.5t-34 50.5q0 20 21.5 38.5t48.5 18.5q70 0 104 -55q45 -74 118 -206t73 -153q0 -27 -27 -26q-22 0 -55 45z" />
<glyph unicode="&#xed;" horiz-adv-x="657" d="M416 772v-604q0 -49 28 -76q39 -37 109 -49q18 -4 18 -26.5t-18 -22.5q-41 0 -104.5 5t-104.5 5q-43 0 -111.5 -5t-107.5 -5q-8 0 -13.5 11t-2 23.5t15.5 14.5q72 14 111 49q27 25 26 76v604q0 29 -33 57q-27 23 -90 50q-6 2 -9 14t0 22.5t9 10.5q45 0 105.5 -2t99.5 -2 q37 0 94.5 2t100.5 2q12 0 12 -21.5t-12 -25.5q-70 -29 -95 -52q-28 -20 -28 -55zM274 1055q-33 -45 -55 -45q-27 0 -26 26q0 20 72.5 152.5t117.5 206.5q35 55 104 55q27 0 48.5 -18.5t21.5 -38.5q0 -16 -34 -50t-106.5 -113t-142.5 -175z" />
<glyph unicode="&#xee;" horiz-adv-x="657" d="M416 772v-604q0 -49 28 -76q39 -37 109 -49q18 -4 18 -26.5t-18 -22.5q-41 0 -104.5 5t-104.5 5q-43 0 -111.5 -5t-107.5 -5q-8 0 -13.5 11t-2 23.5t15.5 14.5q72 14 111 49q27 25 26 76v604q0 29 -33 57q-27 23 -90 50q-6 2 -9 14t0 22.5t9 10.5q45 0 105.5 -2t99.5 -2 q37 0 94.5 2t100.5 2q12 0 12 -21.5t-12 -25.5q-70 -29 -95 -52q-28 -20 -28 -55zM197 1069q-27 -37 -58 -37q-12 0 -18 12.5t2 30.5q117 233 160 309q35 59 57 59.5t57 -59.5l160 -309q8 -18 2 -30.5t-18 -12.5q-33 0 -60 37l-141 197z" />
<glyph unicode="&#xef;" horiz-adv-x="657" d="M523.5 1253q38.5 0 70.5 -32t32 -70t-32 -70t-70.5 -32t-70.5 32t-32 70t32 70t70.5 32zM160.5 1253q38.5 0 70.5 -32t32 -70t-32 -70t-70.5 -32t-70.5 32t-32 70t32 70t70.5 32zM416 772v-604q0 -49 28 -76q39 -37 109 -49q18 -4 18 -26.5t-18 -22.5q-41 0 -104.5 5 t-104.5 5q-43 0 -111.5 -5t-107.5 -5q-8 0 -13.5 11t-2 23.5t15.5 14.5q72 14 111 49q27 25 26 76v604q0 29 -33 57q-27 23 -90 50q-6 2 -9 14t0 22.5t9 10.5q45 0 105.5 -2t99.5 -2q37 0 94.5 2t100.5 2q12 0 12 -21.5t-12 -25.5q-70 -29 -95 -52q-28 -20 -28 -55z" />
<glyph unicode="&#xf0;" horiz-adv-x="1062" d="M371 88q27 -20 176 -20q129 0 223 98q92 100 92 330q0 131 -99 248.5t-259 119.5q-180 0 -180 -80v-598q0 -61 47 -98zM539 -6q-6 0 -111.5 6t-171.5 6q-49 0 -126 -3t-87 -3q-8 0 -8 23.5t8 25.5q55 14 88 49q37 39 39 84v535q0 82 -18 102q-20 23 -31.5 30t-50.5 17 q-6 2 -10.5 14.5t-3.5 25t12 12.5q29 0 82 -2.5t86 -2.5q27 0 136 7.5t126 7.5q260 0 400 -128t138 -319q-2 -182 -110 -319q-55 -70 -159.5 -119t-227.5 -49z" />
<glyph unicode="&#xf1;" horiz-adv-x="1292" d="M137 -6q-14 0 -12 23.5t12 25.5q61 10 82 33q27 29 31 90q14 244 14 573q0 59 -12 74q-41 49 -131 57q-14 0 -14.5 25t14.5 25h295q8 0 13 -4.5t11 -13.5t9 -13l247 -302q176 -218 305 -362q2 -2 7.5 -9t9.5 -11t9 -6t8 4t3 22q6 182 -6 549q0 18 -12 33.5t-31.5 26 t-36 16.5t-37 12t-24.5 8q-6 2 -7 23.5t7 21.5q37 0 91 -4t89 -4t87 4t83 4q6 0 8 -22.5t-8 -22.5q-39 -6 -72 -32q-37 -25 -39 -56q-6 -104 -9 -205.5t-3 -165t1 -187.5t1 -197q0 -23 -14 -39.5t-37 -16.5q-53 0 -102 56l-549 647q-18 20 -30.5 24t-15.5 -1t-5 -17 q-12 -389 -9 -530q4 -47 23 -68q27 -31 72 -39q12 -2 11 -25.5t-18 -23.5q-37 0 -82 4t-73 4q-31 0 -78 -4t-76 -4zM407 1089q44 62 96.5 114t81.5 52q19 0 105.5 -14.5t113.5 -14.5q19 0 31 3.5t32.5 20t47.5 50.5q5 6 15.5 -0.5t17.5 -18.5t3 -18q-39 -56 -92 -114 t-80 -58q-19 0 -110.5 13.5t-118.5 13.5q-39 0 -113 -74q-5 -5 -14.5 3t-15 21t-0.5 21z" />
<glyph unicode="&#xf2;" d="M608 868q-158 0 -228.5 -112.5t-70.5 -280.5q0 -188 89 -309t255 -121q84 0 146.5 37t95.5 97.5t48 125t15 129.5q0 174 -89 304t-261 130zM135 444q0 190 145.5 340t340.5 150q209 0 359 -138.5t150 -342.5q0 -201 -135 -342.5t-374 -141.5q-205 0 -345.5 138 t-140.5 337zM655 1049q-70 96 -142.5 175t-106 112.5t-33.5 49.5q0 20 21.5 39t47.5 19q70 0 105 -55q45 -74 117.5 -206t72.5 -153q0 -27 -26 -26q-23 0 -56 45z" />
<glyph unicode="&#xf3;" d="M608 868q-158 0 -228.5 -112.5t-70.5 -280.5q0 -188 89 -309t255 -121q84 0 146.5 37t95.5 97.5t48 125t15 129.5q0 174 -89 304t-261 130zM135 444q0 190 145.5 340t340.5 150q209 0 359 -138.5t150 -342.5q0 -201 -135 -342.5t-374 -141.5q-205 0 -345.5 138 t-140.5 337zM625 1051q-33 -45 -56 -45q-27 0 -26 26q0 20 72.5 152.5t117.5 206.5q35 55 105 55q27 0 48 -18.5t21 -38.5q1 -16 -33 -50l-106 -113q-72 -79 -143 -175z" />
<glyph unicode="&#xf4;" d="M608 868q-158 0 -228.5 -112.5t-70.5 -280.5q0 -188 89 -309t255 -121q84 0 146.5 37t95.5 97.5t48 125t15 129.5q0 174 -89 304t-261 130zM135 444q0 190 145.5 340t340.5 150q209 0 359 -138.5t150 -342.5q0 -201 -135 -342.5t-374 -141.5q-205 0 -345.5 138 t-140.5 337zM475 1069q-27 -37 -57 -37q-12 0 -18.5 12.5t1.5 30.5q117 233 160 309q35 59 57.5 59.5t57.5 -59.5l160 -309q8 -18 1.5 -30.5t-18.5 -12.5q-33 0 -59 37l-142 197z" />
<glyph unicode="&#xf5;" d="M608 868q-158 0 -228.5 -112.5t-70.5 -280.5q0 -188 89 -309t255 -121q84 0 146.5 37t95.5 97.5t48 125t15 129.5q0 174 -89 304t-261 130zM135 444q0 190 145.5 340t340.5 150q209 0 359 -138.5t150 -342.5q0 -201 -135 -342.5t-374 -141.5q-205 0 -345.5 138 t-140.5 337zM373 1053q43 61 96 113.5t82 52.5q18 0 105 -14.5t114 -14.5q18 0 30.5 3t33 20.5t47.5 50.5q4 6 15 -1.5t18.5 -18.5t3.5 -17q-39 -55 -92.5 -113.5t-80.5 -58.5q-18 0 -110 13t-119 13q-39 0 -113 -73q-4 -4 -14 3t-16 20.5t0 21.5z" />
<glyph unicode="&#xf6;" d="M608 868q-158 0 -228.5 -112.5t-70.5 -280.5q0 -188 89 -309t255 -121q84 0 146.5 37t95.5 97.5t48 125t15 129.5q0 174 -89 304t-261 130zM135 444q0 190 145.5 340t340.5 150q209 0 359 -138.5t150 -342.5q0 -201 -135 -342.5t-374 -141.5q-205 0 -345.5 138 t-140.5 337zM820.5 1255q38.5 0 70.5 -32t32 -70t-32 -70t-70.5 -32t-70.5 32t-32 70t32 70t70.5 32zM457.5 1255q38.5 0 70.5 -32t32 -70t-32 -70t-70.5 -32t-70.5 32t-32 70t32 70t70.5 32z" />
<glyph unicode="&#xf7;" horiz-adv-x="1208" d="M604 330q39 0 66.5 -28t27.5 -66.5t-27.5 -66.5t-66.5 -28t-66.5 28t-27.5 66.5t27.5 66.5t66.5 28zM604 911q39 0 65.5 -27.5t26.5 -66.5t-27.5 -66.5t-66.5 -27.5t-66.5 27.5t-27.5 66.5t28.5 66.5t67.5 27.5zM131 475q-10 0 -19.5 7t-9.5 18q0 20 13.5 49t36.5 29h927 q12 0 21.5 -9.5t5.5 -19.5q-8 -25 -13.5 -37t-18.5 -24.5t-32 -12.5h-911z" />
<glyph unicode="&#xf8;" d="M608 868q-158 0 -228.5 -112.5t-70.5 -280.5q0 -188 89 -309t255 -121q84 0 146.5 37t95.5 97.5t48 125t15 129.5q0 174 -89 304t-261 130zM135 444q0 190 145.5 340t340.5 150q209 0 359 -138.5t150 -342.5q0 -201 -135 -342.5t-374 -141.5q-205 0 -345.5 138 t-140.5 337z" />
<glyph unicode="&#xf9;" horiz-adv-x="1153" d="M164 418v344q0 41 -12.5 64.5t-24.5 28.5t-43 15q-8 2 -13 14.5t-3 25t12 12.5q33 0 88 -2t90 -2q25 0 61.5 2t79.5 2q12 0 12.5 -22.5t-12.5 -27.5q-80 -10 -82 -124v-369q0 -137 87.5 -235.5t224.5 -98.5q131 0 192.5 82t61.5 268v322q2 88 -17.5 113.5t-74.5 39.5 q-14 4 -13.5 29t15.5 25h147q31 0 82 1t84 1q12 0 10 -21.5t-10 -23.5q-115 -23 -119 -113q-14 -158 -14 -324q0 -471 -371 -471q-207 0 -322.5 127.5t-115.5 317.5zM666 1042q-70 96 -142.5 175t-106.5 113t-34 50q0 20 21.5 39t48.5 19q70 0 104 -56q45 -74 118 -206 t73 -152q0 -27 -27 -27q-22 0 -55 45z" />
<glyph unicode="&#xfa;" horiz-adv-x="1153" d="M164 418v344q0 41 -12.5 64.5t-24.5 28.5t-43 15q-8 2 -13 14.5t-3 25t12 12.5q33 0 88 -2t90 -2q25 0 61.5 2t79.5 2q12 0 12.5 -22.5t-12.5 -27.5q-80 -10 -82 -124v-369q0 -137 87.5 -235.5t224.5 -98.5q131 0 192.5 82t61.5 268v322q2 88 -17.5 113.5t-74.5 39.5 q-14 4 -13.5 29t15.5 25h147q31 0 82 1t84 1q12 0 10 -21.5t-10 -23.5q-115 -23 -119 -113q-14 -158 -14 -324q0 -471 -371 -471q-207 0 -322.5 127.5t-115.5 317.5zM535 1047q-33 -45 -56 -46q-27 0 -26 27q0 20 72.5 152.5t117.5 205.5q35 55 105 56q27 0 48 -18.5 t21 -39.5q1 -16 -33 -50l-106 -112q-72 -78 -143 -175z" />
<glyph unicode="&#xfb;" horiz-adv-x="1153" d="M164 418v344q0 41 -12.5 64.5t-24.5 28.5t-43 15q-8 2 -13 14.5t-3 25t12 12.5q33 0 88 -2t90 -2q25 0 61.5 2t79.5 2q12 0 12.5 -22.5t-12.5 -27.5q-80 -10 -82 -124v-369q0 -137 87.5 -235.5t224.5 -98.5q131 0 192.5 82t61.5 268v322q2 88 -17.5 113.5t-74.5 39.5 q-14 4 -13.5 29t15.5 25h147q31 0 82 1t84 1q12 0 10 -21.5t-10 -23.5q-115 -23 -119 -113q-14 -158 -14 -324q0 -471 -371 -471q-207 0 -322.5 127.5t-115.5 317.5zM457 1063q-27 -37 -58 -37q-12 0 -18 12.5t2 30.5q117 233 160 309q35 59 57.5 59.5t56.5 -59.5l160 -309 q8 -18 2 -30.5t-18 -12.5q-33 0 -60 37l-141 197z" />
<glyph unicode="&#xfc;" horiz-adv-x="1153" d="M164 418v344q0 41 -12.5 64.5t-24.5 28.5t-43 15q-8 2 -13 14.5t-3 25t12 12.5q33 0 88 -2t90 -2q25 0 61.5 2t79.5 2q12 0 12.5 -22.5t-12.5 -27.5q-80 -10 -82 -124v-369q0 -137 87.5 -235.5t224.5 -98.5q131 0 192.5 82t61.5 268v322q2 88 -17.5 113.5t-74.5 39.5 q-14 4 -13.5 29t15.5 25h147q31 0 82 1t84 1q12 0 10 -21.5t-10 -23.5q-115 -23 -119 -113q-14 -158 -14 -324q0 -471 -371 -471q-207 0 -322.5 127.5t-115.5 317.5zM754.5 1255q38.5 0 70.5 -32t32 -70t-32 -70t-70.5 -32t-70.5 32t-32 70t32 70t70.5 32zM392.5 1255 q38.5 0 70.5 -32t32 -70t-32 -70t-70.5 -32t-70.5 32t-32 70t32 70t70.5 32z" />
<glyph unicode="&#xfd;" horiz-adv-x="1011" d="M61 872q-8 0 -13 12.5t-3 25t10 12.5q33 0 86.5 -2t86 -2t83.5 2t92 2q10 0 10.5 -21.5t-10.5 -23.5q-96 -14 -55 -89q32 -58 54 -90l46 -66l44 -61l18 -27q10 -16 11 -19t7.5 -4t7.5 4t11 19.5t20 26.5q94 131 135 211q16 35 -7 60.5t-66 31.5q-12 2 -11.5 26t15.5 24 h147q31 0 76 1t76 1q12 0 10 -20.5t-10 -22.5q-88 -12 -174 -144q-31 -53 -75 -114.5t-81 -120.5l-14 -22l-10 -17l-8 -13q-5 -8 -5 -11t-2 -12t0 -14t0 -20q2 -35 1 -115.5t-1 -111.5q0 -47 27 -72q41 -37 106 -49q12 -2 16.5 -16.5t-0.5 -26.5t-16 -12q-41 0 -102.5 6 t-99.5 6q-43 0 -113 -6t-107 -6q-8 0 -13 12t-2 26.5t15 16.5q68 12 109 49q27 25 27 72v227q0 37 -25 86q-27 49 -53.5 87t-63.5 86l-61 81q-4 6 -20.5 34t-31 47.5t-40 36.5t-54.5 19zM475 1061q-33 -45 -55 -45q-27 0 -27 26q0 20 73 152.5t118 206.5q35 55 104 55 q27 0 48.5 -18.5t21.5 -38.5q0 -16 -34 -50t-106.5 -113t-142.5 -175z" />
<glyph unicode="&#xfe;" horiz-adv-x="1144" d="M274 203v921q0 68 -22.5 103t-93.5 47q-68 12 -68 41q0 23 59.5 22.5t117 -3.5t95.5 -3q45 0 116 3t128 3q59 0 60 -22q0 -29 -68 -41q-82 -14 -121 -47t-39 -103v-22q0 -8 2 -23.5t8.5 -21.5t16.5 -4q66 20 180 20q176 0 296 -102.5t120 -276.5q0 -72 -48 -167 t-114 -146q-80 -61 -219 -89t-223 -11q-6 2 -10.5 -2.5t-6.5 -16.5t-2 -22v-31v-12q0 -119 162 -148q68 -12 68 -37q0 -23 -60 -22q-57 0 -125.5 5t-113.5 5q-51 0 -130 -5t-135 -5q-59 0 -59 22q0 25 68 37q82 14 121.5 49t39.5 105zM487 338q74 -8 144.5 5t109.5 44 q131 100 131 305q0 125 -74.5 220.5t-187.5 93.5q-115 -2 -141 -17q-27 -10 -31 -43q-4 -260 -2 -571q0 -12 18.5 -23.5t32.5 -13.5z" />
<glyph unicode="&#xff;" horiz-adv-x="1011" d="M699.5 1253q38.5 0 70.5 -32t32 -70t-32 -70t-70.5 -32t-70.5 32t-32 70t32 70t70.5 32zM336.5 1253q38.5 0 70.5 -32t32 -70t-32 -70t-70.5 -32t-70.5 32t-32 70t32 70t70.5 32zM61 872q-8 0 -13 12.5t-3 25t10 12.5q33 0 86.5 -2t86 -2t83.5 2t92 2q10 0 10.5 -21.5 t-10.5 -23.5q-96 -14 -55 -89q32 -58 54 -90l46 -66l44 -61l18 -27q10 -16 11 -19t7.5 -4t7.5 4t11 19.5t20 26.5q94 131 135 211q16 35 -7 60.5t-66 31.5q-12 2 -11.5 26t15.5 24h147q31 0 76 1t76 1q12 0 10 -20.5t-10 -22.5q-88 -12 -174 -144q-31 -53 -75 -114.5 t-81 -120.5l-14 -22l-10 -17l-8 -13q-5 -8 -5 -11t-2 -12t0 -14t0 -20q2 -35 1 -115.5t-1 -111.5q0 -47 27 -72q41 -37 106 -49q12 -2 16.5 -16.5t-0.5 -26.5t-16 -12q-41 0 -102.5 6t-99.5 6q-43 0 -113 -6t-107 -6q-8 0 -13 12t-2 26.5t15 16.5q68 12 109 49q27 25 27 72 v227q0 37 -25 86q-27 49 -53.5 87t-63.5 86l-61 81q-4 6 -20.5 34t-31 47.5t-40 36.5t-54.5 19z" />
<glyph unicode="&#x100;" horiz-adv-x="1400" d="M485 1591h539q12 0 21 -9t5 -19q-1 -3 -4 -13l-4 -14q-1 -4 -4.5 -12t-5.5 -12l-6 -10q-4 -6 -7.5 -9t-8.5 -6.5t-10.5 -4.5t-12.5 -1h-522q-11 0 -20 7.5t-9 16.5q0 24 12 55t37 31zM365 209q-16 -53 18.5 -93t95.5 -55q68 -18 68 -40.5t-60 -22.5q-10 0 -89 2t-128 2 q-43 0 -113.5 -6t-101.5 -6q-59 0 -59 26q0 25 67 47q123 37 177 158q197 451 383 963l20 61q2 8 3 22.5t2 25t3 10.5q55 18 74 30q13 7 21 21l13 22q5 8 9 8q10 0 20 -28l365 -1094q39 -113 86 -152.5t121 -52.5q68 -12 67 -47q0 -20 -59 -20q-23 0 -99.5 6t-123.5 6 q-61 2 -157.5 0t-106.5 -2q-59 0 -59.5 22.5t67.5 40.5q78 20 94 51t2 101q-35 166 -59 262q-6 23 -58 23h-391q-25 0 -35 -37zM682 1110l-184 -492q-8 -20 1 -25t38 -5h317q23 0 27 5t-2 25l-162 490q-8 27 -13.5 33t-9.5 0t-12 -31z" />
<glyph unicode="&#x101;" horiz-adv-x="1136" d="M348 1186h457q12 0 21.5 -9.5t4.5 -19.5q-8 -25 -13 -37t-18.5 -24.5t-31.5 -12.5h-440q-10 0 -19.5 7.5t-9.5 17.5q0 20 13 49t36 29zM553 690q-43 -106 -145 -330q-6 -12 0 -16t26 -4h240q16 0 18 2t-2 18q-12 45 -112 330q-6 16 -9.5 20.5t-6.5 0t-9 -20.5zM76 -6 q-12 0 -11 22.5t11 26.5q74 25 117 59q37 29 63 86q92 195 238 549q8 27 14 54q2 10 4 26.5t4 27.5l2 11q12 2 47 26.5t45 37.5q25 29 29 28q8 0 14 -18l256 -711q23 -66 72 -117q45 -49 92 -59q12 -4 14.5 -26.5t-14.5 -22.5q-39 0 -98.5 5t-97.5 5q-43 0 -112 -5t-101 -5 q-8 0 -10.5 12t1.5 24.5t11 12.5q53 10 82 55q16 29 4 84q-4 23 -29 88q-4 14 -39 15h-291q-14 0 -24 -25q-31 -82 -33 -88q-10 -47 2 -68q31 -49 86 -61q14 -2 14 -25.5t-14 -23.5q-41 0 -102.5 5t-100.5 5q-29 0 -73.5 -5t-71.5 -5z" />
<glyph unicode="&#x102;" horiz-adv-x="1400" d="M502 1690q26 -47 86 -88t155 -41t155.5 40.5t86.5 88.5q24 43 45 43q20 0 20 -50q0 -100 -93 -183t-214 -83q-125 0 -216 76.5t-91 189.5q0 49 21 50q21 0 45 -43zM365 209q-16 -53 18.5 -93t95.5 -55q68 -18 68 -40.5t-60 -22.5q-10 0 -89 2t-128 2q-43 0 -113.5 -6 t-101.5 -6q-59 0 -59 26q0 25 67 47q123 37 177 158q197 451 383 963l20 61q2 8 3 22.5t2 25t3 10.5q55 18 74 30q13 7 21 21l13 22q5 8 9 8q10 0 20 -28l365 -1094q39 -113 86 -152.5t121 -52.5q68 -12 67 -47q0 -20 -59 -20q-23 0 -99.5 6t-123.5 6q-61 2 -157.5 0 t-106.5 -2q-59 0 -59.5 22.5t67.5 40.5q78 20 94 51t2 101q-35 166 -59 262q-6 23 -58 23h-391q-25 0 -35 -37zM682 1110l-184 -492q-8 -20 1 -25t38 -5h317q23 0 27 5t-2 25l-162 490q-8 27 -13.5 33t-9.5 0t-12 -31z" />
<glyph unicode="&#x103;" horiz-adv-x="1136" d="M412 1227q4 -8 17 -38t23.5 -46.5t40 -31.5t72.5 -15t73 15t40 31.5t23.5 46.5t17.5 38q2 2 8 17.5t11 20.5t16 5q31 0 30 -49q0 -102 -57 -170t-162 -68q-106 0 -162.5 61.5t-56.5 176.5q0 49 31 49q10 0 15 -5t11.5 -20.5t8.5 -17.5zM553 690q-43 -106 -145 -330 q-6 -12 0 -16t26 -4h240q16 0 18 2t-2 18q-12 45 -112 330q-6 16 -9.5 20.5t-6.5 0t-9 -20.5zM76 -6q-12 0 -11 22.5t11 26.5q74 25 117 59q37 29 63 86q92 195 238 549q8 27 14 54q2 10 4 26.5t4 27.5l2 11q12 2 47 26.5t45 37.5q25 29 29 28q8 0 14 -18l256 -711 q23 -66 72 -117q45 -49 92 -59q12 -4 14.5 -26.5t-14.5 -22.5q-39 0 -98.5 5t-97.5 5q-43 0 -112 -5t-101 -5q-8 0 -10.5 12t1.5 24.5t11 12.5q53 10 82 55q16 29 4 84q-4 23 -29 88q-4 14 -39 15h-291q-14 0 -24 -25q-31 -82 -33 -88q-10 -47 2 -68q31 -49 86 -61 q14 -2 14 -25.5t-14 -23.5q-41 0 -102.5 5t-100.5 5q-29 0 -73.5 -5t-71.5 -5z" />
<glyph unicode="&#x104;" horiz-adv-x="1404" d="M868 0q-59 0 -59 22.5t68 40.5q119 35 96 179q-20 135 -47 235q-6 23 -58 23h-391q-14 0 -21 -7.5t-14 -29.5l-69 -234q-16 -55 16.5 -104t91.5 -64q68 -18 68 -40.5t-60 -22.5q-8 0 -87.5 3t-131.5 1q-43 0 -116.5 -6t-104.5 -6q-59 0 -59 22q0 25 67 45 q55 16 112.5 71.5t90.5 129.5q156 356 363 926l20 61q2 10 3 24.5t2 24t3 9.5q45 14 62 22q12 6 30.5 21.5t30.5 26.5t17 11q10 0 20 -28l344 -1057q70 -209 209 -246q68 -18 68 -40.5t-60 -22.5q-16 0 -93 7t-138 7q-74 -63 -110 -99t-68.5 -96.5t-32.5 -125.5 q0 -53 40 -89t95 -36q25 0 55 11q28 11 48 25l40 30q20 14 25 16q8 6 16 3t8 -16q0 -20 -24 -65q-29 -47 -101.5 -98.5t-142.5 -51.5q-96 0 -164.5 67.5t-68.5 164.5q0 109 64.5 182.5t230.5 175.5q-70 -2 -183 -2zM682 1110l-184 -492q-8 -20 1 -25t38 -5h317q23 0 27 5 t-2 25l-162 490q-8 27 -13.5 33t-9.5 0t-12 -31z" />
<glyph unicode="&#x105;" horiz-adv-x="1136" d="M675 41h53q-184 -155 -184 -348q0 -66 34.5 -103.5t88.5 -37.5q60 0 112 41q6 5 16 0.5t9 -12.5q-5 -31 -33 -64l-7 -10q-8 -11 -14 -17l-19 -18q-12 -12 -25.5 -20.5t-29.5 -17t-36 -13t-41 -4.5q-93 0 -150 56t-57 165q0 87 78 203.5t205 199.5zM553 690 q-43 -106 -145 -330q-6 -12 0 -16t26 -4h240q16 0 18 2t-2 18q-12 45 -112 330q-6 16 -9.5 20.5t-6.5 0t-9 -20.5zM76 -6q-12 0 -11 22.5t11 26.5q74 25 117 59q37 29 63 86q92 195 238 549q8 27 14 54q2 10 4 26.5t4 27.5l2 11q12 2 47 26.5t45 37.5q25 29 29 28 q8 0 14 -18l256 -711q23 -66 72 -117q45 -49 92 -59q12 -4 14.5 -26.5t-14.5 -22.5q-39 0 -98.5 5t-97.5 5q-43 0 -112 -5t-101 -5q-8 0 -10.5 12t1.5 24.5t11 12.5q53 10 82 55q16 29 4 84q-4 23 -29 88q-4 14 -39 15h-291q-14 0 -24 -25q-31 -82 -33 -88q-10 -47 2 -68 q31 -49 86 -61q14 -2 14 -25.5t-14 -23.5q-41 0 -102.5 5t-100.5 5q-29 0 -73.5 -5t-71.5 -5z" />
<glyph unicode="&#x106;" horiz-adv-x="1310" d="M602 1444q-45 -10 -70 -4q-12 2 -11 18.5t18 26.5q201 127 335 196q59 33 107 11q70 -33 72 -95q0 -39 -66 -53q-231 -57 -385 -100zM1200 281q6 10 15.5 17t21.5 13t14 8q10 7 15 -14q5 -20 2 -39q-23 -145 -68 -213q-4 -8 -17.5 -13t-39 -13.5t-43.5 -16.5 q-88 -41 -344 -41q-276 0 -469 205t-193 488q0 293 221.5 494.5t524.5 201.5q143 0 216.5 -24.5t155.5 -37.5q23 -4 27 -61q14 -111 16 -223q2 -16 -3 -32.5t-19 -14.5q-41 4 -53 75q-12 94 -72 150q-104 104 -301 104q-219 0 -363.5 -175t-144.5 -408q0 -170 61.5 -324 t183.5 -254t275 -100q254 0 381 248z" />
<glyph unicode="&#x107;" horiz-adv-x="878" d="M473 1059q-33 -45 -55 -45q-27 0 -27 26q0 20 73 152.5t118 206.5q35 55 104 55q27 0 48.5 -18.5t21.5 -38.5q0 -16 -34 -50t-106.5 -113t-142.5 -175zM539 938q94 0 147 -16q12 -4 58.5 -13.5t58.5 -13.5q10 -2 18 -43q8 -88 10 -156q0 -10 -9 -22t-17 -10q-41 4 -45 45 q-8 70 -51 112q-23 23 -81.5 38t-121.5 15q-145 0 -228 -116.5t-83 -268.5q0 -174 92 -307t248 -139q80 -2 172 53q55 31 77 107q2 10 26 18t36 8q18 0 14 -36q-4 -25 -27.5 -80.5t-39.5 -81.5q-10 -20 -111.5 -40t-192.5 -20q-188 0 -326 143.5t-138 340.5q0 205 152.5 344 t361.5 139z" />
<glyph unicode="&#x108;" horiz-adv-x="1310" d="M825 1563q-16 10 -20 10t-21 -10q-137 -78 -161 -93q-63 -37 -107 -36q-23 0 -29 14t13 31l221 180q63 43 84 45q14 0 28.5 -6t20.5 -11.5t35 -27.5l221 -180q18 -16 12 -31.5t-28 -15.5q-18 0 -72 30q-49 27 -109.5 56t-87.5 45zM1200 281q6 10 15.5 17t21.5 13t14 8 q10 7 15 -14q5 -20 2 -39q-23 -145 -68 -213q-4 -8 -17.5 -13t-39 -13.5t-43.5 -16.5q-88 -41 -344 -41q-276 0 -469 205t-193 488q0 293 221.5 494.5t524.5 201.5q143 0 216.5 -24.5t155.5 -37.5q23 -4 27 -61q14 -111 16 -223q2 -16 -3 -32.5t-19 -14.5q-41 4 -53 75 q-12 94 -72 150q-104 104 -301 104q-219 0 -363.5 -175t-144.5 -408q0 -170 61.5 -324t183.5 -254t275 -100q254 0 381 248z" />
<glyph unicode="&#x109;" horiz-adv-x="878" d="M395 1098q-27 -37 -57 -37q-12 0 -18.5 12t2.5 31q117 233 159 309q35 59 57.5 59.5t57.5 -59.5l160 -309q8 -18 2 -30.5t-19 -12.5q-33 0 -59 37l-141 196zM539 938q94 0 147 -16q12 -4 58.5 -13.5t58.5 -13.5q10 -2 18 -43q8 -88 10 -156q0 -10 -9 -22t-17 -10 q-41 4 -45 45q-8 70 -51 112q-23 23 -81.5 38t-121.5 15q-145 0 -228 -116.5t-83 -268.5q0 -174 92 -307t248 -139q80 -2 172 53q55 31 77 107q2 10 26 18t36 8q18 0 14 -36q-4 -25 -27.5 -80.5t-39.5 -81.5q-10 -20 -111.5 -40t-192.5 -20q-188 0 -326 143.5t-138 340.5 q0 205 152.5 344t361.5 139z" />
<glyph unicode="&#x10a;" horiz-adv-x="1310" d="M780 1659q47 0 80 -33t33 -80t-33 -79.5t-80 -32.5t-79.5 32.5t-32.5 79.5t32.5 80t79.5 33zM1200 281q6 10 15.5 17t21.5 13t14 8q10 7 15 -14q5 -20 2 -39q-23 -145 -68 -213q-4 -8 -17.5 -13t-39 -13.5t-43.5 -16.5q-88 -41 -344 -41q-276 0 -469 205t-193 488 q0 293 221.5 494.5t524.5 201.5q143 0 216.5 -24.5t155.5 -37.5q23 -4 27 -61q14 -111 16 -223q2 -16 -3 -32.5t-19 -14.5q-41 4 -53 75q-12 94 -72 150q-104 104 -301 104q-219 0 -363.5 -175t-144.5 -408q0 -170 61.5 -324t183.5 -254t275 -100q254 0 381 248z" />
<glyph unicode="&#x10b;" horiz-adv-x="878" d="M435 1163q0 44 29.5 74.5t73.5 30.5q45 0 74.5 -30t29.5 -75q0 -43 -30 -72.5t-74 -29.5q-43 0 -73 29.5t-30 72.5zM539 938q94 0 147 -16q12 -4 58.5 -13.5t58.5 -13.5q10 -2 18 -43q8 -88 10 -156q0 -10 -9 -22t-17 -10q-41 4 -45 45q-8 70 -51 112q-23 23 -81.5 38 t-121.5 15q-145 0 -228 -116.5t-83 -268.5q0 -174 92 -307t248 -139q80 -2 172 53q55 31 77 107q2 10 26 18t36 8q18 0 14 -36q-4 -25 -27.5 -80.5t-39.5 -81.5q-10 -20 -111.5 -40t-192.5 -20q-188 0 -326 143.5t-138 340.5q0 205 152.5 344t361.5 139z" />
<glyph unicode="&#x10c;" horiz-adv-x="1310" d="M801 1575q27 16 87 45t109 55q53 31 72 31q23 0 29 -15.5t-13 -31.5l-221 -180q-63 -43 -84 -45q-14 0 -28.5 6t-20.5 11l-35 28l-221 180q-18 16 -12 30.5t29 14.5q43 0 106 -37l162 -92q16 -10 20.5 -10t20.5 10zM1200 281q6 10 15.5 17t21.5 13t14 8q10 7 15 -14 q5 -20 2 -39q-23 -145 -68 -213q-4 -8 -17.5 -13t-39 -13.5t-43.5 -16.5q-88 -41 -344 -41q-276 0 -469 205t-193 488q0 293 221.5 494.5t524.5 201.5q143 0 216.5 -24.5t155.5 -37.5q23 -4 27 -61q14 -111 16 -223q2 -16 -3 -32.5t-19 -14.5q-41 4 -53 75q-12 94 -72 150 q-104 104 -301 104q-219 0 -363.5 -175t-144.5 -408q0 -170 61.5 -324t183.5 -254t275 -100q254 0 381 248z" />
<glyph unicode="&#x10d;" horiz-adv-x="878" d="M395 1436l144 -197l141 197q27 37 59 37q12 0 18.5 -12.5t-1.5 -30.5q-109 -221 -160 -310q-35 -59 -57.5 -59t-57.5 59l-159 310q-8 18 -2 30.5t18 12.5q30 0 57 -37zM539 938q94 0 147 -16q12 -4 58.5 -13.5t58.5 -13.5q10 -2 18 -43q8 -88 10 -156q0 -10 -9 -22 t-17 -10q-41 4 -45 45q-8 70 -51 112q-23 23 -81.5 38t-121.5 15q-145 0 -228 -116.5t-83 -268.5q0 -174 92 -307t248 -139q80 -2 172 53q55 31 77 107q2 10 26 18t36 8q18 0 14 -36q-4 -25 -27.5 -80.5t-39.5 -81.5q-10 -20 -111.5 -40t-192.5 -20q-188 0 -326 143.5 t-138 340.5q0 205 152.5 344t361.5 139z" />
<glyph unicode="&#x10e;" horiz-adv-x="1544" d="M721 1575q27 16 87 45l110 55q53 31 71 31q23 0 29 -15.5t-12 -31.5l-222 -180q-55 -45 -83.5 -45t-84.5 45l-221 180q-18 16 -12 30.5t29 14.5q43 0 106 -37l162 -92q16 -10 20.5 -10t20.5 10zM340 0q-41 0 -102.5 -5t-118.5 -5q-59 0 -60 22q0 25 68 37q78 14 107.5 47 t29.5 107v921q0 72 -29.5 104t-107.5 46q-68 12 -68 41q0 23 59.5 22.5t117 -2.5t96.5 -2q43 -2 192.5 7.5t171.5 9.5q397 0 571.5 -173t174.5 -491q0 -289 -195.5 -494.5t-486.5 -205.5q-8 0 -166 7t-254 7zM1247 709q0 246 -151.5 411.5t-388.5 165.5q-66 0 -99 -1 t-73.5 -7t-59 -19.5t-32 -37t-13.5 -60.5v-913q0 -57 17.5 -87t54.5 -59q31 -23 65.5 -33t57 -11t73 1t72.5 2q150 0 261.5 98.5t163.5 243t52 306.5z" />
<glyph unicode="&#x10f;" horiz-adv-x="1062" d="M363 1417l143 -196l142 196q26 37 59 37q13 0 19 -12.5t-2 -30.5q-109 -221 -160 -309q-34 -59 -57.5 -59.5t-57.5 59.5l-59 111l-71 138l-30 60q-8 18 -2 30.5t19 12.5q30 0 57 -37zM371 88q27 -20 176 -20q129 0 223 98q92 100 92 330q0 131 -99 248.5t-259 119.5 q-180 0 -180 -80v-598q0 -61 47 -98zM539 -6q-6 0 -111.5 6t-171.5 6q-49 0 -126 -3t-87 -3q-8 0 -8 23.5t8 25.5q55 14 88 49q37 39 39 84v535q0 82 -18 102q-20 23 -31.5 30t-50.5 17q-6 2 -10.5 14.5t-3.5 25t12 12.5q29 0 82 -2.5t86 -2.5q27 0 136 7.5t126 7.5 q260 0 400 -128t138 -319q-2 -182 -110 -319q-55 -70 -159.5 -119t-227.5 -49z" />
<glyph unicode="&#x110;" horiz-adv-x="1544" d="M143 723h629q12 0 21.5 -9t5.5 -20q-25 -45 -64 -45h-612q-12 0 -20.5 12.5t-8.5 24.5q0 14 15.5 25.5t33.5 11.5zM340 0q-41 0 -102.5 -5t-118.5 -5q-59 0 -60 22q0 25 68 37q78 14 107.5 47t29.5 107v921q0 72 -29.5 104t-107.5 46q-68 12 -68 41q0 23 59.5 22.5 t117 -2.5t96.5 -2q43 -2 192.5 7.5t171.5 9.5q397 0 571.5 -173t174.5 -491q0 -289 -195.5 -494.5t-486.5 -205.5q-8 0 -166 7t-254 7zM1247 709q0 246 -151.5 411.5t-388.5 165.5q-66 0 -99 -1t-73.5 -7t-59 -19.5t-32 -37t-13.5 -60.5v-913q0 -57 17.5 -87t54.5 -59 q31 -23 65.5 -33t57 -11t73 1t72.5 2q150 0 261.5 98.5t163.5 243t52 306.5z" />
<glyph unicode="&#x111;" horiz-adv-x="1062" d="M459 1169h571q12 0 21.5 -9t5.5 -19q-25 -45 -64 -45h-555q-12 0 -20 12t-8 25q0 14 15.5 25t33.5 11zM371 88q27 -20 176 -20q129 0 223 98q92 100 92 330q0 131 -99 248.5t-259 119.5q-180 0 -180 -80v-598q0 -61 47 -98zM539 -6q-6 0 -111.5 6t-171.5 6q-49 0 -126 -3 t-87 -3q-8 0 -8 23.5t8 25.5q55 14 88 49q37 39 39 84v535q0 82 -18 102q-20 23 -31.5 30t-50.5 17q-6 2 -10.5 14.5t-3.5 25t12 12.5q29 0 82 -2.5t86 -2.5q27 0 136 7.5t126 7.5q260 0 400 -128t138 -319q-2 -182 -110 -319q-55 -70 -159.5 -119t-227.5 -49z" />
<glyph unicode="&#x112;" horiz-adv-x="1107" d="M299 1591h539q12 0 21 -9t5 -19q-1 -3 -4 -13t-4.5 -13.5t-4.5 -12t-5.5 -12t-6 -10t-7.5 -9.5l-8 -7q-4 -4 -10.5 -4.5t-12.5 -0.5h-523q-11 0 -19.5 7.5t-8.5 16.5q0 24 12 55t37 31zM442 766q0 -45 21 -45h213q57 0 90 31q23 20 35 49q4 8 17 21.5t20 13.5 q8 0 18 -10.5t8 -22.5q-8 -96 0 -252q0 -35 -18 -35q-33 0 -47 47q-23 72 -97 80q-129 18 -210 4q-51 -10 -50 -51q0 -51 7 -365q2 -80 31.5 -119.5t97.5 -39.5h213q16 0 77.5 12t77.5 25q39 31 86 129q10 23 29 20q12 0 20.5 -7t5.5 -18q-12 -119 -34 -208q-8 -35 -29 -35 q-137 0 -355 6t-315 6q-43 0 -110.5 -6t-124.5 -6q-59 0 -60 22q0 25 68 37q80 14 116 48t36 106v921q0 72 -30 104t-108 46q-68 12 -67 41q0 23 59 22q47 0 211 -4q141 -4 372.5 0t241.5 4q35 0 37 -18q23 -119 25 -211q0 -18 -29 -18q-16 0 -22 20q-25 74 -47 100 q-49 55 -138 56h-268q-18 0 -40.5 -19.5t-24.5 -42.5q-9 -65 -9 -438z" />
<glyph unicode="&#x113;" horiz-adv-x="862" d="M205 1186h457q12 0 21 -9.5t5 -19.5q-8 -25 -13 -37t-18.5 -24.5t-31.5 -12.5h-441q-10 0 -19 7.5t-9 17.5q0 20 13 49t36 29zM526 442q-98 14 -176 2q-35 -6 -35 -34q0 -66 4 -226q4 -104 89 -104h180q10 0 48 8t50 16q37 31 66 95q8 14 30 14q18 0 19 -16 q-8 -82 -35 -177q-4 -25 -18 -24q-104 0 -269.5 5t-228.5 5l-219 -12q-4 0 -7.5 12t-1 24.5t8.5 12.5q63 18 92 43q39 35 39 76v569q0 84 -19 103q-6 6 -10 11t-9 8t-8 5t-11.5 5t-12.5 4t-16.5 5.5t-20.5 6.5q-10 2 -11 22.5t11 20.5q29 0 81 -2t85 -2q78 0 193.5 2 t193.5 3t94 1q23 0 25 -13q23 -117 23 -188q0 -12 -23 -12q-10 0 -16 14q-18 55 -41 78q-31 37 -86 37h-217q-12 0 -22.5 -11.5t-12.5 -25.5q-10 -57 -13 -109q-4 -135 -4 -145q0 -31 15 -31h178q39 0 61 21q18 18 25 36q18 27 29 27q6 0 13 -7t5 -15q-6 -82 0 -207 q4 -25 -12 -25q-18 0 -37 39q-13 45 -66 55z" />
<glyph unicode="&#x114;" horiz-adv-x="1107" d="M315 1690q26 -47 86.5 -88t155.5 -41t155.5 40.5t86.5 88.5q24 43 45 43q20 0 20 -50q0 -100 -93 -183t-214 -83q-125 0 -216 76.5t-91 189.5q0 49 20 50q21 0 45 -43zM442 766q0 -45 21 -45h213q57 0 90 31q23 20 35 49q4 8 17 21.5t20 13.5q8 0 18 -10.5t8 -22.5 q-8 -96 0 -252q0 -35 -18 -35q-33 0 -47 47q-23 72 -97 80q-129 18 -210 4q-51 -10 -50 -51q0 -51 7 -365q2 -80 31.5 -119.5t97.5 -39.5h213q16 0 77.5 12t77.5 25q39 31 86 129q10 23 29 20q12 0 20.5 -7t5.5 -18q-12 -119 -34 -208q-8 -35 -29 -35q-137 0 -355 6t-315 6 q-43 0 -110.5 -6t-124.5 -6q-59 0 -60 22q0 25 68 37q80 14 116 48t36 106v921q0 72 -30 104t-108 46q-68 12 -67 41q0 23 59 22q47 0 211 -4q141 -4 372.5 0t241.5 4q35 0 37 -18q23 -119 25 -211q0 -18 -29 -18q-16 0 -22 20q-25 74 -47 100q-49 55 -138 56h-268 q-18 0 -40.5 -19.5t-24.5 -42.5q-9 -65 -9 -438z" />
<glyph unicode="&#x115;" horiz-adv-x="862" d="M268 1227q4 -8 17.5 -38t23.5 -46.5t40 -31.5t73 -15t72.5 15t40 31.5t23.5 46.5t17 38q2 2 8.5 17.5t11.5 20.5t15 5q31 0 31 -49q0 -102 -57.5 -170t-161.5 -68q-106 0 -162.5 61.5t-56.5 176.5q0 49 30 49q10 0 15.5 -5t11.5 -20.5t8 -17.5zM526 442q-98 14 -176 2 q-35 -6 -35 -34q0 -66 4 -226q4 -104 89 -104h180q10 0 48 8t50 16q37 31 66 95q8 14 30 14q18 0 19 -16q-8 -82 -35 -177q-4 -25 -18 -24q-104 0 -269.5 5t-228.5 5l-219 -12q-4 0 -7.5 12t-1 24.5t8.5 12.5q63 18 92 43q39 35 39 76v569q0 84 -19 103q-6 6 -10 11t-9 8 t-8 5t-11.5 5t-12.5 4t-16.5 5.5t-20.5 6.5q-10 2 -11 22.5t11 20.5q29 0 81 -2t85 -2q78 0 193.5 2t193.5 3t94 1q23 0 25 -13q23 -117 23 -188q0 -12 -23 -12q-10 0 -16 14q-18 55 -41 78q-31 37 -86 37h-217q-12 0 -22.5 -11.5t-12.5 -25.5q-10 -57 -13 -109 q-4 -135 -4 -145q0 -31 15 -31h178q39 0 61 21q18 18 25 36q18 27 29 27q6 0 13 -7t5 -15q-6 -82 0 -207q4 -25 -12 -25q-18 0 -37 39q-13 45 -66 55z" />
<glyph unicode="&#x116;" horiz-adv-x="1107" d="M557 1659q46 0 79.5 -33.5t33.5 -79.5t-33.5 -79t-79.5 -33t-79.5 33t-33.5 79t33.5 79.5t79.5 33.5zM442 766q0 -45 21 -45h213q57 0 90 31q23 20 35 49q4 8 17 21.5t20 13.5q8 0 18 -10.5t8 -22.5q-8 -96 0 -252q0 -35 -18 -35q-33 0 -47 47q-23 72 -97 80 q-129 18 -210 4q-51 -10 -50 -51q0 -51 7 -365q2 -80 31.5 -119.5t97.5 -39.5h213q16 0 77.5 12t77.5 25q39 31 86 129q10 23 29 20q12 0 20.5 -7t5.5 -18q-12 -119 -34 -208q-8 -35 -29 -35q-137 0 -355 6t-315 6q-43 0 -110.5 -6t-124.5 -6q-59 0 -60 22q0 25 68 37 q80 14 116 48t36 106v921q0 72 -30 104t-108 46q-68 12 -67 41q0 23 59 22q47 0 211 -4q141 -4 372.5 0t241.5 4q35 0 37 -18q23 -119 25 -211q0 -18 -29 -18q-16 0 -22 20q-25 74 -47 100q-49 55 -138 56h-268q-18 0 -40.5 -19.5t-24.5 -42.5q-9 -65 -9 -438z" />
<glyph unicode="&#x117;" horiz-adv-x="862" d="M322 1153q0 45 29.5 74.5t72.5 29.5q45 0 74.5 -29.5t29.5 -74.5q0 -43 -29.5 -72.5t-74.5 -29.5q-43 0 -72.5 29.5t-29.5 72.5zM526 442q-98 14 -176 2q-35 -6 -35 -34q0 -66 4 -226q4 -104 89 -104h180q10 0 48 8t50 16q37 31 66 95q8 14 30 14q18 0 19 -16 q-8 -82 -35 -177q-4 -25 -18 -24q-104 0 -269.5 5t-228.5 5l-219 -12q-4 0 -7.5 12t-1 24.5t8.5 12.5q63 18 92 43q39 35 39 76v569q0 84 -19 103q-6 6 -10 11t-9 8t-8 5t-11.5 5t-12.5 4t-16.5 5.5t-20.5 6.5q-10 2 -11 22.5t11 20.5q29 0 81 -2t85 -2q78 0 193.5 2 t193.5 3t94 1q23 0 25 -13q23 -117 23 -188q0 -12 -23 -12q-10 0 -16 14q-18 55 -41 78q-31 37 -86 37h-217q-12 0 -22.5 -11.5t-12.5 -25.5q-10 -57 -13 -109q-4 -135 -4 -145q0 -31 15 -31h178q39 0 61 21q18 18 25 36q18 27 29 27q6 0 13 -7t5 -15q-6 -82 0 -207 q4 -25 -12 -25q-18 0 -37 39q-13 45 -66 55z" />
<glyph unicode="&#x118;" horiz-adv-x="1163" d="M313 1331q100 0 246 2t245 3t122 1q35 0 37 -18q23 -119 24 -211q0 -18 -29 -18q-16 0 -22 20q-25 74 -47 100q-49 55 -137 56h-269q-16 0 -31.5 -17.5t-19.5 -36.5q-12 -59 -16 -147q-6 -147 -6 -299q0 -45 20 -45h213q57 0 90 31q23 20 35 49q4 8 17.5 21.5t19.5 13.5 q8 0 18.5 -10.5t7.5 -22.5q-8 -96 0 -252q0 -35 -18 -35q-33 0 -47 47q-23 72 -96 80q-127 18 -211 4q-51 -8 -49 -51q0 -190 6 -365q2 -70 32.5 -114.5t96.5 -44.5h213q16 0 77.5 12t77.5 25q39 31 86 129q10 20 29 20q12 -2 20.5 -8t6.5 -17q-12 -119 -35 -208 q-8 -35 -29 -35h-96q-90 -80 -132 -147.5t-42 -159.5q0 -53 40 -89t95 -36q25 0 54.5 11t49.5 25l40 30q20 14 24 16q8 6 16.5 3t8.5 -16q0 -20 -25 -65q-29 -47 -101.5 -98.5t-142.5 -51.5q-96 0 -164.5 67.5t-68.5 164.5q0 106 60.5 179t215.5 169q-35 0 -221 6t-278 6 q-43 0 -112 -7t-126 -7q-59 0 -59 22q0 25 67 37q80 14 116 48t36 106v921q0 72 -30 104t-107 46q-68 12 -68 41q0 23 59.5 22.5t116.5 -3.5t96 -3z" />
<glyph unicode="&#x119;" horiz-adv-x="862" d="M637 37h53q-184 -155 -184 -348q0 -66 34.5 -103.5t88.5 -37.5q60 0 112 41q6 5 16 0.5t9 -13.5q-5 -31 -33 -63l-7 -10q-8 -11 -14 -17l-19 -18q-12 -12 -25 -20.5t-29.5 -17t-36.5 -13t-41 -4.5q-93 0 -150 56t-57 165q0 87 78 203.5t205 199.5zM526 442q-98 14 -176 2 q-35 -6 -35 -34q0 -66 4 -226q4 -104 89 -104h180q10 0 48 8t50 16q37 31 66 95q8 14 30 14q18 0 19 -16q-8 -82 -35 -177q-4 -25 -18 -24q-104 0 -269.5 5t-228.5 5l-219 -12q-4 0 -7.5 12t-1 24.5t8.5 12.5q63 18 92 43q39 35 39 76v569q0 84 -19 103q-6 6 -10 11t-9 8 t-8 5t-11.5 5t-12.5 4t-16.5 5.5t-20.5 6.5q-10 2 -11 22.5t11 20.5q29 0 81 -2t85 -2q78 0 193.5 2t193.5 3t94 1q23 0 25 -13q23 -117 23 -188q0 -12 -23 -12q-10 0 -16 14q-18 55 -41 78q-31 37 -86 37h-217q-12 0 -22.5 -11.5t-12.5 -25.5q-10 -57 -13 -109 q-4 -135 -4 -145q0 -31 15 -31h178q39 0 61 21q18 18 25 36q18 27 29 27q6 0 13 -7t5 -15q-6 -82 0 -207q4 -25 -12 -25q-18 0 -37 39q-13 45 -66 55z" />
<glyph unicode="&#x11a;" horiz-adv-x="1107" d="M577 1575q27 16 87.5 45t109.5 55q53 31 72 31q23 0 28.5 -16t-12.5 -31l-221 -180q-3 -3 -11 -9l-10 -9l-9 -7q-7 -4 -9 -6l-7 -4q-5 -3 -7.5 -4t-6.5 -3t-7.5 -2t-7.5 -0.5t-9 -0.5q-15 0 -29 6t-20 11l-35 28l-221 180q-18 15 -12.5 30t28.5 15q43 0 107 -37 q26 -14 161 -92q17 -11 20.5 -11t20.5 11zM442 766q0 -45 21 -45h213q57 0 90 31q23 20 35 49q4 8 17 21.5t20 13.5q8 0 18 -10.5t8 -22.5q-8 -96 0 -252q0 -35 -18 -35q-33 0 -47 47q-23 72 -97 80q-129 18 -210 4q-51 -10 -50 -51q0 -51 7 -365q2 -80 31.5 -119.5 t97.5 -39.5h213q16 0 77.5 12t77.5 25q39 31 86 129q10 23 29 20q12 0 20.5 -7t5.5 -18q-12 -119 -34 -208q-8 -35 -29 -35q-137 0 -355 6t-315 6q-43 0 -110.5 -6t-124.5 -6q-59 0 -60 22q0 25 68 37q80 14 116 48t36 106v921q0 72 -30 104t-108 46q-68 12 -67 41 q0 23 59 22q47 0 211 -4q141 -4 372.5 0t241.5 4q35 0 37 -18q23 -119 25 -211q0 -18 -29 -18q-16 0 -22 20q-25 74 -47 100q-49 55 -138 56h-268q-18 0 -40.5 -19.5t-24.5 -42.5q-9 -65 -9 -438z" />
<glyph unicode="&#x11b;" horiz-adv-x="862" d="M279 1407l143 -197l141 197q27 37 60 37q12 0 18 -12.5t-2 -30.5q-109 -221 -160 -309q-35 -59 -57.5 -59.5t-56.5 59.5l-160 309q-8 18 -2 30.5t18 12.5q31 0 58 -37zM526 442q-98 14 -176 2q-35 -6 -35 -34q0 -66 4 -226q4 -104 89 -104h180q10 0 48 8t50 16 q37 31 66 95q8 14 30 14q18 0 19 -16q-8 -82 -35 -177q-4 -25 -18 -24q-104 0 -269.5 5t-228.5 5l-219 -12q-4 0 -7.5 12t-1 24.5t8.5 12.5q63 18 92 43q39 35 39 76v569q0 84 -19 103q-6 6 -10 11t-9 8t-8 5t-11.5 5t-12.5 4t-16.5 5.5t-20.5 6.5q-10 2 -11 22.5t11 20.5 q29 0 81 -2t85 -2q78 0 193.5 2t193.5 3t94 1q23 0 25 -13q23 -117 23 -188q0 -12 -23 -12q-10 0 -16 14q-18 55 -41 78q-31 37 -86 37h-217q-12 0 -22.5 -11.5t-12.5 -25.5q-10 -57 -13 -109q-4 -135 -4 -145q0 -31 15 -31h178q39 0 61 21q18 18 25 36q18 27 29 27 q6 0 13 -7t5 -15q-6 -82 0 -207q4 -25 -12 -25q-18 0 -37 39q-13 45 -66 55z" />
<glyph unicode="&#x11c;" horiz-adv-x="1492" d="M840 1563q-16 10 -20.5 10t-20.5 -10l-162 -93q-63 -37 -107 -36q-23 0 -28.5 14t12.5 31l221 180q55 45 84 45t84 -45l221 -180q18 -16 12 -31.5t-28 -15.5q-18 0 -72 30q-49 27 -109 56t-87 45zM1272 1278q23 -158 22 -229q0 -16 -9 -28.5t-21 -12.5q-29 0 -47 55 q-23 61 -64 108q-29 37 -114 73t-212 36q-227 0 -379.5 -164t-152.5 -407q0 -264 145.5 -464t380.5 -198q162 2 273 76q49 33 49 158q0 16 2 64t1 77t-9 39q-23 31 -90.5 47t-110.5 16q-10 0 -25.5 10.5t-15.5 24.5t15.5 24.5t25.5 10.5q49 0 125 -4t133 -4q35 0 90 4t92 4 q43 0 43 -33q0 -12 -16.5 -23.5t-26.5 -13.5q-43 -12 -61.5 -34.5t-24.5 -65.5q-12 -74 -10 -209q0 -12 12 -33q4 -6 15.5 -17t11.5 -18q0 -23 -29 -36q-123 -63 -219 -93q-160 -47 -254 -47q-297 0 -511 205t-214 498q0 291 224.5 487.5t529.5 196.5q86 0 255 -30t171 -50z " />
<glyph unicode="&#x11d;" horiz-adv-x="1038" d="M451 1090q-27 -37 -58 -37q-12 0 -18 12t2 31q117 233 160 309q35 59 57 59t57 -59l160 -309q8 -18 2 -30.5t-18 -12.5q-33 0 -60 37l-141 196zM557 49q102 0 180 45q43 29 43 115q0 12 2 42t1 46t-7 25q-18 20 -62 31.5t-75 11.5q-18 0 -29 53q0 16 6 16q43 0 109 -3 t104 -3q33 0 84.5 2t75.5 2q18 0 19 -12q0 -49 -15 -55q-76 -23 -80 -68q-6 -66 -6 -145q0 -8 8 -23q2 -4 10.5 -11t8.5 -12q0 -16 -21 -26q-98 -53 -161 -72q-113 -33 -197 -33q-209 0 -361.5 138.5t-152.5 341t167 339t386 136.5q145 0 233 -29q45 -14 52 -41 q27 -106 26 -160q0 -29 -22 -28q-20 0 -39 12t-23 27q-23 63 -47 94q-55 61 -211 59q-150 -2 -250 -109.5t-100 -267.5q0 -176 95 -307t249 -131z" />
<glyph unicode="&#x11e;" horiz-adv-x="1492" d="M578 1690q27 -47 87 -88t154 -41t154.5 40.5t87.5 88.5q25 43 45 43t20 -50q0 -100 -93 -183t-214 -83q-125 0 -216 77t-91 189q0 49 20.5 49.5t45.5 -42.5zM1272 1278q23 -158 22 -229q0 -16 -9 -28.5t-21 -12.5q-29 0 -47 55q-23 61 -64 108q-29 37 -114 73t-212 36 q-227 0 -379.5 -164t-152.5 -407q0 -264 145.5 -464t380.5 -198q162 2 273 76q49 33 49 158q0 16 2 64t1 77t-9 39q-23 31 -90.5 47t-110.5 16q-10 0 -25.5 10.5t-15.5 24.5t15.5 24.5t25.5 10.5q49 0 125 -4t133 -4q35 0 90 4t92 4q43 0 43 -33q0 -12 -16.5 -23.5 t-26.5 -13.5q-43 -12 -61.5 -34.5t-24.5 -65.5q-12 -74 -10 -209q0 -12 12 -33q4 -6 15.5 -17t11.5 -18q0 -23 -29 -36q-123 -63 -219 -93q-160 -47 -254 -47q-297 0 -511 205t-214 498q0 291 224.5 487.5t529.5 196.5q86 0 255 -30t171 -50z" />
<glyph unicode="&#x11f;" horiz-adv-x="1038" d="M440 1296q4 -8 17.5 -37.5t24 -46t40 -32t72.5 -15.5t72.5 15.5t40 32t23.5 46t18 37.5q2 2 8 17.5t11 20.5t15 5q31 0 31 -49q0 -102 -57.5 -169.5t-161.5 -67.5q-106 0 -162.5 61.5t-56.5 175.5q0 49 31 49q10 0 15 -5t11 -20.5t8 -17.5zM557 49q102 0 180 45 q43 29 43 115q0 12 2 42t1 46t-7 25q-18 20 -62 31.5t-75 11.5q-18 0 -29 53q0 16 6 16q43 0 109 -3t104 -3q33 0 84.5 2t75.5 2q18 0 19 -12q0 -49 -15 -55q-76 -23 -80 -68q-6 -66 -6 -145q0 -8 8 -23q2 -4 10.5 -11t8.5 -12q0 -16 -21 -26q-98 -53 -161 -72 q-113 -33 -197 -33q-209 0 -361.5 138.5t-152.5 341t167 339t386 136.5q145 0 233 -29q45 -14 52 -41q27 -106 26 -160q0 -29 -22 -28q-20 0 -39 12t-23 27q-23 63 -47 94q-55 61 -211 59q-150 -2 -250 -109.5t-100 -267.5q0 -176 95 -307t249 -131z" />
<glyph unicode="&#x120;" horiz-adv-x="1492" d="M819 1659q45 0 79 -33t34 -80t-34 -79.5t-79 -32.5t-78.5 32.5t-33.5 79.5t33.5 80t78.5 33zM1272 1278q23 -158 22 -229q0 -16 -9 -28.5t-21 -12.5q-29 0 -47 55q-23 61 -64 108q-29 37 -114 73t-212 36q-227 0 -379.5 -164t-152.5 -407q0 -264 145.5 -464t380.5 -198 q162 2 273 76q49 33 49 158q0 16 2 64t1 77t-9 39q-23 31 -90.5 47t-110.5 16q-10 0 -25.5 10.5t-15.5 24.5t15.5 24.5t25.5 10.5q49 0 125 -4t133 -4q35 0 90 4t92 4q43 0 43 -33q0 -12 -16.5 -23.5t-26.5 -13.5q-43 -12 -61.5 -34.5t-24.5 -65.5q-12 -74 -10 -209 q0 -12 12 -33q4 -6 15.5 -17t11.5 -18q0 -23 -29 -36q-123 -63 -219 -93q-160 -47 -254 -47q-297 0 -511 205t-214 498q0 291 224.5 487.5t529.5 196.5q86 0 255 -30t171 -50z" />
<glyph unicode="&#x121;" horiz-adv-x="1038" d="M490 1155q0 44 30 74.5t73 30.5q45 0 74.5 -30t29.5 -75q0 -43 -30 -72.5t-74 -29.5q-43 0 -73 29.5t-30 72.5zM557 49q102 0 180 45q43 29 43 115q0 12 2 42t1 46t-7 25q-18 20 -62 31.5t-75 11.5q-18 0 -29 53q0 16 6 16q43 0 109 -3t104 -3q33 0 84.5 2t75.5 2 q18 0 19 -12q0 -49 -15 -55q-76 -23 -80 -68q-6 -66 -6 -145q0 -8 8 -23q2 -4 10.5 -11t8.5 -12q0 -16 -21 -26q-98 -53 -161 -72q-113 -33 -197 -33q-209 0 -361.5 138.5t-152.5 341t167 339t386 136.5q145 0 233 -29q45 -14 52 -41q27 -106 26 -160q0 -29 -22 -28 q-20 0 -39 12t-23 27q-23 63 -47 94q-55 61 -211 59q-150 -2 -250 -109.5t-100 -267.5q0 -176 95 -307t249 -131z" />
<glyph unicode="&#x122;" horiz-adv-x="1492" d="M785 -297q-38 9 -69.5 34.5t-31.5 56.5q0 38 25.5 63.5t68.5 25.5q74 0 127 -57t53 -141q0 -92 -62 -161t-144 -85q-23 -4 -34 3t-5 20.5t26 19.5q55 20 82.5 66.5t27.5 96.5q-1 44 -64 58zM1272 1278q23 -158 22 -229q0 -16 -9 -28.5t-21 -12.5q-29 0 -47 55 q-23 61 -64 108q-29 37 -114 73t-212 36q-227 0 -379.5 -164t-152.5 -407q0 -264 145.5 -464t380.5 -198q162 2 273 76q49 33 49 158q0 16 2 64t1 77t-9 39q-23 31 -90.5 47t-110.5 16q-10 0 -25.5 10.5t-15.5 24.5t15.5 24.5t25.5 10.5q49 0 125 -4t133 -4q35 0 90 4t92 4 q43 0 43 -33q0 -12 -16.5 -23.5t-26.5 -13.5q-43 -12 -61.5 -34.5t-24.5 -65.5q-12 -74 -10 -209q0 -12 12 -33q4 -6 15.5 -17t11.5 -18q0 -23 -29 -36q-123 -63 -219 -93q-160 -47 -254 -47q-297 0 -511 205t-214 498q0 291 224.5 487.5t529.5 196.5q86 0 255 -30t171 -50z " />
<glyph unicode="&#x123;" horiz-adv-x="1038" d="M570 -301q-38 9 -69.5 34.5t-31.5 56.5q0 38 25.5 63.5t68.5 25.5q74 0 127 -57.5t53 -140.5q0 -92 -62.5 -161t-143.5 -85q-23 -4 -34 3t-5 20.5t26 19.5q55 20 82.5 66.5t27.5 96.5q-1 44 -64 58zM557 49q102 0 180 45q43 29 43 115q0 12 2 42t1 46t-7 25 q-18 20 -62 31.5t-75 11.5q-18 0 -29 53q0 16 6 16q43 0 109 -3t104 -3q33 0 84.5 2t75.5 2q18 0 19 -12q0 -49 -15 -55q-76 -23 -80 -68q-6 -66 -6 -145q0 -8 8 -23q2 -4 10.5 -11t8.5 -12q0 -16 -21 -26q-98 -53 -161 -72q-113 -33 -197 -33q-209 0 -361.5 138.5 t-152.5 341t167 339t386 136.5q145 0 233 -29q45 -14 52 -41q27 -106 26 -160q0 -29 -22 -28q-20 0 -39 12t-23 27q-23 63 -47 94q-55 61 -211 59q-150 -2 -250 -109.5t-100 -267.5q0 -176 95 -307t249 -131z" />
<glyph unicode="&#x124;" horiz-adv-x="1685" d="M887 1563q-17 11 -20.5 10.5t-20.5 -10.5q-136 -79 -162 -93q-63 -37 -107 -36q-23 0 -28.5 14.5t12.5 30.5l221 180q3 3 11 9l11 8l8 7q6 5 8.5 6t7.5 4.5t7.5 4t6.5 2.5t7.5 2.5t8 1t8.5 0.5q15 0 28.5 -6t20.5 -11t35 -28l221 -180q18 -15 12.5 -31t-28.5 -16 q-19 0 -72 30l-109 56q-60 30 -87 45zM1413 205q2 -82 21.5 -113t91.5 -43q68 -12 67 -37q0 -23 -59 -22.5t-116.5 5.5t-96.5 5t-99.5 -5t-120 -5t-59.5 22q0 25 68 37q139 27 139 150v405q0 14 -10 14q-477 8 -782 0q-10 0 -11 -22q0 -55 1.5 -175t1.5 -204 q0 -63 44 -109.5t115 -58.5q68 -12 68 -37q0 -23 -60 -22q-57 0 -125.5 5t-113.5 5q-41 0 -104.5 -5t-120.5 -5q-59 0 -60 22q0 25 68 37q74 14 98.5 46t24.5 108v925q0 76 -18.5 105t-90.5 41q-68 12 -68 41q0 23 59.5 22.5t117 -3.5t94.5 -3q39 0 98.5 3t118.5 3t59 -22 q0 -29 -67 -41q-139 -25 -140 -146v-393q0 -18 29 -18q438 -10 760 0q14 0 14 24q0 59 -1 183.5t-1 205.5q0 119 -133 144q-68 12 -67 41q0 23 59 22q57 0 124.5 -3t112.5 -3q31 0 79 3t107.5 3t59.5 -22q0 -29 -67 -41q-70 -12 -89.5 -44t-19.5 -100v-925z" />
<glyph unicode="&#x125;" d="M459 1085q-27 -37 -57 -36q-13 0 -19 12.5t3 30.5q116 233 159 309q34 59 57.5 59t57.5 -59q23 -39 63 -117l68 -135l29 -57q8 -18 2.5 -30.5t-18.5 -12.5q-33 0 -60 36l-141 197zM336 530q0 -12 20 -12q289 -6 500 0q10 0 10 17v237q0 29 -32 57q-27 23 -91 50 q-10 4 -10 25.5t10 21.5q45 0 102.5 -2t94.5 -2q39 0 100.5 2t104.5 2q12 0 11 -21.5t-11 -25.5q-72 -29 -96 -52q-29 -25 -29 -55v-604q0 -49 29 -76q41 -37 110 -49q16 -4 16.5 -26.5t-16.5 -22.5q-41 0 -108.5 5t-110.5 5q-41 0 -106.5 -5t-104.5 -5q-8 0 -13 11t-2 23.5 t15 14.5q72 14 111 49q27 25 26 76v264q0 10 -8 10q-301 6 -516 0q-6 0 -6 -14v-260q0 -49 29 -76q39 -37 108 -49q18 -4 18.5 -26.5t-18.5 -22.5q-41 0 -104.5 5t-104.5 5q-43 0 -111.5 -5t-107.5 -5q-8 0 -13 11t-2 23.5t15 14.5q72 14 111 49q27 25 26 76v604 q0 29 -32 57q-27 23 -91 50q-6 2 -9 14t0 22.5t9 10.5q45 0 105.5 -2t99.5 -2q37 0 94.5 2t100.5 2q12 0 12 -21.5t-12 -25.5q-70 -29 -94 -52q-29 -20 -29 -55v-242z" />
<glyph unicode="&#x126;" horiz-adv-x="1765" d="M1464 205q2 -82 21.5 -113t91.5 -43q68 -12 68 -37q0 -23 -59.5 -22.5t-117 5.5t-96.5 5q-41 0 -100.5 -5t-118.5 -5t-59 22q0 25 67 37q139 27 139 150v409q0 14 -10 15q-408 2 -827 0q-10 0 -10 -23q0 -55 1 -177t1 -206q0 -63 44 -109.5t115 -58.5q68 -12 68 -37 q0 -23 -59 -22q-57 0 -126 5t-114 5q-41 0 -104.5 -5t-120.5 -5q-59 0 -60 22q0 25 68 37q74 14 98.5 46t24.5 108v731h-133q-12 0 -20.5 12t-8.5 25q0 14 15.5 25.5t33.5 11.5h113v120q0 76 -18.5 105t-90.5 41q-68 12 -67 41q0 23 59 22.5t116.5 -3.5t94.5 -3q39 0 98.5 3 t118.5 3t59 -22q0 -29 -67 -41q-139 -25 -139 -146v-120h6h839v122q0 119 -133 144q-68 12 -67 41q0 23 59 22q57 0 126 -3t112 -3q33 0 80 3t106 3t59 -22q0 -29 -67 -41q-70 -12 -89.5 -44t-19.5 -100v-122h138q12 0 21 -9.5t5 -19.5q-25 -45 -63 -45h-101v-729zM1298 934 h-843h-2v-199q0 -18 28 -18q403 -8 805 0q14 0 14 24q0 125 -2 193z" />
<glyph unicode="&#x127;" horiz-adv-x="1017" d="M874 139q0 -63 89 -90q47 -16 47 -37q0 -18 -47 -18q-41 0 -83 5t-77 5t-73 -5t-79 -5q-47 0 -47 18q0 20 47 37q80 25 80 90v418q0 76 -61.5 130t-130.5 54q-113 0 -170 -45q-33 -27 -44.5 -56.5t-11.5 -90.5v-416q2 -61 78 -84q47 -16 47 -37q0 -18 -47 -18 q-41 0 -78 5t-71.5 5t-76.5 -5t-83 -5q-47 0 -47 18q0 20 47 37q27 8 42 15.5t30.5 24.5t15.5 44v969h-111q-12 0 -20 10t-8 21q0 14 15 25t34 11h90q-4 121 -92 140q-14 2 -15.5 25.5t13.5 25.5q51 12 237 82q10 4 19 -12q0 -6 -4 -30t-9.5 -82t-5.5 -149h287q12 0 21.5 -9 t5.5 -19q-20 -39 -64 -39h-250v-307q0 -55 17 -76q174 129 309 129q104 0 169.5 -64.5t65.5 -181.5v-463z" />
<glyph unicode="&#x128;" horiz-adv-x="784" d="M43 1511q39 55 97 106.5t81 51.5q26 0 161 -8t161 -8q24 0 57.5 21.5t58.5 54.5q5 7 16.5 -0.5t19 -19.5t3.5 -17q-33 -48 -90 -108t-78 -60q-26 0 -166 8t-165 8q-23 0 -55.5 -19t-57.5 -46q-8 -8 -28.5 9.5t-14.5 26.5zM309 1126q0 72 -29.5 103t-107.5 45 q-68 12 -68 41q0 23 60 22q57 0 125.5 -3t113.5 -3q41 0 103.5 3t120.5 3q59 0 59 -22q0 -29 -68 -41q-80 -14 -112.5 -46t-32.5 -102v-925q0 -70 40 -104t122 -48q68 -12 67 -37q0 -23 -59 -22q-57 0 -125.5 5t-114.5 5q-51 0 -128.5 -5t-133.5 -5q-59 0 -59 22q0 25 68 37 q82 14 120.5 48t38.5 104v925z" />
<glyph unicode="&#x129;" horiz-adv-x="501" d="M94 1053q43 61 96.5 113.5t81.5 52.5q18 0 105.5 -14.5t114.5 -14.5q18 0 30.5 3t32.5 20.5t47 50.5q4 6 15.5 -1.5t18.5 -18.5t3 -17q-39 -55 -92 -113.5t-80 -58.5q-18 0 -110.5 13t-118.5 13q-39 0 -113 -73q-4 -4 -14.5 3t-16.5 20.5t0 21.5zM416 772v-604 q0 -49 28 -76q39 -37 109 -49q18 -4 18 -26.5t-18 -22.5q-41 0 -104.5 5t-104.5 5q-43 0 -111.5 -5t-107.5 -5q-8 0 -13.5 11t-2 23.5t15.5 14.5q72 14 111 49q27 25 26 76v604q0 29 -33 57q-27 23 -90 50q-6 2 -9 14t0 22.5t9 10.5q45 0 105.5 -2t99.5 -2q37 0 94.5 2 t100.5 2q12 0 12 -21.5t-12 -25.5q-70 -29 -95 -52q-28 -20 -28 -55z" />
<glyph unicode="&#x12a;" horiz-adv-x="784" d="M113 1591h538q12 0 21 -9t6 -19l-4 -13q-4 -10 -5 -13.5t-4.5 -12t-5.5 -12.5l-6 -10q-4 -6 -7.5 -9t-8.5 -6.5t-10.5 -4.5t-12.5 -1h-522q-11 0 -20 7.5t-9 16.5q0 24 12.5 55t37.5 31zM309 1126q0 72 -29.5 103t-107.5 45q-68 12 -68 41q0 23 60 22q57 0 125.5 -3 t113.5 -3q41 0 103.5 3t120.5 3q59 0 59 -22q0 -29 -68 -41q-80 -14 -112.5 -46t-32.5 -102v-925q0 -70 40 -104t122 -48q68 -12 67 -37q0 -23 -59 -22q-57 0 -125.5 5t-114.5 5q-51 0 -128.5 -5t-133.5 -5q-59 0 -59 22q0 25 68 37q82 14 120.5 48t38.5 104v925z" />
<glyph unicode="&#x12b;" horiz-adv-x="501" d="M123 1186h457q12 0 21 -9.5t5 -19.5q-8 -25 -13 -37t-18.5 -24.5t-31.5 -12.5h-441q-10 0 -19 7.5t-9 17.5q0 20 13 49t36 29zM416 772v-604q0 -49 28 -76q39 -37 109 -49q18 -4 18 -26.5t-18 -22.5q-41 0 -104.5 5t-104.5 5q-43 0 -111.5 -5t-107.5 -5q-8 0 -13.5 11 t-2 23.5t15.5 14.5q72 14 111 49q27 25 26 76v604q0 29 -33 57q-27 23 -90 50q-6 2 -9 14t0 22.5t9 10.5q45 0 105.5 -2t99.5 -2q37 0 94.5 2t100.5 2q12 0 12 -21.5t-12 -25.5q-70 -29 -95 -52q-28 -20 -28 -55z" />
<glyph unicode="&#x12c;" horiz-adv-x="784" d="M129 1690q26 -47 86.5 -88t155 -41t155 40.5t86.5 88.5q24 43 45 43q20 0 21 -50q0 -100 -93.5 -183t-213.5 -83q-125 0 -216.5 76.5t-91.5 189.5q0 49 21 50q21 0 45 -43zM309 1126q0 72 -29.5 103t-107.5 45q-68 12 -68 41q0 23 60 22q57 0 125.5 -3t113.5 -3 q41 0 103.5 3t120.5 3q59 0 59 -22q0 -29 -68 -41q-80 -14 -112.5 -46t-32.5 -102v-925q0 -70 40 -104t122 -48q68 -12 67 -37q0 -23 -59 -22q-57 0 -125.5 5t-114.5 5q-51 0 -128.5 -5t-133.5 -5q-59 0 -59 22q0 25 68 37q82 14 120.5 48t38.5 104v925z" />
<glyph unicode="&#x12d;" horiz-adv-x="501" d="M186 1227q4 -8 17.5 -38t24 -46.5t40 -31.5t72.5 -15t72.5 15t40 31.5t23.5 46.5t18 38q2 2 8 17.5t11 20.5t15 5q31 0 31 -49q0 -102 -57.5 -170t-161.5 -68q-106 0 -162.5 61.5t-56.5 176.5q0 49 31 49q10 0 15 -5t11 -20.5t8 -17.5zM416 772v-604q0 -49 28 -76 q39 -37 109 -49q18 -4 18 -26.5t-18 -22.5q-41 0 -104.5 5t-104.5 5q-43 0 -111.5 -5t-107.5 -5q-8 0 -13.5 11t-2 23.5t15.5 14.5q72 14 111 49q27 25 26 76v604q0 29 -33 57q-27 23 -90 50q-6 2 -9 14t0 22.5t9 10.5q45 0 105.5 -2t99.5 -2q37 0 94.5 2t100.5 2 q12 0 12 -21.5t-12 -25.5q-70 -29 -95 -52q-28 -20 -28 -55z" />
<glyph unicode="&#x12e;" horiz-adv-x="722" d="M94 -6q-12 0 -18 11t-2 24.5t20 15.5q98 20 156 72q39 37 39 106v918q0 37 -47 80q-39 33 -127 69q-10 4 -13.5 15.5t0.5 20.5t13 9q66 0 133 -3t112 -3q51 0 128 3t139 3q18 0 16 -19.5t-16 -25.5q-100 -41 -135 -71q-39 -33 -39 -78v-918q0 -70 39 -106q57 -53 155 -72 q25 -4 25 -27.5t-25 -23.5q-59 0 -142 5t-124 5q-74 -78 -103.5 -147.5t-29.5 -173.5q0 -53 40 -89t95 -36q25 0 55 11q28 11 48 25l40 30q20 14 25 16q8 6 16 3t8 -16q0 -20 -24 -65q-29 -47 -101.5 -98.5t-142.5 -51.5q-96 0 -164.5 67.5t-68.5 164.5q0 190 235 360 q-184 -10 -215 -10z" />
<glyph unicode="&#x12f;" horiz-adv-x="657" d="M398 35h54q-184 -155 -185 -348q0 -66 34.5 -103.5t88.5 -37.5q60 0 113 41q6 5 16 0.5t8 -13.5q-5 -31 -32 -63l-8 -10q-9 -11 -15 -17l-18 -18q-12 -12 -25 -20.5t-29.5 -17t-36 -13t-40.5 -4.5q-93 0 -150 55.5t-57 165.5q0 87 77.5 203.5t204.5 199.5zM416 772v-604 q0 -49 28 -76q39 -37 109 -49q18 -4 18 -26.5t-18 -22.5q-41 0 -104.5 5t-104.5 5q-43 0 -111.5 -5t-107.5 -5q-8 0 -13.5 11t-2 23.5t15.5 14.5q72 14 111 49q27 25 26 76v604q0 29 -33 57q-27 23 -90 50q-6 2 -9 14t0 22.5t9 10.5q45 0 105.5 -2t99.5 -2q37 0 94.5 2 t100.5 2q12 0 12 -21.5t-12 -25.5q-70 -29 -95 -52q-28 -20 -28 -55z" />
<glyph unicode="&#x130;" horiz-adv-x="784" d="M371 1659q46 0 79 -33.5t33 -79.5t-33 -79t-79 -33t-79.5 33t-33.5 79t33.5 79.5t79.5 33.5zM309 1126q0 72 -29.5 103t-107.5 45q-68 12 -68 41q0 23 60 22q57 0 125.5 -3t113.5 -3q41 0 103.5 3t120.5 3q59 0 59 -22q0 -29 -68 -41q-80 -14 -112.5 -46t-32.5 -102v-925 q0 -70 40 -104t122 -48q68 -12 67 -37q0 -23 -59 -22q-57 0 -125.5 5t-114.5 5q-51 0 -128.5 -5t-133.5 -5q-59 0 -59 22q0 25 68 37q82 14 120.5 48t38.5 104v925z" />
<glyph unicode="&#x131;" horiz-adv-x="655" d="M416 772v-604q0 -49 28 -76q39 -37 109 -49q18 -4 18 -26.5t-18 -22.5q-41 0 -104.5 5t-104.5 5q-43 0 -111.5 -5t-107.5 -5q-8 0 -13.5 11t-2 23.5t15.5 14.5q72 14 111 49q27 25 26 76v604q0 29 -33 57q-27 23 -90 50q-6 2 -9 14t0 22.5t9 10.5q45 0 105.5 -2t99.5 -2 q37 0 94.5 2t100.5 2q12 0 12 -21.5t-12 -25.5q-70 -29 -95 -52q-28 -20 -28 -55z" />
<glyph unicode="&#x132;" horiz-adv-x="1370" d="M995 0v1128q2 70 -27.5 101t-107.5 45q-68 12 -67 41q0 23 59 22q57 0 126 -3t114 -3q33 0 83 3t109 3t59 -22q0 -29 -67 -41q-74 -12 -94.5 -42t-22.5 -104v-837q0 -154 -7 -254t-27.5 -162.5t-32 -83t-41.5 -65.5q-92 -131 -234 -136q-102 -2 -165.5 24t-63.5 62 q0 41 23.5 77t50.5 36q68 0 102 -53q41 -61 102 -60q129 7 129 324zM309 1126q0 72 -29.5 103t-107.5 45q-68 12 -68 41q0 23 60 22q57 0 125.5 -3t113.5 -3q41 0 103.5 3t120.5 3q59 0 59 -22q0 -29 -68 -41q-80 -14 -112.5 -46t-32.5 -102v-925q0 -70 40 -104t122 -48 q68 -12 67 -37q0 -23 -59 -22q-57 0 -125.5 5t-114.5 5q-51 0 -128.5 -5t-133.5 -5q-59 0 -59 22q0 25 68 37q82 14 120.5 48t38.5 104v925z" />
<glyph unicode="&#x133;" horiz-adv-x="874" d="M702 770q0 31 -32 59q-25 23 -90 50q-6 2 -9.5 14t-0.5 22.5t10 10.5q45 0 105 -2t99 -2q37 0 94.5 2t100.5 2q12 0 12 -21.5t-12 -25.5q-70 -29 -94 -52q-29 -20 -29 -57v-491q0 -221 -10 -297q-20 -152 -111 -244q-94 -96 -219 -96q-94 0 -143 16q-66 23 -68 63 q-2 68 64 97q23 10 48 -1.5t40 -29.5q45 -57 92 -57q84 0 113 41q33 47 36 123q4 80 4 282v594zM416 772v-604q0 -49 28 -76q39 -37 109 -49q18 -4 18 -26.5t-18 -22.5q-41 0 -104.5 5t-104.5 5q-43 0 -111.5 -5t-107.5 -5q-8 0 -13.5 11t-2 23.5t15.5 14.5q72 14 111 49 q27 25 26 76v604q0 29 -33 57q-27 23 -90 50q-6 2 -9 14t0 22.5t9 10.5q45 0 105.5 -2t99.5 -2q37 0 94.5 2t100.5 2q12 0 12 -21.5t-12 -25.5q-70 -29 -95 -52q-28 -20 -28 -55z" />
<glyph unicode="&#x134;" horiz-adv-x="579" d="M375 1563q-17 11 -20.5 10.5t-20.5 -10.5q-136 -79 -162 -93q-63 -37 -106 -36q-23 0 -29 14.5t13 30.5l221 180q3 3 11 9l10 8l9 7q6 5 8.5 6t7 4.5t7 4t7 2.5t8 2.5t7.5 1t9 0.5q15 0 29 -6t20 -11l35 -28l221 -180q18 -15 12.5 -31t-28.5 -16q-19 0 -72 30l-110 56 q-60 30 -87 45zM272 0v1128q2 70 -27.5 101t-107.5 45q-68 12 -67 41q0 23 59 22q57 0 126 -3t114 -3q33 0 83 3t109.5 3t59.5 -22q0 -29 -68 -41q-74 -12 -94.5 -42t-22.5 -104v-837q0 -154 -7 -254t-27.5 -162.5t-32 -83t-41.5 -65.5q-92 -131 -234 -136 q-102 -2 -165.5 24t-63.5 62q0 41 23.5 77t50.5 36q68 0 102 -53q41 -61 102 -60q129 7 129 324z" />
<glyph unicode="&#x135;" horiz-adv-x="434" d="M76 1085q-27 -37 -58 -36q-12 0 -18 12t2 31q117 233 160 309q35 59 57.5 59t56.5 -59l160 -309q8 -18 2 -30.5t-18 -12.5q-33 0 -60 36l-141 197zM215 770q0 31 -33 59q-25 23 -90 50q-6 2 -9 14t0 22.5t9 10.5q45 0 105.5 -2t99.5 -2q37 0 94.5 2t100.5 2 q12 0 12 -21.5t-12 -25.5q-70 -29 -95 -52q-29 -20 -28 -57v-491q0 -221 -11 -297q-20 -152 -110 -244q-94 -96 -219 -96q-94 0 -144 16q-66 23 -67 63q-2 68 63 97q23 10 48.5 -1.5t39.5 -29.5q45 -57 92 -57q84 0 113 41q33 47 37 123q4 80 4 282v594z" />
<glyph unicode="&#x136;" horiz-adv-x="1394" d="M671 -297q-38 9 -70 34.5t-32 56.5q0 38 26 63.5t69 25.5q74 0 127 -57t53 -141q0 -92 -62.5 -161t-144.5 -85q-23 -4 -34 3t-5 20.5t27 19.5q55 20 82 66.5t27 96.5q0 44 -63 58zM899 1270q-63 16 -63 41q0 23 59 22h152q240 4 276 8q59 6 59 -22.5t-67 -40.5 q-193 -35 -311 -135q-193 -164 -394 -383q-12 -14 11 -37l495 -528q72 -80 106.5 -103.5t118.5 -42.5q68 -14 68 -36.5t-59.5 -22.5t-134 5t-115.5 5t-94.5 -1t-106.5 -1q-59 0 -59 22.5t55 35t56 38t-29 53.5l-435 480q-33 35 -47 35q-8 0 -8 -44q0 -121 10 -393 q6 -154 131 -176q68 -12 68 -37q0 -23 -59.5 -22.5t-112.5 7.5t-88 7q-49 0 -125 -7t-133 -7q-59 0 -60 22q0 25 68 37q78 14 107.5 48t29.5 110v921q0 70 -29.5 101t-107.5 45q-68 12 -68 41q0 23 60 22q57 0 121.5 -2t107.5 -2q35 0 87.5 2t111.5 2t59 -22q0 -29 -67 -41 q-72 -12 -91.5 -45t-19.5 -101v-383q0 -39 10 -38q18 0 56 36l409 418q33 35 30 67t-38 42z" />
<glyph unicode="&#x137;" horiz-adv-x="1073" d="M472 -297q-38 9 -69.5 34.5t-31.5 56.5q0 38 25.5 63.5t68.5 25.5q75 0 127.5 -56.5t52.5 -141.5q0 -93 -62 -161t-145 -85q-35 -7 -39 12.5t27 30.5q55 20 82.5 66.5t27.5 96.5q-1 44 -64 58zM854 135q41 -47 70.5 -63.5t97.5 -34.5q10 -4 12 -27.5t-12 -23.5 q-16 0 -69.5 7t-90.5 7q-57 0 -151.5 -4t-100.5 -4q-12 0 -13 23.5t9 25.5q8 2 21.5 5t24 5t19.5 5t14 7.5t5 10.5q0 20 -22 43l-130 151l-147 168q-23 25 -31 25q-6 0 -6 -31q0 -88 6 -260q2 -63 19 -80q37 -37 84 -49q16 -4 16 -26.5t-16 -22.5q-39 0 -91.5 4t-84.5 4 q-43 0 -110.5 -4t-102.5 -4q-8 0 -13.5 11t-2.5 23.5t16 14.5q66 16 102 55q25 25 25 74v598q0 29 -31 55q-41 37 -84 47q-8 2 -8 27t8 25q41 0 101.5 -3.5t99.5 -3.5q33 0 84 3.5t92 3.5q12 0 11 -25t-11 -27q-45 -6 -80 -34q-20 -18 -23 -68q-6 -170 -6 -250q0 -16 6 -16 q16 0 31 14l271 270q16 16 1.5 39t-49.5 31q-12 4 -10 35t14 31q43 -4 154 -4q63 0 180 12q10 0 8 -29t-8 -31q-63 -8 -97 -23.5t-83 -60.5q-143 -125 -250 -241q-8 -8 6 -25z" />
<glyph unicode="&#x138;" horiz-adv-x="1054" d="M307 473q0 -18 12 -14q31 6 56 24q279 205 305 240q2 4 3 8t-2 8t-6 7.5t-9 7.5l-12 7q-5 3 -13 7l-12 6q-12 8 -12.5 28.5t12.5 20.5q20 0 50 -2t60 -2q80 0 191 12q8 0 11 -10t0 -23.5t-11 -15.5q-111 -37 -131 -49q-78 -47 -305 -227q-23 -18 -15 -29q70 -82 322 -334 q96 -92 176 -108q18 -5 12 -36q-3 -15 -12 -13q-150 16 -268 18q-29 0 -71 -5t-83 -5q-14 0 -14 23.5t14 25.5q45 6 64.5 31.5t-1.5 48.5l-32 35l-72 76l-92 96q-53 54 -94 90q-2 2 -7.5 -1t-9.5 -7l-4 -4q2 -39 3 -123t1 -127q0 -59 27 -88q10 -12 45 -18.5t39 -8.5 q12 -8 13 -28.5t-13 -20.5q-41 0 -94.5 5t-88 5t-89 -5t-95.5 -5q-14 0 -14 20.5t14 28.5q2 2 37 7t49 20q27 29 27 82q0 444 -2 495q-2 70 -80 129q-10 8 -9 24.5t13 18.5q94 4 203 29q14 2 22.5 -5t6.5 -24q-12 -94 -13 -157q-2 -105 -2 -189z" />
<glyph unicode="&#x139;" horiz-adv-x="1179" d="M204 1444q-46 -10 -70 -4q-13 3 -11.5 18.5t17.5 26.5q200 128 336 196q60 33 106 11q69 -33 72 -95q0 -39 -65 -53q-232 -57 -385 -100zM434 1161v-964q0 -68 31 -96.5t127 -28.5h299q12 0 51 16t64 37q66 57 106 145q23 61 45 62q14 0 20.5 -17.5t2.5 -29.5 q-47 -176 -56 -260q-4 -35 -28 -35q-145 0 -377 5t-326 5l-276 -10q-57 0 -58 24q0 23 45 35q84 16 125 49t41 99v950q0 72 -22.5 92.5t-102.5 34.5q-68 12 -67 41q0 23 59 22q57 0 122 -3t108 -3q49 0 124.5 3t133.5 3q59 0 59 -22q0 -29 -68 -41q-49 -8 -73.5 -14.5 t-54 -18.5t-42 -31.5t-12.5 -48.5z" />
<glyph unicode="&#x13a;" horiz-adv-x="909" d="M274 1096q-32 -45 -55 -45q-27 0 -26 27q0 20 72 152t118 206q35 56 104 55q26 0 48 -18t22 -39q1 -16 -33 -50l-108 -113q-74 -79 -142 -175zM496 879q-16 -4 -41 -9.5t-38.5 -9.5t-28.5 -11t-26 -18q-27 -27 -26 -108v-547q0 -111 110 -110h197q10 0 38 10t44 26 q41 41 84 131q10 18 57 15q8 0 14.5 -5t4.5 -14q-37 -135 -45 -209q0 -8 -10.5 -16t-20.5 -8q-115 0 -298 4t-247 4l-217 -6q-4 0 -7 11t-1 22.5t8 11.5q70 18 94 43q41 41 41 86v553q0 86 -18 106q-6 6 -10 11.5t-10.5 8.5t-9.5 5t-11 5t-12.5 4t-16.5 5t-20 7 q-10 2 -11.5 25.5t11.5 23.5q29 0 77 -2t78 -2q53 0 150.5 3t116.5 3q14 0 12 -23.5t-12 -25.5z" />
<glyph unicode="&#x13b;" horiz-adv-x="1179" d="M626 -297q-38 9 -70 34.5t-32 56.5q0 38 25.5 63.5t68.5 25.5q74 0 127.5 -57t53.5 -141q0 -92 -62.5 -161t-144.5 -85q-23 -4 -34 3t-5 20.5t27 19.5q55 20 82 66.5t27 96.5q0 44 -63 58zM434 1161v-964q0 -68 31 -96.5t127 -28.5h299q12 0 51 16t64 37q66 57 106 145 q23 61 45 62q14 0 20.5 -17.5t2.5 -29.5q-47 -176 -56 -260q-4 -35 -28 -35q-145 0 -377 5t-326 5l-276 -10q-57 0 -58 24q0 23 45 35q84 16 125 49t41 99v950q0 72 -22.5 92.5t-102.5 34.5q-68 12 -67 41q0 23 59 22q57 0 122 -3t108 -3q49 0 124.5 3t133.5 3q59 0 59 -22 q0 -29 -68 -41q-49 -8 -73.5 -14.5t-54 -18.5t-42 -31.5t-12.5 -48.5z" />
<glyph unicode="&#x13c;" horiz-adv-x="909" d="M452 -307q-38 9 -70 34t-32 57q0 38 25.5 63.5t68.5 25.5q74 0 127.5 -57.5t53.5 -141.5q0 -92 -62.5 -160.5t-144.5 -84.5q-23 -4 -34 3t-5 20t27 20q55 20 82 66.5t27 95.5q0 45 -63 59zM496 879q-16 -4 -41 -9.5t-38.5 -9.5t-28.5 -11t-26 -18q-27 -27 -26 -108v-547 q0 -111 110 -110h197q10 0 38 10t44 26q41 41 84 131q10 18 57 15q8 0 14.5 -5t4.5 -14q-37 -135 -45 -209q0 -8 -10.5 -16t-20.5 -8q-115 0 -298 4t-247 4l-217 -6q-4 0 -7 11t-1 22.5t8 11.5q70 18 94 43q41 41 41 86v553q0 86 -18 106q-6 6 -10 11.5t-10.5 8.5t-9.5 5 t-11 5t-12.5 4t-16.5 5t-20 7q-10 2 -11.5 25.5t11.5 23.5q29 0 77 -2t78 -2q53 0 150.5 3t116.5 3q14 0 12 -23.5t-12 -25.5z" />
<glyph unicode="&#x13d;" horiz-adv-x="1179" d="M870 1014q11 109 -4 244q-4 40 39 73q41 31 78 31q21 0 28.5 -27t2.5 -63q-10 -67 -23.5 -117t-24 -73.5t-30.5 -63.5q-9 -17 -27 -34t-26 -17q-7 0 -11 15.5t-2 31.5zM434 1161v-964q0 -68 31 -96.5t127 -28.5h299q12 0 51 16t64 37q66 57 106 145q23 61 45 62 q14 0 20.5 -17.5t2.5 -29.5q-47 -176 -56 -260q-4 -35 -28 -35q-145 0 -377 5t-326 5l-276 -10q-57 0 -58 24q0 23 45 35q84 16 125 49t41 99v950q0 72 -22.5 92.5t-102.5 34.5q-68 12 -67 41q0 23 59 22q57 0 122 -3t108 -3q49 0 124.5 3t133.5 3q59 0 59 -22 q0 -29 -68 -41q-49 -8 -73.5 -14.5t-54 -18.5t-42 -31.5t-12.5 -48.5z" />
<glyph unicode="&#x13e;" horiz-adv-x="909" d="M666 604q11 109 -4 244q-4 40 38 74q3 2 11 8t10 7t7 5t7.5 4.5t7 2.5t8 2t8.5 0.5t11 0.5q21 0 28.5 -27t2.5 -63q-10 -67 -23.5 -116.5t-24 -73t-30.5 -64.5q-9 -18 -23.5 -34.5t-21.5 -16.5t-10.5 15.5t-1.5 31.5zM496 879q-16 -4 -41 -9.5t-38.5 -9.5t-28.5 -11 t-26 -18q-27 -27 -26 -108v-547q0 -111 110 -110h197q10 0 38 10t44 26q41 41 84 131q10 18 57 15q8 0 14.5 -5t4.5 -14q-37 -135 -45 -209q0 -8 -10.5 -16t-20.5 -8q-115 0 -298 4t-247 4l-217 -6q-4 0 -7 11t-1 22.5t8 11.5q70 18 94 43q41 41 41 86v553q0 86 -18 106 q-6 6 -10 11.5t-10.5 8.5t-9.5 5t-11 5t-12.5 4t-16.5 5t-20 7q-10 2 -11.5 25.5t11.5 23.5q29 0 77 -2t78 -2q53 0 150.5 3t116.5 3q14 0 12 -23.5t-12 -25.5z" />
<glyph unicode="&#x13f;" horiz-adv-x="1179" d="M823 848q43 0 73 -30t30 -73t-30 -72.5t-73 -29.5t-72.5 29.5t-29.5 72.5t29.5 73t72.5 30zM434 1161v-964q0 -68 31 -96.5t127 -28.5h299q12 0 51 16t64 37q66 57 106 145q23 61 45 62q14 0 20.5 -17.5t2.5 -29.5q-47 -176 -56 -260q-4 -35 -28 -35q-145 0 -377 5 t-326 5l-276 -10q-57 0 -58 24q0 23 45 35q84 16 125 49t41 99v950q0 72 -22.5 92.5t-102.5 34.5q-68 12 -67 41q0 23 59 22q57 0 122 -3t108 -3q49 0 124.5 3t133.5 3q59 0 59 -22q0 -29 -68 -41q-49 -8 -73.5 -14.5t-54 -18.5t-42 -31.5t-12.5 -48.5z" />
<glyph unicode="&#x140;" horiz-adv-x="983" d="M658 627q42 0 72 -31t30 -73t-30 -72.5t-72 -30.5t-71.5 30.5t-29.5 72.5t29.5 73t71.5 31zM496 879q-16 -4 -41 -9.5t-38.5 -9.5t-28.5 -11t-26 -18q-27 -27 -26 -108v-547q0 -111 110 -110h197q10 0 38 10t44 26q41 41 84 131q10 18 57 15q8 0 14.5 -5t4.5 -14 q-37 -135 -45 -209q0 -8 -10.5 -16t-20.5 -8q-115 0 -298 4t-247 4l-217 -6q-4 0 -7 11t-1 22.5t8 11.5q70 18 94 43q41 41 41 86v553q0 86 -18 106q-6 6 -10 11.5t-10.5 8.5t-9.5 5t-11 5t-12.5 4t-16.5 5t-20 7q-10 2 -11.5 25.5t11.5 23.5q29 0 77 -2t78 -2q53 0 150.5 3 t116.5 3q14 0 12 -23.5t-12 -25.5z" />
<glyph unicode="&#x141;" horiz-adv-x="1200" d="M420 1161v-440l348 129q10 6 23.5 2t13.5 -14q0 -51 -13 -63q-8 -8 -24 -13l-348 -127v-438q0 -68 30.5 -96.5t127.5 -28.5h299q12 0 51 16t63 37q66 57 107 145q23 61 45 62q14 0 20 -17.5t2 -29.5q-47 -176 -55 -260q-4 -35 -29 -35q-145 0 -376.5 5t-325.5 5l-277 -10 q-57 0 -57 24q0 23 45 35q84 16 125 49t41 99v378l-133 -49q-12 -4 -24.5 3.5t-16.5 15.5q-10 12 -3 32.5t30 28.5l147 53v488q0 72 -22.5 92.5t-102.5 34.5q-68 12 -68 41q0 23 60 22q57 0 121.5 -3t107.5 -3q49 0 125 3t133 3q59 0 60 -22q0 -29 -68 -41 q-49 -8 -73.5 -14.5t-54.5 -18.5t-42 -31.5t-12 -48.5z" />
<glyph unicode="&#x142;" horiz-adv-x="909" d="M82 311q-10 -6 -23.5 2.5t-17.5 16.5q-8 12 -2 30.5t29 30.5l495 271q10 6 23.5 1.5t13.5 -14.5q0 -25 -1 -34t-9 -20t-27 -22zM496 879q-16 -4 -41 -9.5t-38.5 -9.5t-28.5 -11t-26 -18q-27 -27 -26 -108v-547q0 -111 110 -110h197q10 0 38 10t44 26q41 41 84 131 q10 18 57 15q8 0 14.5 -5t4.5 -14q-37 -135 -45 -209q0 -8 -10.5 -16t-20.5 -8q-115 0 -298 4t-247 4l-217 -6q-4 0 -7 11t-1 22.5t8 11.5q70 18 94 43q41 41 41 86v553q0 86 -18 106q-6 6 -10 11.5t-10.5 8.5t-9.5 5t-11 5t-12.5 4t-16.5 5t-20 7q-10 2 -11.5 25.5 t11.5 23.5q29 0 77 -2t78 -2q53 0 150.5 3t116.5 3q14 0 12 -23.5t-12 -25.5z" />
<glyph unicode="&#x143;" horiz-adv-x="1617" d="M620 1444q-46 -10 -70 -4q-13 3 -11.5 18.5t18.5 26.5q200 128 335 196q60 33 107 11q69 -33 72 -95q0 -39 -66 -53q-232 -57 -385 -100zM1380 1163q-4 -98 -4 -1147q0 -51 -43 -51q-23 0 -72 34t-94 95q-59 82 -729 897q-25 31 -39 31t-17 -10.5t-5 -30.5 q-25 -268 -29 -768q-2 -139 131 -163q68 -12 68 -38q0 -23 -59.5 -22.5t-109.5 5.5t-83 5q-31 0 -79 -5t-107.5 -5t-59.5 22q0 25 68 38q49 10 81.5 70t37.5 99q10 88 59 813q6 96 -41 148q-51 53 -166 90q-63 20 -63 49t47 29q63 -2 148 -6.5t167 -4.5q25 0 49 -34 q26 -37 384 -487l397 -497q68 -82 71 3q4 63 5 412t-1 421q-2 37 -42 72t-76 41q-68 12 -68 41q0 23 59 22h164q27 0 76 3t113 3q59 0 59 -22q0 -29 -68 -41q-76 -14 -101.5 -37t-27.5 -74z" />
<glyph unicode="&#x144;" horiz-adv-x="1292" d="M734 1087q-32 -45 -56 -45q-27 0 -26 27q0 20 72.5 152.5t117.5 205.5q35 56 105 56q26 0 47.5 -18t21.5 -40q0 -15 -33 -49l-107 -114q-74 -80 -142 -175zM137 -6q-13 0 -11.5 23.5t11.5 25.5q2 0 13 2t13 2.5l10 2.5q9 1 11 2l8 4q6 2 10 4l8 7q5 4 9 9q27 30 31 90 q14 244 14 573v21v18l-1 12q-1 8 -3.5 12.5t-7.5 10.5q-41 49 -131 57q-14 0 -14 25t14 25h295q7 0 12 -4.5t11.5 -14t9.5 -12.5l247 -301l305 -363q2 -2 7.5 -9t9.5 -11t9 -6t8 4t3 22q6 182 -6 549q0 18 -12 33.5t-31.5 26t-36 16.5t-37 12t-24.5 8q-6 2 -7 23.5t7 21.5 q37 0 91 -4t89 -4t87 4t83 4q6 0 8 -22.5t-8 -22.5q-39 -6 -72 -32q-37 -25 -39 -56q-6 -104 -9 -205.5t-3 -165t1 -187.5t1 -197q0 -23 -14 -39.5t-37 -16.5q-53 0 -102 56l-549 647q-18 20 -30.5 24t-15.5 -1t-5 -17q-12 -389 -9 -530q4 -47 23 -68q27 -31 72 -39 q12 -2 11 -25.5t-18 -23.5q-37 0 -82 4t-73 4q-31 0 -78 -4t-76 -4z" />
<glyph unicode="&#x145;" horiz-adv-x="1617" d="M802 -297q-38 9 -70 34.5t-32 56.5q0 38 26 63.5t69 25.5q74 0 127 -57t53 -141q0 -92 -62.5 -161t-144.5 -85q-23 -4 -34 3t-5 20.5t27 19.5q55 20 82 66.5t27 96.5q0 44 -63 58zM1380 1163q-4 -98 -4 -1147q0 -51 -43 -51q-23 0 -72 34t-94 95q-59 82 -729 897 q-25 31 -39 31t-17 -10.5t-5 -30.5q-25 -268 -29 -768q-2 -139 131 -163q68 -12 68 -38q0 -23 -59.5 -22.5t-109.5 5.5t-83 5q-31 0 -79 -5t-107.5 -5t-59.5 22q0 25 68 38q49 10 81.5 70t37.5 99q10 88 59 813q6 96 -41 148q-51 53 -166 90q-63 20 -63 49t47 29 q63 -2 148 -6.5t167 -4.5q25 0 49 -34q26 -37 384 -487l397 -497q68 -82 71 3q4 63 5 412t-1 421q-2 37 -42 72t-76 41q-68 12 -68 41q0 23 59 22h164q27 0 76 3t113 3q59 0 59 -22q0 -29 -68 -41q-76 -14 -101.5 -37t-27.5 -74z" />
<glyph unicode="&#x146;" horiz-adv-x="1292" d="M689 -272q-38 9 -69.5 34t-31.5 57q0 38 25.5 63.5t68.5 25.5q74 0 127 -57.5t53 -141.5q0 -92 -62.5 -160.5t-144.5 -85.5q-23 -4 -34 3.5t-4.5 20.5t26.5 19q55 20 82.5 67t27.5 96q-1 45 -64 59zM137 -6q-13 0 -11.5 23.5t11.5 25.5q2 0 13 2t13 2.5l10 2.5q9 1 11 2 l8 4q6 2 10 4l8 7q5 4 9 9q27 30 31 90q14 244 14 573v21v18l-1 12q-1 8 -3.5 12.5t-7.5 10.5q-41 49 -131 57q-14 0 -14 25t14 25h295q7 0 12 -4.5t11.5 -14t9.5 -12.5l247 -301l305 -363q2 -2 7.5 -9t9.5 -11t9 -6t8 4t3 22q6 182 -6 549q0 18 -12 33.5t-31.5 26t-36 16.5 t-37 12t-24.5 8q-6 2 -7 23.5t7 21.5q37 0 91 -4t89 -4t87 4t83 4q6 0 8 -22.5t-8 -22.5q-39 -6 -72 -32q-37 -25 -39 -56q-6 -104 -9 -205.5t-3 -165t1 -187.5t1 -197q0 -23 -14 -39.5t-37 -16.5q-53 0 -102 56l-549 647q-18 20 -30.5 24t-15.5 -1t-5 -17q-12 -389 -9 -530 q4 -47 23 -68q27 -31 72 -39q12 -2 11 -25.5t-18 -23.5q-37 0 -82 4t-73 4q-31 0 -78 -4t-76 -4z" />
<glyph unicode="&#x147;" horiz-adv-x="1617" d="M819 1575q27 16 87.5 45t109.5 55q53 31 71 31q23 0 29 -15.5t-12 -31.5l-221 -180q-55 -45 -84 -45t-84 45l-221 180q-18 16 -12.5 30.5t28.5 14.5q43 0 106 -37l162 -92q16 -10 20.5 -10t20.5 10zM1380 1163q-4 -98 -4 -1147q0 -51 -43 -51q-23 0 -72 34t-94 95 q-59 82 -729 897q-25 31 -39 31t-17 -10.5t-5 -30.5q-25 -268 -29 -768q-2 -139 131 -163q68 -12 68 -38q0 -23 -59.5 -22.5t-109.5 5.5t-83 5q-31 0 -79 -5t-107.5 -5t-59.5 22q0 25 68 38q49 10 81.5 70t37.5 99q10 88 59 813q6 96 -41 148q-51 53 -166 90q-63 20 -63 49 t47 29q63 -2 148 -6.5t167 -4.5q25 0 49 -34q26 -37 384 -487l397 -497q68 -82 71 3q4 63 5 412t-1 421q-2 37 -42 72t-76 41q-68 12 -68 41q0 23 59 22h164q27 0 76 3t113 3q59 0 59 -22q0 -29 -68 -41q-76 -14 -101.5 -37t-27.5 -74z" />
<glyph unicode="&#x148;" horiz-adv-x="1292" d="M516 1313l169 -142l166 142q31 27 70 26q15 0 22 -9t-3 -22q-128 -159 -188 -223q-40 -43 -67 -43t-68 43q-52 55 -188 223q-10 13 -3 22t23 9q35 1 67 -26zM137 -6q-13 0 -11.5 23.5t11.5 25.5q2 0 13 2t13 2.5l10 2.5q9 1 11 2l8 4q6 2 10 4l8 7q5 4 9 9q27 30 31 90 q14 244 14 573v21v18l-1 12q-1 8 -3.5 12.5t-7.5 10.5q-41 49 -131 57q-14 0 -14 25t14 25h295q7 0 12 -4.5t11.5 -14t9.5 -12.5l247 -301l305 -363q2 -2 7.5 -9t9.5 -11t9 -6t8 4t3 22q6 182 -6 549q0 18 -12 33.5t-31.5 26t-36 16.5t-37 12t-24.5 8q-6 2 -7 23.5t7 21.5 q37 0 91 -4t89 -4t87 4t83 4q6 0 8 -22.5t-8 -22.5q-39 -6 -72 -32q-37 -25 -39 -56q-6 -104 -9 -205.5t-3 -165t1 -187.5t1 -197q0 -23 -14 -39.5t-37 -16.5q-53 0 -102 56l-549 647q-18 20 -30.5 24t-15.5 -1t-5 -17q-12 -389 -9 -530q4 -47 23 -68q27 -31 72 -39 q12 -2 11 -25.5t-18 -23.5q-37 0 -82 4t-73 4q-31 0 -78 -4t-76 -4z" />
<glyph unicode="&#x149;" horiz-adv-x="1007" d="M119 -6q-14 0 -12 23.5t12 25.5q61 10 82 33q27 29 30 90q14 244 15 573q0 59 -13 74q-41 49 -131 57q-14 0 -14 25t14 25h295q8 0 13.5 -4.5t11.5 -13.5t8 -13l247 -302q177 -218 306 -362q2 -2 7 -9t9.5 -11t9.5 -6t8 4t3 22q6 182 -6 549q0 18 -12.5 33.5t-32 26 t-35.5 16.5t-36.5 12t-25.5 8q-6 2 -7 23.5t7 21.5q37 0 91.5 -4t89 -4t87 4t83.5 4q6 0 8 -22.5t-8 -22.5q-39 -6 -72 -32q-37 -25 -39 -56q-6 -104 -9 -205.5t-3 -165t1 -187.5t1 -197q0 -23 -14.5 -39.5t-36.5 -16.5q-53 0 -103 56l-549 647q-18 20 -30.5 24t-15.5 -1 t-5 -17q-12 -389 -8 -530q4 -47 22 -68q27 -31 72 -39q12 -2 11 -25.5t-17 -23.5q-37 0 -82 4t-74 4q-31 0 -77.5 -4t-75.5 -4zM6 956q6 160 -6 312q-2 41 39 73q57 43 88 43q39 0 25 -106q-25 -164 -93 -317q-20 -51 -39 -52q-14 0 -14 47z" />
<glyph unicode="&#x14a;" horiz-adv-x="1628" d="M838 -356q0 32 11.5 57t35.5 25q65 0 98 -48q27 -39 58.5 -49t84.5 -10q47 0 82 71t41 208q4 56 1 83.5t-19 49.5l-239 301l-276 344l-255 303q-26 30 -43.5 36t-23 -3t-6.5 -25q-19 -578 -11 -786q0 -26 12.5 -44t40.5 -42q20 -17 63 -33t64 -37q13 -13 13.5 -31 t-21.5 -20q-52 0 -123 5t-117 5q-43 0 -110.5 -5t-110.5 -5q-14 1 -12.5 20t12.5 31q16 16 53.5 28t53.5 29q50 56 55 123q6 79 10 154.5t6 125.5t3 134.5t1.5 119t0 146t-0.5 152.5v12q0 90 -22 119q-42 49 -93 74.5t-83 27.5q-20 2 -20 30t20 28h336q11 0 18 -5.5 t17.5 -21t13.5 -18.5l355 -453l425 -531q2 -2 10 -13t13.5 -17t12.5 -9.5t11 7t6 32.5q8 270 -8 832q0 23 -14.5 42t-31.5 32.5t-44 26t-44.5 17.5t-42 13t-26.5 8q-10 4 -11 27.5t11 23.5q53 0 129 -5t125 -5q43 0 110.5 5t110.5 5q6 0 10.5 -12t2.5 -25.5t-13 -13.5 q-51 -6 -102 -45q-53 -39 -55 -82q-10 -156 -14.5 -311.5t-4.5 -246.5t1 -285.5t1 -290.5q0 -37 -6 -92.5t-30.5 -147.5t-65.5 -156q-66 -100 -205 -100q-92 0 -163.5 28t-71.5 83z" />
<glyph unicode="&#x14b;" horiz-adv-x="1050" d="M303 141q0 -66 86 -92q47 -16 47 -37q0 -18 -47 -18q-41 0 -83 5t-76.5 5t-76.5 -5t-83 -5q-47 0 -47 18q0 20 47 37q27 8 42 15.5t30.5 26t17.5 44.5q6 293 0 432q-2 43 -8.5 69t-24.5 49.5t-51 29.5q-14 2 -15.5 24.5t13.5 26.5q106 25 225 113q12 8 18 -17 q0 -8 -5 -47l-8 -63q-3 -24 1 -39q37 37 148.5 86t197.5 49q102 0 161.5 -63.5t61.5 -180.5l7 -559q-8 -309 -40 -400q-79 -235 -280 -235q-94 0 -145 21q-16 6 -36 21.5t-20 25.5q0 26 19 62t36 36q19 0 39.5 -25t49 -50t65.5 -25q41 0 81.5 30.5t55.5 81.5q26 92 29 416 l-4 553q0 88 -52 139.5t-134 51.5q-106 0 -191 -64q-51 -37 -51 -135v-408z" />
<glyph unicode="&#x14c;" horiz-adv-x="1562" d="M514 1591h539q12 0 21 -9t5 -19q0 -2 -4 -12.5t-5 -13.5l-4 -12q-3 -9 -5 -13l-6 -10q-4 -7 -7.5 -9t-8.5 -6t-11 -5t-12 -1h-522q-10 0 -19.5 7t-9.5 17q0 25 12 55.5t37 30.5zM768 1280q-217 0 -347 -168t-130 -395q0 -270 148.5 -468t369.5 -198q225 0 344 152.5 t119 421.5q0 299 -131 477t-373 178zM92 655q0 291 183.5 494t506.5 211q281 6 484.5 -184.5t203.5 -489.5q0 -139 -45 -267t-130 -228.5t-218 -160t-295 -59.5q-276 0 -483 198.5t-207 485.5z" />
<glyph unicode="&#x14d;" d="M401 1186h457q12 0 21.5 -9.5t5.5 -19.5q-8 -25 -13.5 -37t-18.5 -24.5t-32 -12.5h-440q-10 0 -19.5 7.5t-9.5 17.5q0 20 13 49t36 29zM608 868q-158 0 -228.5 -112.5t-70.5 -280.5q0 -188 89 -309t255 -121q84 0 146.5 37t95.5 97.5t48 125t15 129.5q0 174 -89 304 t-261 130zM135 444q0 190 145.5 340t340.5 150q209 0 359 -138.5t150 -342.5q0 -201 -135 -342.5t-374 -141.5q-205 0 -345.5 138t-140.5 337z" />
<glyph unicode="&#x14e;" horiz-adv-x="1562" d="M530 1690q27 -47 87.5 -88t154.5 -41t154.5 40.5t87.5 88.5q25 43 45 43t20 -50q0 -100 -93 -183t-214 -83q-125 0 -216 77t-91 189q0 49 20 49.5t45 -42.5zM768 1280q-217 0 -347 -168t-130 -395q0 -270 148.5 -468t369.5 -198q225 0 344 152.5t119 421.5 q0 299 -131 477t-373 178zM92 655q0 291 183.5 494t506.5 211q281 6 484.5 -184.5t203.5 -489.5q0 -139 -45 -267t-130 -228.5t-218 -160t-295 -59.5q-276 0 -483 198.5t-207 485.5z" />
<glyph unicode="&#x14f;" d="M465 1227q4 -8 17.5 -38t23.5 -46.5t39.5 -31.5t73 -15t73 15t39.5 31.5t23.5 46.5t17.5 38q2 2 8 17.5t11.5 20.5t15.5 5q31 0 31 -49q0 -102 -57.5 -170t-162.5 -68q-106 0 -162.5 61.5t-56.5 176.5q0 49 31 49q10 0 15.5 -5t11.5 -20.5t8 -17.5zM608 868 q-158 0 -228.5 -112.5t-70.5 -280.5q0 -188 89 -309t255 -121q84 0 146.5 37t95.5 97.5t48 125t15 129.5q0 174 -89 304t-261 130zM135 444q0 190 145.5 340t340.5 150q209 0 359 -138.5t150 -342.5q0 -201 -135 -342.5t-374 -141.5q-205 0 -345.5 138t-140.5 337z" />
<glyph unicode="&#x150;" horiz-adv-x="1562" d="M901 1470q-31 -37 -57 -36q-12 0 -18.5 12t1.5 31q74 160 117 235q27 43 70 43q72 0 96 -43q14 -27 -31 -67q-31 -27 -93 -88.5t-85 -86.5zM610 1470q-31 -37 -57 -36q-12 0 -18.5 12t2.5 31q74 160 116 235q27 43 70 43q72 0 96 -43q14 -27 -31 -67q-31 -27 -93 -88.5 t-85 -86.5zM768 1280q-217 0 -347 -168t-130 -395q0 -270 148.5 -468t369.5 -198q225 0 344 152.5t119 421.5q0 299 -131 477t-373 178zM92 655q0 291 183.5 494t506.5 211q281 6 484.5 -184.5t203.5 -489.5q0 -139 -45 -267t-130 -228.5t-218 -160t-295 -59.5 q-276 0 -483 198.5t-207 485.5z" />
<glyph unicode="&#x151;" d="M539 1059q-25 -51 -45 -55q-29 -4 -31 22q-6 29 125 352q25 61 92 74q27 4 51.5 -9t28.5 -36q2 -16 -43 -85l-103 -152q-58 -82 -75 -111zM815 1059q-33 -51 -45 -55q-29 -4 -31 22q-6 29 125 352q25 61 92 74q27 4 51.5 -9t28.5 -36q2 -16 -40 -83t-103.5 -153.5 t-77.5 -111.5zM608 868q-158 0 -228.5 -112.5t-70.5 -280.5q0 -188 89 -309t255 -121q84 0 146.5 37t95.5 97.5t48 125t15 129.5q0 174 -89 304t-261 130zM135 444q0 190 145.5 340t340.5 150q209 0 359 -138.5t150 -342.5q0 -201 -135 -342.5t-374 -141.5 q-205 0 -345.5 138t-140.5 337z" />
<glyph unicode="&#x152;" horiz-adv-x="1968" d="M954 -10q-80 -18 -172 -19q-276 0 -483 199t-207 485q0 291 183.5 494t506.5 211q94 2 203 -25q4 -2 31 -2q49 0 70.5 -3t37.5 -3q102 0 254 3l254 5q102 2 125 2q35 0 37 -18q23 -119 25 -211q0 -18 -29 -18q-16 0 -23 20q-25 74 -47 100q-49 55 -137 56h-268 q-16 0 -31.5 -17.5t-19.5 -36.5q-12 -59 -17 -147q-6 -147 -6 -299q0 -45 21 -45h213q57 0 90 31q23 20 34 49q4 8 17.5 21.5t19.5 13.5q8 0 18.5 -10.5t8.5 -22.5q-8 -96 0 -252q0 -35 -18 -35q-33 0 -48 47q-23 72 -96 80q-127 18 -211 4q-51 -8 -49 -51q0 -190 6 -365 q2 -70 33 -114.5t96 -44.5h213q16 0 78 12t78 25q39 31 86 129q10 20 29 20q12 -2 20 -8t6 -17q-12 -119 -35 -208q-8 -35 -28 -35q-133 0 -343 7t-306 7q-29 0 -62 -1t-59.5 -3t-49 -5t-35.5 -4zM1085 299q12 360 0 723q0 2 -2 42t-2 42q-20 174 -313 174q-217 0 -347 -168 t-130 -395q0 -270 148.5 -468t369.5 -198q70 0 108.5 3t82.5 13.5t62.5 35t18.5 63.5q0 72 4 133z" />
<glyph unicode="&#x153;" horiz-adv-x="1525" d="M481 778q-123 0 -194.5 -105.5t-71.5 -242.5q0 -154 91 -275.5t212 -121.5q119 0 192.5 105.5t73.5 248.5q0 152 -88 271.5t-215 119.5zM829 133q-127 -162 -354 -162q-174 0 -291.5 114t-117.5 296q0 193 131 330t319 137q199 0 328 -156q16 -23 28 -6q115 156 332 160 q106 2 185 -45t79 -142q0 -82 -30 -96q-33 -16 -135 -16l-373 -4q-20 0 -24.5 -15.5t-4.5 -56.5v-16q0 -139 93 -249t204 -112q152 -4 227 86q10 10 22.5 9t20 -11t0.5 -20q-70 -102 -139 -144.5t-182 -42.5q-184 0 -295 162q-13 16 -23 0zM936 637q-18 -31 18 -31h166 q137 0 183 19q27 10 26 65q-2 51 -50 76t-105 25q-152 0 -238 -154z" />
<glyph unicode="&#x154;" horiz-adv-x="1421" d="M401 1444q-46 -10 -70 -4q-13 3 -11.5 18.5t17.5 26.5q200 128 336 196q60 33 107 11q69 -33 71 -95q0 -39 -65 -53q-232 -57 -385 -100zM440 750q-2 -47 20.5 -60.5t78.5 -15.5q133 -2 223 80q92 88 92 247q0 51 -11.5 95.5t-39 89.5t-84.5 71.5t-139 26.5 q-78 0 -103.5 -28.5t-27.5 -81.5q-5 -98 -9 -424zM1315 -43q-193 0 -283 111l-55 66l-61 74q-16 20 -52 69l-68 100l-75 117q-31 51 -88 79q-74 35 -162 45q-16 2 -23.5 -9t-7.5 -31v-353q0 -152 138 -176q68 -12 67 -37q0 -23 -59.5 -22.5t-112.5 7.5t-88 7q-51 0 -131 -7 t-135 -7q-59 0 -60 22q0 25 68 37q80 14 114.5 48t34.5 108v864q0 98 -25.5 145.5t-98.5 59.5q-68 12 -68 41q0 23 59.5 22.5t110.5 -1.5t90 -1q33 0 102.5 5.5t133.5 5.5q223 0 340.5 -88.5t117.5 -256.5q0 -61 -30.5 -128.5t-59.5 -96.5q-98 -92 -149 -119q-10 -4 0 -18 q5 -10 35 -55l38 -58l36 -51l36 -53l36 -49q26 -35 41 -53l41 -48l46 -52l50 -48l56 -53q51 -45 100.5 -56.5t135.5 -10.5q31 0 31 -23q0 -39 -54.5 -55.5t-111.5 -16.5z" />
<glyph unicode="&#x155;" horiz-adv-x="1120" d="M355 1096q-32 -45 -55 -45q-27 0 -27 26q0 20 72.5 152.5t117.5 206.5q35 56 105 55q26 0 47.5 -18t21.5 -39q0 -16 -33 -50l-106 -113q-74 -79 -143 -175zM322 528q0 -27 10 -38t19 -12t38 -1q88 0 150 41q63 39 63 166q0 184 -184 184q-53 0 -70.5 -19.5t-19.5 -57.5 q-8 -189 -6 -263zM322 387q2 -47 4 -122t2 -99q2 -82 133 -115q10 -4 10 -31.5t-10 -27.5q-8 0 -80 6t-117 6q-51 0 -134 -6t-95 -6q-10 0 -10 24.5t10 26.5q59 14 92 47q41 41 41 84v547q0 82 -18 102q-20 23 -34 30t-55 17q-6 2 -10 14.5t-3 25t11 12.5q29 0 88.5 -3.5 t98.5 -3.5q23 0 75 6.5t97 6.5q160 0 258 -64.5t98 -177.5q0 -43 -25.5 -98.5t-46.5 -73.5q-41 -41 -81 -59q-8 -2 0 -13q25 -37 70.5 -115.5t85.5 -133t97 -109.5q20 -20 40 -29.5t31 -11.5t40 -1t43 1q6 0 8 -8t-2 -18.5t-10 -14.5q-45 -31 -100 -31q-162 0 -228 78 q-25 31 -45 59q-21 28 -33 50l-44 76l-58 96q-25 37 -61 55q-53 27 -113 31q-10 2 -15 -6.5t-5 -22.5z" />
<glyph unicode="&#x156;" horiz-adv-x="1421" d="M703 -297q-38 9 -69.5 34.5t-31.5 56.5q0 38 25.5 63.5t68.5 25.5q74 0 127.5 -57t53.5 -141q0 -92 -62.5 -161t-144.5 -85q-23 -4 -34 3t-5 20.5t26 19.5q55 20 82.5 66.5t27.5 96.5q-1 44 -64 58zM440 750q-2 -47 20.5 -60.5t78.5 -15.5q133 -2 223 80q92 88 92 247 q0 51 -11.5 95.5t-39 89.5t-84.5 71.5t-139 26.5q-78 0 -103.5 -28.5t-27.5 -81.5q-5 -98 -9 -424zM1315 -43q-193 0 -283 111l-55 66l-61 74q-16 20 -52 69l-68 100l-75 117q-31 51 -88 79q-74 35 -162 45q-16 2 -23.5 -9t-7.5 -31v-353q0 -152 138 -176q68 -12 67 -37 q0 -23 -59.5 -22.5t-112.5 7.5t-88 7q-51 0 -131 -7t-135 -7q-59 0 -60 22q0 25 68 37q80 14 114.5 48t34.5 108v864q0 98 -25.5 145.5t-98.5 59.5q-68 12 -68 41q0 23 59.5 22.5t110.5 -1.5t90 -1q33 0 102.5 5.5t133.5 5.5q223 0 340.5 -88.5t117.5 -256.5 q0 -61 -30.5 -128.5t-59.5 -96.5q-98 -92 -149 -119q-10 -4 0 -18q5 -10 35 -55l38 -58l36 -51l36 -53l36 -49q26 -35 41 -53l41 -48l46 -52l50 -48l56 -53q51 -45 100.5 -56.5t135.5 -10.5q31 0 31 -23q0 -39 -54.5 -55.5t-111.5 -16.5z" />
<glyph unicode="&#x157;" horiz-adv-x="1120" d="M534 -283q-38 9 -70 34.5t-32 57.5q0 38 25.5 63.5t68.5 25.5q74 0 127.5 -57.5t53.5 -141.5q0 -92 -62.5 -160.5t-144.5 -85.5q-23 -4 -34 3t-5 20.5t26 19.5q55 20 82.5 67t27.5 96q0 44 -63 58zM322 528q0 -27 10 -38t19 -12t38 -1q88 0 150 41q63 39 63 166 q0 184 -184 184q-53 0 -70.5 -19.5t-19.5 -57.5q-8 -189 -6 -263zM322 387q2 -47 4 -122t2 -99q2 -82 133 -115q10 -4 10 -31.5t-10 -27.5q-8 0 -80 6t-117 6q-51 0 -134 -6t-95 -6q-10 0 -10 24.5t10 26.5q59 14 92 47q41 41 41 84v547q0 82 -18 102q-20 23 -34 30t-55 17 q-6 2 -10 14.5t-3 25t11 12.5q29 0 88.5 -3.5t98.5 -3.5q23 0 75 6.5t97 6.5q160 0 258 -64.5t98 -177.5q0 -43 -25.5 -98.5t-46.5 -73.5q-41 -41 -81 -59q-8 -2 0 -13q25 -37 70.5 -115.5t85.5 -133t97 -109.5q20 -20 40 -29.5t31 -11.5t40 -1t43 1q6 0 8 -8t-2 -18.5 t-10 -14.5q-45 -31 -100 -31q-162 0 -228 78q-25 31 -45 59q-21 28 -33 50l-44 76l-58 96q-25 37 -61 55q-53 27 -113 31q-10 2 -15 -6.5t-5 -22.5z" />
<glyph unicode="&#x158;" horiz-adv-x="1421" d="M599 1575q27 16 87.5 45t109.5 55q53 31 72 31q23 0 28.5 -16t-12.5 -31l-221 -180q-3 -3 -11 -9l-10 -9l-9 -7q-7 -4 -9 -6l-7 -4q-5 -3 -7.5 -4t-6.5 -3t-7.5 -2t-7.5 -0.5t-9 -0.5q-15 0 -29 6t-20 11l-35 28l-221 180q-18 15 -12.5 30t28.5 15q43 0 107 -37 q26 -14 161 -92q17 -11 20.5 -11t20.5 11zM440 750q-2 -47 20.5 -60.5t78.5 -15.5q133 -2 223 80q92 88 92 247q0 51 -11.5 95.5t-39 89.5t-84.5 71.5t-139 26.5q-78 0 -103.5 -28.5t-27.5 -81.5q-5 -98 -9 -424zM1315 -43q-193 0 -283 111l-55 66l-61 74q-16 20 -52 69 l-68 100l-75 117q-31 51 -88 79q-74 35 -162 45q-16 2 -23.5 -9t-7.5 -31v-353q0 -152 138 -176q68 -12 67 -37q0 -23 -59.5 -22.5t-112.5 7.5t-88 7q-51 0 -131 -7t-135 -7q-59 0 -60 22q0 25 68 37q80 14 114.5 48t34.5 108v864q0 98 -25.5 145.5t-98.5 59.5 q-68 12 -68 41q0 23 59.5 22.5t110.5 -1.5t90 -1q33 0 102.5 5.5t133.5 5.5q223 0 340.5 -88.5t117.5 -256.5q0 -61 -30.5 -128.5t-59.5 -96.5q-98 -92 -149 -119q-10 -4 0 -18q5 -10 35 -55l38 -58l36 -51l36 -53l36 -49q26 -35 41 -53l41 -48l46 -52l50 -48l56 -53 q51 -45 100.5 -56.5t135.5 -10.5q31 0 31 -23q0 -39 -54.5 -55.5t-111.5 -16.5z" />
<glyph unicode="&#x159;" horiz-adv-x="1120" d="M271 1417l143 -196l142 196q26 37 59 37q13 0 19 -12.5t-3 -30.5q-109 -221 -159 -309q-34 -59 -57.5 -59.5t-57.5 59.5q-20 34 -60 111l-70 138l-30 60q-8 18 -2.5 30.5t19.5 12.5q30 0 57 -37zM271 1425l143 -196l142 196q26 37 59 37q13 0 19 -12.5t-3 -30.5 q-109 -221 -159 -309q-34 -59 -57.5 -59t-57.5 59q-20 34 -60 112l-70 137l-30 60q-8 18 -2.5 30.5t19.5 12.5q30 0 57 -37zM322 528q0 -27 10 -38t19 -12t38 -1q88 0 150 41q63 39 63 166q0 184 -184 184q-53 0 -70.5 -19.5t-19.5 -57.5q-8 -189 -6 -263zM322 387 q2 -47 4 -122t2 -99q2 -82 133 -115q10 -4 10 -31.5t-10 -27.5q-8 0 -80 6t-117 6q-51 0 -134 -6t-95 -6q-10 0 -10 24.5t10 26.5q59 14 92 47q41 41 41 84v547q0 82 -18 102q-20 23 -34 30t-55 17q-6 2 -10 14.5t-3 25t11 12.5q29 0 88.5 -3.5t98.5 -3.5q23 0 75 6.5 t97 6.5q160 0 258 -64.5t98 -177.5q0 -43 -25.5 -98.5t-46.5 -73.5q-41 -41 -81 -59q-8 -2 0 -13q25 -37 70.5 -115.5t85.5 -133t97 -109.5q20 -20 40 -29.5t31 -11.5t40 -1t43 1q6 0 8 -8t-2 -18.5t-10 -14.5q-45 -31 -100 -31q-162 0 -228 78q-25 31 -45 59q-21 28 -33 50 l-44 76l-58 96q-25 37 -61 55q-53 27 -113 31q-10 2 -15 -6.5t-5 -22.5z" />
<glyph unicode="&#x15a;" horiz-adv-x="952" d="M330 1444q-46 -10 -70 -4q-13 3 -11.5 18.5t17.5 26.5q200 128 336 196q60 33 107 11q69 -33 71 -95q0 -39 -65 -53q-232 -57 -385 -100zM457 35q111 0 173 74.5t62 187.5q0 92 -75.5 174t-221.5 180q-125 84 -192.5 169t-67.5 198q0 139 117 240.5t295 101.5 q57 0 113.5 -10.5t90 -20.5t40.5 -10q27 0 34 -47q16 -98 19 -168q2 -55 -15 -55q-29 0 -48 16t-23 41q-14 88 -78 137t-152 49q-98 0 -166.5 -60.5t-68.5 -160.5q0 -59 51 -125.5t99.5 -102.5t121.5 -83q61 -39 99 -68.5t91.5 -82t81 -117t27.5 -138.5q0 -66 -24.5 -130 t-72.5 -123.5t-134 -96.5t-195 -37q-170 0 -274 49q-35 16 -43 35q-33 68 -37 234q-2 14 13.5 38.5t31.5 22.5q18 -2 59 -135q29 -88 101 -132t168 -44z" />
<glyph unicode="&#x15b;" horiz-adv-x="763" d="M367 1106q-33 -45 -56 -45q-27 0 -26 26q0 20 72.5 152.5t117.5 206.5q35 55 105 55q27 0 48 -18.5t21 -38.5q1 -16 -33 -50l-106 -113q-72 -79 -143 -175zM346 49q160 0 160 154q0 14 -3 26.5t-6 22.5t-13 22l-15 21q-7 9 -21 21l-21 18q-7 6 -27 20q-18 13 -28 19 l-34 21l-35 22q-195 123 -194 280q0 80 83.5 161t227.5 81q43 0 82 -7t67.5 -16.5t36.5 -11.5q23 -2 27 -31q23 -109 22 -151q0 -10 -5 -22.5t-11 -12.5q-8 0 -27.5 10.5t-21.5 24.5q-41 145 -189 145q-141 0 -141 -121q0 -18 6 -35.5t20.5 -36t25.5 -29.5q10 -12 34 -30 l34 -25q9 -7 39 -25.5t34 -20.5q225 -145 225 -297q0 -100 -84 -184.5t-242 -84.5q-49 0 -90 6.5t-81 17.5t-50 13t-14 4t-6 8l-2 5q-12 27 -29 92t-19 102q0 8 14.5 15.5t26.5 7.5q4 0 23 -31t44.5 -68.5t73.5 -68.5t103 -31z" />
<glyph unicode="&#x15c;" horiz-adv-x="952" d="M529 1563q-17 11 -21 10.5t-20 -10.5q-136 -79 -162 -93q-63 -37 -107 -36q-23 0 -28.5 14.5t12.5 30.5l221 180q3 3 11 9l11 8l8 7q6 5 8.5 6t7.5 4.5t7.5 4t6.5 2.5t7.5 2.5t7.5 1t9 0.5q15 0 28.5 -6t19.5 -11l36 -28l221 -180q18 -15 12.5 -31t-28.5 -16 q-19 0 -72 30l-109 56q-60 30 -87 45zM457 35q111 0 173 74.5t62 187.5q0 92 -75.5 174t-221.5 180q-125 84 -192.5 169t-67.5 198q0 139 117 240.5t295 101.5q57 0 113.5 -10.5t90 -20.5t40.5 -10q27 0 34 -47q16 -98 19 -168q2 -55 -15 -55q-29 0 -48 16t-23 41 q-14 88 -78 137t-152 49q-98 0 -166.5 -60.5t-68.5 -160.5q0 -59 51 -125.5t99.5 -102.5t121.5 -83q61 -39 99 -68.5t91.5 -82t81 -117t27.5 -138.5q0 -66 -24.5 -130t-72.5 -123.5t-134 -96.5t-195 -37q-170 0 -274 49q-35 16 -43 35q-33 68 -37 234q-2 14 13.5 38.5 t31.5 22.5q18 -2 59 -135q29 -88 101 -132t168 -44z" />
<glyph unicode="&#x15d;" horiz-adv-x="763" d="M276 1098q-27 -37 -57 -37q-12 0 -18 12t2 31q117 233 159 309q35 59 57.5 59.5t57.5 -59.5l160 -309q8 -18 2 -30.5t-18 -12.5q-33 0 -60 37l-141 196zM346 49q160 0 160 154q0 14 -3 26.5t-6 22.5t-13 22l-15 21q-7 9 -21 21l-21 18q-7 6 -27 20q-18 13 -28 19l-34 21 l-35 22q-195 123 -194 280q0 80 83.5 161t227.5 81q43 0 82 -7t67.5 -16.5t36.5 -11.5q23 -2 27 -31q23 -109 22 -151q0 -10 -5 -22.5t-11 -12.5q-8 0 -27.5 10.5t-21.5 24.5q-41 145 -189 145q-141 0 -141 -121q0 -18 6 -35.5t20.5 -36t25.5 -29.5q10 -12 34 -30l34 -25 q9 -7 39 -25.5t34 -20.5q225 -145 225 -297q0 -100 -84 -184.5t-242 -84.5q-49 0 -90 6.5t-81 17.5t-50 13t-14 4t-6 8l-2 5q-12 27 -29 92t-19 102q0 8 14.5 15.5t26.5 7.5q4 0 23 -31t44.5 -68.5t73.5 -68.5t103 -31z" />
<glyph unicode="&#x15e;" horiz-adv-x="960" d="M438 33q129 4 187.5 63.5t58.5 206.5q0 63 -42 126t-92 103.5t-149 110.5q-127 88 -197.5 175t-70.5 200q0 115 105.5 224.5t296.5 109.5q59 0 107 -6.5t88 -15.5t48 -11q29 -6 37 -45q29 -162 29 -219q0 -14 -6.5 -32.5t-14.5 -18.5q-10 0 -29.5 15t-23.5 36 q-33 125 -110.5 177t-149.5 52q-92 0 -156.5 -69.5t-64.5 -155.5q0 -20 5 -42t17.5 -42.5t24.5 -37.5t34 -37l34 -34q14 -12 41.5 -32.5t40 -28.5t40 -28.5t35.5 -24.5q4 -4 42 -30t51.5 -36t49 -39t52 -47t42 -50t38 -59.5t22.5 -64.5t10 -76q0 -127 -81.5 -239.5 t-243.5 -141.5l-54 -80q-14 -18 21 -32q53 -23 94 -70t41 -113q0 -96 -92 -166.5t-172 -70.5q-59 0 -78 26q-23 29 -4 84q4 12 12 19.5t17 3.5q57 -25 123 -25q33 0 59.5 19.5t26.5 60.5q0 100 -97 107q-43 0 -55 -2q-33 -4 -47 20q-12 20 8 45l123 166h-23q-68 0 -119 9.5 t-99 25.5t-64 20q-10 2 -16.5 5.5t-7.5 5.5t-3 7t-2 7q-18 37 -39.5 133t-23.5 150q-2 12 11 22t30 10q6 0 30.5 -51t58.5 -112.5t98 -111.5t138 -48z" />
<glyph unicode="&#x15f;" horiz-adv-x="763" d="M255 -272q-13 -5 -30 13t-1 39l180 229h64l-80 -104q-8 -15 -2 -26t16 -15q53 -23 89 -65.5t36 -90.5q0 -111 -93 -194t-163 -83q-35 0 -49 25q-19 33 -8 78q2 11 11.5 16.5t19.5 1.5q51 -20 100 -20q39 0 59.5 25.5t20.5 66.5q0 52 -39 78.5t-98 30.5q-23 -1 -33 -5z M346 49q160 0 160 154q0 14 -3 26.5t-6 22.5t-13 22l-15 21q-7 9 -21 21l-21 18q-7 6 -27 20q-18 13 -28 19l-34 21l-35 22q-195 123 -194 280q0 80 83.5 161t227.5 81q43 0 82 -7t67.5 -16.5t36.5 -11.5q23 -2 27 -31q23 -109 22 -151q0 -10 -5 -22.5t-11 -12.5 q-8 0 -27.5 10.5t-21.5 24.5q-41 145 -189 145q-141 0 -141 -121q0 -18 6 -35.5t20.5 -36t25.5 -29.5q10 -12 34 -30l34 -25q9 -7 39 -25.5t34 -20.5q225 -145 225 -297q0 -100 -84 -184.5t-242 -84.5q-49 0 -90 6.5t-81 17.5t-50 13t-14 4t-6 8l-2 5q-12 27 -29 92t-19 102 q0 8 14.5 15.5t26.5 7.5q4 0 23 -31t44.5 -68.5t73.5 -68.5t103 -31z" />
<glyph unicode="&#x160;" horiz-adv-x="952" d="M549 1575q27 16 87.5 45t109.5 55q53 31 71 31q23 0 29 -16t-12 -31l-222 -180q-3 -3 -11 -9l-11 -9l-8 -7l-8 -6q-2 -2 -7 -4.5t-7.5 -3.5t-7 -3t-7.5 -2t-7.5 -0.5t-8.5 -0.5q-15 0 -29 6t-20.5 11t-34.5 28l-222 180q-18 15 -12 30t29 15q43 0 106 -37q26 -14 162 -92 q17 -11 20.5 -11t20.5 11zM457 35q111 0 173 74.5t62 187.5q0 92 -75.5 174t-221.5 180q-125 84 -192.5 169t-67.5 198q0 139 117 240.5t295 101.5q57 0 113.5 -10.5t90 -20.5t40.5 -10q27 0 34 -47q16 -98 19 -168q2 -55 -15 -55q-29 0 -48 16t-23 41q-14 88 -78 137 t-152 49q-98 0 -166.5 -60.5t-68.5 -160.5q0 -59 51 -125.5t99.5 -102.5t121.5 -83q61 -39 99 -68.5t91.5 -82t81 -117t27.5 -138.5q0 -66 -24.5 -130t-72.5 -123.5t-134 -96.5t-195 -37q-170 0 -274 49q-35 16 -43 35q-33 68 -37 234q-2 14 13.5 38.5t31.5 22.5 q18 -2 59 -135q29 -88 101 -132t168 -44z" />
<glyph unicode="&#x161;" horiz-adv-x="763" d="M276 1436l144 -197l141 197q27 37 60 37q12 0 18 -12.5t-2 -30.5q-109 -221 -160 -310q-35 -59 -57.5 -59t-57.5 59l-159 310q-8 18 -2 30.5t18 12.5q30 0 57 -37zM346 49q160 0 160 154q0 14 -3 26.5t-6 22.5t-13 22l-15 21q-7 9 -21 21l-21 18q-7 6 -27 20 q-18 13 -28 19l-34 21l-35 22q-195 123 -194 280q0 80 83.5 161t227.5 81q43 0 82 -7t67.5 -16.5t36.5 -11.5q23 -2 27 -31q23 -109 22 -151q0 -10 -5 -22.5t-11 -12.5q-8 0 -27.5 10.5t-21.5 24.5q-41 145 -189 145q-141 0 -141 -121q0 -18 6 -35.5t20.5 -36t25.5 -29.5 q10 -12 34 -30l34 -25q9 -7 39 -25.5t34 -20.5q225 -145 225 -297q0 -100 -84 -184.5t-242 -84.5q-49 0 -90 6.5t-81 17.5t-50 13t-14 4t-6 8l-2 5q-12 27 -29 92t-19 102q0 8 14.5 15.5t26.5 7.5q4 0 23 -31t44.5 -68.5t73.5 -68.5t103 -31z" />
<glyph unicode="&#x162;" horiz-adv-x="1394" d="M1114 1237q-238 0 -311 -8q-33 -4 -33 -88v-918q0 -70 39 -106q57 -53 156 -72q16 -2 22 -15.5t0 -24.5t-22 -11q-35 0 -224 10l-61 -94q-14 -18 20 -33q53 -23 94.5 -70t41.5 -112q0 -96 -92.5 -167t-172.5 -71q-59 0 -77 27q-23 29 -5 84q10 33 29 22q57 -25 123 -24 q33 0 59.5 19.5t26.5 60.5q0 100 -96 106q-45 0 -56 -2q-33 -4 -47 21q-12 20 9 45l139 188q-49 0 -130 -5t-134 -5q-12 0 -18.5 11t-2.5 24.5t21 15.5q98 20 155 72q39 37 39 106v918q0 82 -37 88q-43 8 -247 8q-53 0 -100.5 -20.5t-67.5 -59.5q-12 -25 -38 -51.5 t-46 -26.5q-14 0 -14.5 23.5t10.5 44.5q45 94 63 227q6 47 35 47q16 0 51 -65q20 -37 143 -41q352 -14 785 6q125 4 149 39q33 45 56 45q8 0 17 -10.5t7 -24.5q-35 -170 -33 -240q0 -20 -8 -36.5t-22 -14.5q-10 2 -17.5 12.5t-14.5 30t-7 21.5q-2 4 -7.5 17.5t-9.5 18.5 t-11 16t-17.5 17.5t-25.5 12.5t-36.5 9t-48.5 3z" />
<glyph unicode="&#x163;" horiz-adv-x="1001" d="M360 -265q-13 -5 -30 12.5t0 38.5l180 229h63l-79 -104q-8 -15 -2 -26t16 -15q53 -23 89 -65.5t36 -90.5q0 -111 -93.5 -193.5t-162.5 -82.5q-35 0 -49 24q-19 33 -9 78q2 11 11.5 16.5t19.5 1.5q51 -20 101 -20q39 0 59 25.5t20 66.5q0 52 -38.5 78.5t-98.5 30.5 q-23 0 -33 -4zM772 831q-152 0 -201 -4q-23 -2 -22 -61v-600q0 -47 26 -72q41 -37 107 -49q10 -2 14 -15.5t0 -24.5t-14 -11q-39 0 -105.5 7t-109.5 7q-41 0 -104.5 -7t-100.5 -7q-8 0 -12 11t-1 24.5t13 15.5q66 12 107 49q27 25 26 72v600q0 57 -24.5 61t-151.5 4 q-70 0 -102 -57q-8 -14 -29.5 -35.5t-36.5 -21.5q-29 0 -4 53q12 25 18.5 53.5t10.5 75.5t6 57q4 31 27 31q14 0 38 -43q14 -29 91 -29h555q82 0 104 27q25 25 49 25q6 0 12.5 -8.5t2.5 -16.5q-18 -37 -35 -192q-2 -10 -4 -18.5t-7.5 -14.5t-13.5 -6q-18 2 -33 47q0 2 -2 12 t-3 14t-5 12.5t-7 11.5t-10 9t-16.5 8t-23 4t-29.5 2z" />
<glyph unicode="&#x164;" horiz-adv-x="1372" d="M719 1575q27 16 87.5 45t109.5 55q53 31 72 31q23 0 28.5 -16t-12.5 -31l-221 -180q-3 -3 -11 -9l-10 -9l-9 -7q-7 -4 -9 -6l-7 -4q-5 -3 -7.5 -4t-6.5 -3t-7.5 -2t-7.5 -0.5t-9 -0.5q-15 0 -29 6t-20 11l-35 28l-221 180q-18 15 -12.5 30t28.5 15q43 0 107 -37 q26 -14 162 -92q17 -11 20 -11t20 11zM770 209q0 -131 162 -160q68 -12 67 -37q0 -23 -59 -22q-57 0 -126 5t-114 5q-49 0 -126.5 -5t-135.5 -5q-59 0 -59 22q0 25 67 37q80 14 120 51t40 109v932q0 82 -37 88q-43 8 -247 8q-53 0 -100.5 -20.5t-67.5 -59.5 q-12 -25 -38 -51.5t-46 -26.5q-14 0 -14.5 23.5t10.5 44.5q45 94 63 227q6 47 35 47q16 0 51 -65q23 -41 143 -41h781q78 0 118 28q14 10 36 31t37.5 32t29.5 11q8 0 12 -25.5t0 -39.5q-37 -154 -33 -222q2 -20 -8 -45.5t-24 -25.5q-23 0 -39 84q-18 94 -189 94 q-203 0 -276 -8q-33 -4 -33 -88v-932z" />
<glyph unicode="&#x165;" horiz-adv-x="1001" d="M320 1415l143 -196l142 196q26 37 59 37q13 0 19 -12q5 -13 -3 -31q-109 -221 -159 -309q-34 -59 -57.5 -59.5t-57.5 59.5q-20 34 -60 111l-70 138l-30 60q-8 18 -2 30.5t19 12.5q30 0 57 -37zM772 831q-152 0 -201 -4q-23 -2 -22 -61v-600q0 -47 26 -72q41 -37 107 -49 q10 -2 14 -15.5t0 -24.5t-14 -11q-39 0 -105.5 7t-109.5 7q-41 0 -104.5 -7t-100.5 -7q-8 0 -12 11t-1 24.5t13 15.5q66 12 107 49q27 25 26 72v600q0 57 -24.5 61t-151.5 4q-70 0 -102 -57q-8 -14 -29.5 -35.5t-36.5 -21.5q-29 0 -4 53q12 25 18.5 53.5t10.5 75.5t6 57 q4 31 27 31q14 0 38 -43q14 -29 91 -29h555q82 0 104 27q25 25 49 25q6 0 12.5 -8.5t2.5 -16.5q-18 -37 -35 -192q-2 -10 -4 -18.5t-7.5 -14.5t-13.5 -6q-18 2 -33 47q0 2 -2 12t-3 14t-5 12.5t-7 11.5t-10 9t-16.5 8t-23 4t-29.5 2z" />
<glyph unicode="&#x166;" horiz-adv-x="1394" d="M1115 1237q-238 0 -312 -8q-33 -5 -32 -88v-326h270q12 0 21.5 -9t5.5 -20q-24 -45 -64 -45h-233v-518q0 -71 39 -106q58 -53 155 -72q16 -3 22.5 -15.5t0 -24t-22.5 -11.5q-59 0 -141 5t-135 5q-54 0 -137.5 -5t-139.5 -5q-12 0 -18.5 11.5t-2 24t20.5 15.5 q99 20 156 72q39 36 39 106v518h-256q-12 0 -20.5 13t-8.5 24q0 14 15.5 25.5t33.5 11.5h236v326q0 81 -37 88q-43 8 -248 8q-52 0 -100 -21t-68 -59q-13 -24 -38.5 -51t-45.5 -27q-13 0 -14 24t10 44q44 94 64 227q7 47 34 47q7 0 24 -22.5t28 -42.5q21 -36 143 -41 q370 -14 784 6q125 6 149 39q33 45 56 45q8 0 17 -10.5t7 -24.5q-35 -174 -33 -240q0 -20 -7 -36.5t-23 -14.5q-10 2 -17.5 12.5t-13.5 29t-8 22.5q-1 2 -8.5 19.5t-11 22.5t-15.5 18.5t-26 18.5t-38 10t-56 5z" />
<glyph unicode="&#x167;" horiz-adv-x="649" d="M82 721q-10 2 -18.5 23.5t4.5 25.5q100 41 178 152q6 10 23.5 17t28.5 7t13 -6l-12 -92q-2 -14 11.5 -21.5t33.5 -7.5h242q16 0 16 -49t-16 -49h-211h-34q-11 0 -22.5 -2t-15.5 -2t-7 -8.5t-3 -9.5v-15v-20v-160h176q12 0 21.5 -9.5t5.5 -19.5q-25 -45 -64 -45h-139v-211 q0 -61 44 -108.5t99 -47.5q90 0 154 48q14 11 19 -18q3 -16 -3 -23q-16 -29 -91 -64t-146 -35q-88 0 -153.5 57.5t-65.5 141.5v260h-70q-12 0 -20.5 12.5t-8.5 24.5q0 14 15.5 25.5t33.5 11.5h50v186q0 14 -5.5 20.5t-11.5 7.5t-23.5 2t-27.5 1z" />
<glyph unicode="&#x168;" horiz-adv-x="1511" d="M457 1511q39 55 97 106.5t81 51.5q25 0 160 -8t161 -8q57 0 117 76q4 6 15.5 -1.5t19.5 -18.5t4 -17q-33 -47 -90 -107.5t-78 -60.5q-27 0 -166 8t-166 8q-55 0 -112 -65q-8 -8 -28.5 10t-14.5 26zM1321 1120q-2 -33 -21 -600q-8 -240 -154.5 -394.5t-367.5 -154.5 q-283 0 -425 187.5t-142 500.5v461q0 123 -94 150q-68 18 -68 45q0 23 60 22q29 0 93 -3t103 -3q35 0 90.5 2t73.5 2q59 0 59 -22q0 -18 -67 -41q-29 -8 -57.5 -50t-28.5 -98v-522q0 -211 127 -369.5t323 -158.5q190 0 288.5 146.5t98.5 393.5q0 117 -8 433q-4 201 -84 223 q-68 18 -67.5 40.5t59.5 22.5q31 0 78 -1t76 -1q35 0 90 3t76 3q59 0 59 -22q0 -27 -68 -41q-96 -19 -102 -154z" />
<glyph unicode="&#x169;" horiz-adv-x="1153" d="M354 1016q43 61 96.5 113.5t81.5 52.5q18 0 105.5 -14.5t114.5 -14.5q18 0 30.5 3t33 20.5t46.5 50.5q4 6 15.5 -1t18.5 -18.5t3 -17.5q-39 -55 -92 -113.5t-80 -58.5q-18 0 -110.5 13t-118.5 13q-39 0 -113 -73q-4 -4 -14.5 3t-16.5 20.5t0 21.5zM164 418v344 q0 41 -12.5 64.5t-24.5 28.5t-43 15q-8 2 -13 14.5t-3 25t12 12.5q33 0 88 -2t90 -2q25 0 61.5 2t79.5 2q12 0 12.5 -22.5t-12.5 -27.5q-80 -10 -82 -124v-369q0 -137 87.5 -235.5t224.5 -98.5q131 0 192.5 82t61.5 268v322q2 88 -17.5 113.5t-74.5 39.5q-14 4 -13.5 29 t15.5 25h147q31 0 82 1t84 1q12 0 10 -21.5t-10 -23.5q-115 -23 -119 -113q-14 -158 -14 -324q0 -471 -371 -471q-207 0 -322.5 127.5t-115.5 317.5z" />
<glyph unicode="&#x16a;" horiz-adv-x="1511" d="M526 1591h539q12 0 21.5 -9t5.5 -19q0 -2 -4.5 -12.5t-5.5 -13.5l-4 -12q-3 -9 -5 -13l-6 -10q-4 -7 -7 -9t-8 -6t-11.5 -5t-12.5 -1h-522q-10 0 -19.5 7t-9.5 17q0 25 12 55.5t37 30.5zM1321 1120q-2 -33 -21 -600q-8 -240 -154.5 -394.5t-367.5 -154.5 q-283 0 -425 187.5t-142 500.5v461q0 123 -94 150q-68 18 -68 45q0 23 60 22q29 0 93 -3t103 -3q35 0 90.5 2t73.5 2q59 0 59 -22q0 -18 -67 -41q-29 -8 -57.5 -50t-28.5 -98v-522q0 -211 127 -369.5t323 -158.5q190 0 288.5 146.5t98.5 393.5q0 117 -8 433q-4 201 -84 223 q-68 18 -67.5 40.5t59.5 22.5q31 0 78 -1t76 -1q35 0 90 3t76 3q59 0 59 -22q0 -27 -68 -41q-96 -19 -102 -154z" />
<glyph unicode="&#x16b;" horiz-adv-x="1153" d="M383 1149h457q12 0 21 -9.5t5 -19.5q-8 -25 -13 -37t-18.5 -24t-31.5 -12h-441q-10 0 -19 7t-9 17q0 20 13 49t36 29zM164 418v344q0 41 -12.5 64.5t-24.5 28.5t-43 15q-8 2 -13 14.5t-3 25t12 12.5q33 0 88 -2t90 -2q25 0 61.5 2t79.5 2q12 0 12.5 -22.5t-12.5 -27.5 q-80 -10 -82 -124v-369q0 -137 87.5 -235.5t224.5 -98.5q131 0 192.5 82t61.5 268v322q2 88 -17.5 113.5t-74.5 39.5q-14 4 -13.5 29t15.5 25h147q31 0 82 1t84 1q12 0 10 -21.5t-10 -23.5q-115 -23 -119 -113q-14 -158 -14 -324q0 -471 -371 -471q-207 0 -322.5 127.5 t-115.5 317.5z" />
<glyph unicode="&#x16c;" horiz-adv-x="1511" d="M543 1690q27 -47 87 -88t154.5 -41t154.5 40.5t87 88.5q25 43 45.5 43t20.5 -50q0 -100 -93.5 -183t-214.5 -83q-125 0 -216 77t-91 189q0 49 20.5 49.5t45.5 -42.5zM1321 1120q-2 -33 -21 -600q-8 -240 -154.5 -394.5t-367.5 -154.5q-283 0 -425 187.5t-142 500.5v461 q0 123 -94 150q-68 18 -68 45q0 23 60 22q29 0 93 -3t103 -3q35 0 90.5 2t73.5 2q59 0 59 -22q0 -18 -67 -41q-29 -8 -57.5 -50t-28.5 -98v-522q0 -211 127 -369.5t323 -158.5q190 0 288.5 146.5t98.5 393.5q0 117 -8 433q-4 201 -84 223q-68 18 -67.5 40.5t59.5 22.5 q31 0 78 -1t76 -1q35 0 90 3t76 3q59 0 59 -22q0 -27 -68 -41q-96 -19 -102 -154z" />
<glyph unicode="&#x16d;" horiz-adv-x="1153" d="M446 1190q4 -8 17.5 -38t24 -46t40 -31.5t72.5 -15.5t72.5 15.5t40 31.5t24 46t17.5 38q2 2 8 17.5t11 20.5t15 5q31 0 31 -49q0 -102 -57 -170t-162 -68q-106 0 -162.5 61.5t-56.5 176.5q0 49 31 49q10 0 15 -5t11 -20.5t8 -17.5zM164 418v344q0 41 -12.5 64.5 t-24.5 28.5t-43 15q-8 2 -13 14.5t-3 25t12 12.5q33 0 88 -2t90 -2q25 0 61.5 2t79.5 2q12 0 12.5 -22.5t-12.5 -27.5q-80 -10 -82 -124v-369q0 -137 87.5 -235.5t224.5 -98.5q131 0 192.5 82t61.5 268v322q2 88 -17.5 113.5t-74.5 39.5q-14 4 -13.5 29t15.5 25h147 q31 0 82 1t84 1q12 0 10 -21.5t-10 -23.5q-115 -23 -119 -113q-14 -158 -14 -324q0 -471 -371 -471q-207 0 -322.5 127.5t-115.5 317.5z" />
<glyph unicode="&#x16e;" horiz-adv-x="1511" d="M793 1769q76 0 125 -43t49 -114q0 -76 -56.5 -127t-134.5 -51q-72 0 -123 44t-51 117.5t56.5 123.5t134.5 50zM680 1602q0 -49 32.5 -86t82.5 -37q43 0 68.5 37.5t25.5 85.5q0 49 -32 84.5t-79 35.5q-43 0 -70.5 -36.5t-27.5 -83.5zM1321 1120q-2 -33 -21 -600 q-8 -240 -154.5 -394.5t-367.5 -154.5q-283 0 -425 187.5t-142 500.5v461q0 123 -94 150q-68 18 -68 45q0 23 60 22q29 0 93 -3t103 -3q35 0 90.5 2t73.5 2q59 0 59 -22q0 -18 -67 -41q-29 -8 -57.5 -50t-28.5 -98v-522q0 -211 127 -369.5t323 -158.5q190 0 288.5 146.5 t98.5 393.5q0 117 -8 433q-4 201 -84 223q-68 18 -67.5 40.5t59.5 22.5q31 0 78 -1t76 -1q35 0 90 3t76 3q59 0 59 -22q0 -27 -68 -41q-96 -19 -102 -154z" />
<glyph unicode="&#x16f;" horiz-adv-x="1153" d="M587.5 1327q67.5 0 120 -49t52.5 -116.5t-52.5 -123t-120 -55.5t-119.5 55.5t-52 123t52 116.5t119.5 49zM483 1155q0 -43 31 -73.5t74 -30.5t73.5 30.5t30.5 73.5t-30.5 74t-73.5 31t-74 -31t-31 -74zM164 418v344q0 41 -12.5 64.5t-24.5 28.5t-43 15q-8 2 -13 14.5 t-3 25t12 12.5q33 0 88 -2t90 -2q25 0 61.5 2t79.5 2q12 0 12.5 -22.5t-12.5 -27.5q-80 -10 -82 -124v-369q0 -137 87.5 -235.5t224.5 -98.5q131 0 192.5 82t61.5 268v322q2 88 -17.5 113.5t-74.5 39.5q-14 4 -13.5 29t15.5 25h147q31 0 82 1t84 1q12 0 10 -21.5t-10 -23.5 q-115 -23 -119 -113q-14 -158 -14 -324q0 -471 -371 -471q-207 0 -322.5 127.5t-115.5 317.5z" />
<glyph unicode="&#x170;" horiz-adv-x="1511" d="M913 1470q-31 -37 -57 -36q-12 0 -18.5 12t2.5 31q74 160 116 235q27 43 70 43q72 0 96 -43q14 -27 -30 -67q-31 -27 -93.5 -88.5t-85.5 -86.5zM623 1470q-31 -37 -58 -36q-12 0 -18 12t2 31q74 160 117 235q27 43 69 43q72 0 96 -43q14 -27 -30 -67q-31 -27 -93 -88.5 t-85 -86.5zM1321 1120q-2 -33 -21 -600q-8 -240 -154.5 -394.5t-367.5 -154.5q-283 0 -425 187.5t-142 500.5v461q0 123 -94 150q-68 18 -68 45q0 23 60 22q29 0 93 -3t103 -3q35 0 90.5 2t73.5 2q59 0 59 -22q0 -18 -67 -41q-29 -8 -57.5 -50t-28.5 -98v-522 q0 -211 127 -369.5t323 -158.5q190 0 288.5 146.5t98.5 393.5q0 117 -8 433q-4 201 -84 223q-68 18 -67.5 40.5t59.5 22.5q31 0 78 -1t76 -1q35 0 90 3t76 3q59 0 59 -22q0 -27 -68 -41q-96 -19 -102 -154z" />
<glyph unicode="&#x171;" horiz-adv-x="1153" d="M479 993q-25 -51 -45 -55q-29 -4 -31 23q-6 29 125 352q25 61 93 73q27 4 51 -9t28 -36q2 -17 -43 -85l-103 -151q-58 -83 -75 -112zM756 993q-33 -51 -45 -55q-29 -4 -31 23q-6 29 125 352q25 61 92 73q27 4 51.5 -9t28.5 -36q2 -16 -40 -82.5t-103.5 -153.5t-77.5 -112 zM164 418v344q0 41 -12.5 64.5t-24.5 28.5t-43 15q-8 2 -13 14.5t-3 25t12 12.5q33 0 88 -2t90 -2q25 0 61.5 2t79.5 2q12 0 12.5 -22.5t-12.5 -27.5q-80 -10 -82 -124v-369q0 -137 87.5 -235.5t224.5 -98.5q131 0 192.5 82t61.5 268v322q2 88 -17.5 113.5t-74.5 39.5 q-14 4 -13.5 29t15.5 25h147q31 0 82 1t84 1q12 0 10 -21.5t-10 -23.5q-115 -23 -119 -113q-14 -158 -14 -324q0 -471 -371 -471q-207 0 -322.5 127.5t-115.5 317.5z" />
<glyph unicode="&#x172;" horiz-adv-x="1507" d="M778 -29q-144 0 -254 51.5t-177.5 144.5t-101.5 217t-34 275v447q0 46 -8 75.5t-27 47t-34.5 24.5t-47.5 17q-11 4 -18 20t-4.5 30.5t14.5 14.5q50 0 108.5 -3t96.5 -3q36 0 88.5 3t114.5 3q11 0 15.5 -14.5t0 -29.5t-15.5 -17q-62 -9 -89 -54t-30 -135q-3 -78 -3 -171.5 t1.5 -188.5t1.5 -123q0 -136 55 -256t160 -196t235 -76q190 0 288.5 146.5t98.5 393.5q0 257 -8 430q-5 96 -16.5 139.5t-33.5 60t-75 30.5q-19 5 -17 35t21 30h168q46 0 100.5 2t100.5 2q16 0 14 -26.5t-14 -30.5q-64 -18 -95.5 -55t-37.5 -113q-18 -286 -19 -598 q0 -178 -88 -314t-234 -196l-22 -18q-59 -49 -85.5 -74t-58 -64t-42.5 -79t-11 -92.5t40 -88.5t95 -36q25 0 54 11.5t49.5 25t40.5 28.5t24 17q7 5 15.5 2t8.5 -15q0 -21 -24 -65q-28 -48 -101 -99t-143 -51q-96 0 -165 68t-69 164q0 101 55.5 171t194.5 159q-28 -3 -56 -3z " />
<glyph unicode="&#x173;" horiz-adv-x="1153" d="M768 37h53q-184 -155 -184 -348q0 -66 34.5 -103.5t88.5 -37.5q60 0 112 41q6 5 16.5 0.5t8.5 -13.5q-5 -31 -33 -63l-8 -10q-8 -11 -14 -17l-18 -18q-12 -12 -25 -20.5t-29.5 -17t-36.5 -13t-41 -4.5q-93 0 -150 56t-57 165q0 87 78 203.5t205 199.5zM164 418v344 q0 41 -12.5 64.5t-24.5 28.5t-43 15q-8 2 -13 14.5t-3 25t12 12.5q33 0 88 -2t90 -2q25 0 61.5 2t79.5 2q12 0 12.5 -22.5t-12.5 -27.5q-80 -10 -82 -124v-369q0 -137 87.5 -235.5t224.5 -98.5q131 0 192.5 82t61.5 268v322q2 88 -17.5 113.5t-74.5 39.5q-14 4 -13.5 29 t15.5 25h147q31 0 82 1t84 1q12 0 10 -21.5t-10 -23.5q-115 -23 -119 -113q-14 -158 -14 -324q0 -471 -371 -471q-207 0 -322.5 127.5t-115.5 317.5z" />
<glyph unicode="&#x174;" horiz-adv-x="1875" d="M1005 1563q-17 11 -20.5 10.5t-20.5 -10.5q-136 -79 -162 -93q-63 -37 -106 -36q-23 0 -29 14.5t12 30.5l222 180q3 3 11 9l10 8l9 7q6 5 8 6t7 4.5t7.5 4t7 2.5t7.5 2.5t7.5 1t9.5 0.5q15 0 29 -6t20 -11l35 -28l221 -180q18 -15 12.5 -31t-29.5 -16q-19 0 -71 30 l-110 56q-60 30 -87 45zM932 1210q33 -96 92 -231q6 -14 10 -20.5t8.5 -6.5t8.5 6.5t10 20.5q41 92 82 231q6 23 -4.5 38.5t-26.5 22.5t-29.5 18t-13.5 24q0 23 59 22q33 0 63 -2t50.5 -2t55 3t59.5 3q59 0 59 -22q0 -27 -67 -41q-61 -14 -86 -32.5t-54 -65.5 q-41 -72 -108 -252q-20 -55 -13 -78l211 -543q8 -20 23 12q78 207 250 793q41 137 -49 162q-68 18 -68 40.5t59 22.5q25 0 80.5 -1t92.5 -1q31 0 84 3t75 3q59 0 60 -22q0 -27 -68 -41q-109 -25 -168 -180l-330 -975q-51 -143 -65 -144q-18 0 -35 39q-63 143 -147 362.5 t-105 270.5q-9 19 -17 0l-5 -12q-115 -268 -234 -604q-23 -63 -45 -64q-6 0 -29 58l-442 1110q-51 106 -147 135q-68 20 -68 45q0 23 59 22q31 0 85.5 -3t86.5 -3q45 0 116 2t85 2q59 0 59.5 -22.5t-67.5 -40.5q-69 -17 -28 -147l3 -9q158 -403 336 -805q18 -39 31 -2 l160 396q12 37 11 52t-15 54l-117 291q-25 61 -80 106t-115 62q-68 20 -67 45q0 23 59 22q31 0 89.5 -3t94.5 -3q35 0 91.5 2t74.5 2q59 0 60 -22q0 -14 -24.5 -27.5t-45 -31t-10.5 -44.5z" />
<glyph unicode="&#x175;" horiz-adv-x="1472" d="M584 1077q-27 -37 -58 -37q-12 0 -18 12.5t2 30.5q117 233 160 310q35 59 57.5 59t56.5 -59l160 -310q8 -18 2 -30.5t-18 -12.5q-33 0 -60 37l-141 197zM1272 741l-111 -333l-114 -342q-10 -28 -43 -69.5t-41 -41.5q-7 0 -25 11.5t-25 25.5q-33 67 -55 117l-54 137 l-52 135q-1 2 -2 6q-10 27 -21 -2q-29 -78 -76.5 -185.5t-79.5 -195.5q-6 -15 -29.5 -33t-33.5 -18q-5 0 -27 17.5t-26 29.5l-312 770q-16 39 -34 55q-36 32 -78 45q-14 3 -14.5 25t14.5 23q31 0 83.5 -3.5t86.5 -3.5q39 0 99.5 3.5t88.5 3.5q10 0 13.5 -11.5t-1 -23.5 t-14.5 -13q-38 -1 -64 -14t-26 -27q0 -8 6 -26.5t12 -32.5l7 -14l73 -188l83 -214l79 -186q2 -6 10.5 -7t12.5 5l110 289q12 35 11 39t-13 36q-12 31 -35.5 100.5t-46.5 114.5q-27 55 -57 80q-51 41 -94 45q-12 0 -11.5 24t11.5 24q23 0 69.5 -3.5t75.5 -3.5q33 0 86 3.5 t70 3.5q14 0 13 -22t-13 -26q-35 -6 -35 -41q0 -23 51 -155q1 -3 4 -9l9 -16q1 0 4 12q4 14 8 23q49 121 49 145q0 12 -10.5 25.5t-26.5 15.5q-6 2 -9 13.5t0 23t9 11.5q23 0 53.5 -3.5t50.5 -3.5q29 0 73 3.5t65 3.5q14 0 13 -20.5t-13 -25.5q-6 -2 -18.5 -4t-16.5 -3 t-14.5 -3t-13.5 -3t-11 -5t-12 -7t-11.5 -7t-11.5 -10.5t-10 -14.5l-12 -16q-47 -80 -88 -191q-14 -35 -5 -63q59 -166 162 -383q2 -4 8.5 -1t8.5 9q98 297 178 580q8 29 8 79q0 12 -22.5 24.5t-51.5 16.5q-14 2 -14 25t14 23q29 0 78 -3.5t80 -3.5q27 0 70 3.5t73 3.5 q4 0 8.5 -11.5t2.5 -24t-11 -12.5q-61 -14 -86 -28q-36 -25 -63 -101z" />
<glyph unicode="&#x176;" horiz-adv-x="1183" d="M665 1563q-17 11 -20.5 10.5t-20.5 -10.5q-136 -79 -162 -93q-63 -37 -106 -36q-23 0 -29 14.5t12 30.5l221 180q3 3 11.5 9t10.5 8l9 7q6 5 8 6t7 4.5t7.5 4t7 2.5t7.5 2.5t7.5 1t8.5 0.5q15 0 28.5 -6t20.5 -11t35 -28l222 -180q18 -15 12 -31t-29 -16q-19 0 -71 30 l-110 56q-60 30 -87 45zM541 221v303q0 23 -4.5 44.5t-11.5 40t-13 29.5t-14.5 23.5t-8.5 14.5l-239 393q-113 180 -182 201q-68 20 -68 45q0 23 59 22q27 0 108 -3t132 -3q35 0 90 2t74 2q59 0 59 -22q0 -18 -67 -41q-20 -6 -34.5 -18.5t-23 -40t18.5 -66.5l188 -338 q12 -20 17.5 -28.5t12.5 -22t11 -15.5t9 -9t10.5 -2t8.5 4t10 10.5t11 15.5t16.5 20.5t18.5 26.5q119 166 172 285q25 53 10.5 108t-57.5 68q-68 18 -68 40.5t60 22.5q31 0 78 -1t75 -1q41 0 109 3t88 3q59 0 59 -22q0 -27 -67 -41q-82 -16 -205 -197q-109 -166 -227 -368 q-37 -63 -44 -92t-7 -93v-303q0 -70 41.5 -114t119.5 -58q68 -12 68 -37q0 -23 -60 -22q-57 0 -125.5 5t-113.5 5q-49 0 -127 -5t-135 -5q-59 0 -60 22q0 25 68 37q160 29 160 172z" />
<glyph unicode="&#x177;" horiz-adv-x="1011" d="M360 1085q-27 -37 -57 -36q-12 0 -18 12t2 31q117 233 159 309q35 59 57.5 59t57.5 -59l160 -309q8 -18 2 -30.5t-18 -12.5q-33 0 -60 36l-141 197zM61 872q-8 0 -13 12.5t-3 25t10 12.5q33 0 86.5 -2t86 -2t83.5 2t92 2q10 0 10.5 -21.5t-10.5 -23.5q-96 -14 -55 -89 q32 -58 54 -90l46 -66l44 -61l18 -27q10 -16 11 -19t7.5 -4t7.5 4t11 19.5t20 26.5q94 131 135 211q16 35 -7 60.5t-66 31.5q-12 2 -11.5 26t15.5 24h147q31 0 76 1t76 1q12 0 10 -20.5t-10 -22.5q-88 -12 -174 -144q-31 -53 -75 -114.5t-81 -120.5l-14 -22l-10 -17l-8 -13 q-5 -8 -5 -11t-2 -12t0 -14t0 -20q2 -35 1 -115.5t-1 -111.5q0 -47 27 -72q41 -37 106 -49q12 -2 16.5 -16.5t-0.5 -26.5t-16 -12q-41 0 -102.5 6t-99.5 6q-43 0 -113 -6t-107 -6q-8 0 -13 12t-2 26.5t15 16.5q68 12 109 49q27 25 27 72v227q0 37 -25 86q-27 49 -53.5 87 t-63.5 86l-61 81q-4 6 -20.5 34t-31 47.5t-40 36.5t-54.5 19z" />
<glyph unicode="&#x178;" horiz-adv-x="1183" d="M839 1659q46 0 79.5 -33.5t33.5 -79.5t-33.5 -79t-79.5 -33t-79.5 33t-33.5 79t33.5 79.5t79.5 33.5zM450 1659q46 0 79.5 -33.5t33.5 -79.5t-33.5 -79t-79.5 -33t-79.5 33t-33.5 79t33.5 79.5t79.5 33.5zM541 221v303q0 23 -4.5 44.5t-11.5 40t-13 29.5t-14.5 23.5 t-8.5 14.5l-239 393q-113 180 -182 201q-68 20 -68 45q0 23 59 22q27 0 108 -3t132 -3q35 0 90 2t74 2q59 0 59 -22q0 -18 -67 -41q-20 -6 -34.5 -18.5t-23 -40t18.5 -66.5l188 -338q12 -20 17.5 -28.5t12.5 -22t11 -15.5t9 -9t10.5 -2t8.5 4t10 10.5t11 15.5t16.5 20.5 t18.5 26.5q119 166 172 285q25 53 10.5 108t-57.5 68q-68 18 -68 40.5t60 22.5q31 0 78 -1t75 -1q41 0 109 3t88 3q59 0 59 -22q0 -27 -67 -41q-82 -16 -205 -197q-109 -166 -227 -368q-37 -63 -44 -92t-7 -93v-303q0 -70 41.5 -114t119.5 -58q68 -12 68 -37q0 -23 -60 -22 q-57 0 -125.5 5t-113.5 5q-49 0 -127 -5t-135 -5q-59 0 -60 22q0 25 68 37q160 29 160 172z" />
<glyph unicode="&#x179;" horiz-adv-x="1234" d="M508 1444q-46 -10 -70 -4q-13 3 -11.5 18.5t17.5 26.5q200 128 336 196q60 33 107 11q69 -33 71 -95q0 -39 -65 -53q-232 -57 -385 -100zM887 84q172 14 254 207q16 43 45 43q18 0 18 -27q0 -18 -29.5 -133t-46.5 -149q-18 -35 -36 -35q-106 0 -419 4t-356 0h-245 q-6 0 -9.5 7t-4.5 14l-1 8q0 31 119 190q481 657 701 991q23 31 -31 33q-342 10 -508 0q-57 -4 -110.5 -38t-77.5 -103q-27 -66 -58 -66q-33 0 -4 78q47 141 55 227q2 35 31 35q14 0 51 -29q23 -16 150 -16q403 -6 770 4q10 0 19.5 -14.5t2.5 -22.5l-125 -166 q-442 -596 -692 -983q-10 -14 -5 -35.5t22 -23.5q198 -25 520 0z" />
<glyph unicode="&#x17a;" horiz-adv-x="954" d="M426 1120q-33 -45 -55 -45q-27 0 -27 27q0 20 72.5 152t118.5 206q35 55 104 56q27 0 48.5 -18.5t21.5 -39.5q0 -16 -34 -50t-106.5 -113t-142.5 -175zM664 80q127 8 176 123q8 20 73 28q6 0 9.5 -5t1.5 -13q-31 -143 -58 -195q-2 -2 -4 -8l-3 -9q-1 -3 -5 -5t-8 -2 q-74 0 -322 3t-264 -1h-190q-12 0 -7 19l7 20q6 14 75 117q336 461 480 682q12 20 -23 22q-254 6 -336 0q-74 -6 -104 -92q-4 -12 -28.5 -31.5t-39.5 -19.5q-20 0 -4 53q45 152 49 162q12 25 33 24q10 0 35 -20q14 -10 84 -10q317 -4 561 2q8 0 14 -10.5t2 -14.5 q-12 -14 -86 -117q-274 -367 -465 -661q-6 -10 -2 -24.5t15 -16.5q127 -16 334 0z" />
<glyph unicode="&#x17b;" horiz-adv-x="1234" d="M686 1659q46 0 79 -33.5t33 -79.5t-33 -79t-79 -33t-79.5 33t-33.5 79t33.5 79.5t79.5 33.5zM887 84q172 14 254 207q16 43 45 43q18 0 18 -27q0 -18 -29.5 -133t-46.5 -149q-18 -35 -36 -35q-106 0 -419 4t-356 0h-245q-6 0 -9.5 7t-4.5 14l-1 8q0 31 119 190 q481 657 701 991q23 31 -31 33q-342 10 -508 0q-57 -4 -110.5 -38t-77.5 -103q-27 -66 -58 -66q-33 0 -4 78q47 141 55 227q2 35 31 35q14 0 51 -29q23 -16 150 -16q403 -6 770 4q10 0 19.5 -14.5t2.5 -22.5l-125 -166q-442 -596 -692 -983q-10 -14 -5 -35.5t22 -23.5 q198 -25 520 0z" />
<glyph unicode="&#x17c;" horiz-adv-x="954" d="M390 1178q0 44 29.5 74t73.5 30q45 0 74.5 -30t29.5 -74q0 -43 -30 -73t-74 -30q-43 0 -73 30t-30 73zM664 80q127 8 176 123q8 20 73 28q6 0 9.5 -5t1.5 -13q-31 -143 -58 -195q-2 -2 -4 -8l-3 -9q-1 -3 -5 -5t-8 -2q-74 0 -322 3t-264 -1h-190q-12 0 -7 19l7 20 q6 14 75 117q336 461 480 682q12 20 -23 22q-254 6 -336 0q-74 -6 -104 -92q-4 -12 -28.5 -31.5t-39.5 -19.5q-20 0 -4 53q45 152 49 162q12 25 33 24q10 0 35 -20q14 -10 84 -10q317 -4 561 2q8 0 14 -10.5t2 -14.5q-12 -14 -86 -117q-274 -367 -465 -661q-6 -10 -2 -24.5 t15 -16.5q127 -16 334 0z" />
<glyph unicode="&#x17d;" horiz-adv-x="1234" d="M706 1575q27 16 87.5 45t109.5 55q53 31 72 31q23 0 28.5 -16t-12.5 -31l-221 -180q-3 -3 -11 -9l-11 -9q-2 -2 -8.5 -6.5t-8.5 -6t-7 -4.5t-7.5 -4t-6.5 -3t-7.5 -2t-8 -0.5t-8.5 -0.5q-15 0 -28.5 6t-19.5 11l-36 28l-221 180q-18 15 -12.5 30t28.5 15q43 0 107 -37 q26 -14 161 -92q17 -11 20.5 -11t20.5 11zM887 84q172 14 254 207q16 43 45 43q18 0 18 -27q0 -18 -29.5 -133t-46.5 -149q-18 -35 -36 -35q-106 0 -419 4t-356 0h-245q-6 0 -9.5 7t-4.5 14l-1 8q0 31 119 190q481 657 701 991q23 31 -31 33q-342 10 -508 0 q-57 -4 -110.5 -38t-77.5 -103q-27 -66 -58 -66q-33 0 -4 78q47 141 55 227q2 35 31 35q14 0 51 -29q23 -16 150 -16q403 -6 770 4q10 0 19.5 -14.5t2.5 -22.5l-125 -166q-442 -596 -692 -983q-10 -14 -5 -35.5t22 -23.5q198 -25 520 0z" />
<glyph unicode="&#x17e;" horiz-adv-x="954" d="M336 1450l143 -197l142 197q27 37 59 37q12 0 18.5 -12.5t-2.5 -30.5q-109 -221 -159 -309q-35 -59 -57.5 -59.5t-57.5 59.5l-160 309q-8 18 -2 30.5t19 12.5q30 0 57 -37zM664 80q127 8 176 123q8 20 73 28q6 0 9.5 -5t1.5 -13q-31 -143 -58 -195q-2 -2 -4 -8l-3 -9 q-1 -3 -5 -5t-8 -2q-74 0 -322 3t-264 -1h-190q-12 0 -7 19l7 20q6 14 75 117q336 461 480 682q12 20 -23 22q-254 6 -336 0q-74 -6 -104 -92q-4 -12 -28.5 -31.5t-39.5 -19.5q-20 0 -4 53q45 152 49 162q12 25 33 24q10 0 35 -20q14 -10 84 -10q317 -4 561 2q8 0 14 -10.5 t2 -14.5q-12 -14 -86 -117q-274 -367 -465 -661q-6 -10 -2 -24.5t15 -16.5q127 -16 334 0z" />
<glyph unicode="&#x17f;" horiz-adv-x="763" d="M346 49q160 0 160 154q0 14 -3 26.5t-6 22.5t-13 22l-15 21q-7 9 -21 21l-21 18q-7 6 -27 20q-18 13 -28 19l-34 21l-35 22q-195 123 -194 280q0 80 83.5 161t227.5 81q43 0 82 -7t67.5 -16.5t36.5 -11.5q23 -2 27 -31q23 -109 22 -151q0 -10 -5 -22.5t-11 -12.5 q-8 0 -27.5 10.5t-21.5 24.5q-41 145 -189 145q-141 0 -141 -121q0 -18 6 -35.5t20.5 -36t25.5 -29.5q10 -12 34 -30l34 -25q9 -7 39 -25.5t34 -20.5q225 -145 225 -297q0 -100 -84 -184.5t-242 -84.5q-49 0 -90 6.5t-81 17.5t-50 13t-14 4t-6 8l-2 5q-12 27 -29 92t-19 102 q0 8 14.5 15.5t26.5 7.5q4 0 23 -31t44.5 -68.5t73.5 -68.5t103 -31z" />
<glyph unicode="&#x1a0;" horiz-adv-x="1603" d="M1362 1130l18 -20q66 -77 83.5 -170t17.5 -254q0 -140 -45.5 -267.5t-130 -228t-217.5 -160t-295 -59.5q-180 0 -338.5 89t-255.5 247.5t-97 347.5q0 140 46 266t130.5 224.5t218 156.5t296.5 58q99 0 189 -18q90 -20 140 -42l102 -46q52 -24 74 -29q47 -11 97.5 1.5 t50.5 39.5q0 33 -43 48t-43 50q0 37 44 78t79 41q27 0 52.5 -43t25.5 -80q0 -44 -20.5 -84t-50 -65.5t-58.5 -44.5t-49 -27zM778 1280q-146 0 -257 -82t-165.5 -208.5t-54.5 -272.5q0 -175 65.5 -327t185.5 -245.5t267 -93.5q226 0 344.5 152.5t118.5 421.5 q0 299 -131.5 477t-372.5 178z" />
</font>
</defs>
</svg>
